<?xml version="1.0" encoding="utf-8"?>
<!-- Generator: Adobe Illustrator 16.0.0, SVG Export Plug-In . SVG Version: 6.00 Build 0)  -->
<!DOCTYPE svg PUBLIC "-//W3C//DTD SVG 1.1//EN" "http://www.w3.org/Graphics/SVG/1.1/DTD/svg11.dtd">
<svg version="1.1" id="Layer_1" xmlns="http://www.w3.org/2000/svg" xmlns:xlink="http://www.w3.org/1999/xlink" x="0px" y="0px"
	 width="1284.129px" height="319.311px" viewBox="0 0 1284.129 319.311" enable-background="new 0 0 1284.129 319.311"
	 xml:space="preserve">
<g>
	<path fill="#FFFFFF" d="M1283.505,258.973c0.012-4.17-1.633-7.193-4.342-9.902c-2.064-2.068-4.513-3.807-3.321-7.385
		c0.351-1.057-0.59-1.98-1.348-2.773c-0.546-0.574-1.387-1.141-1.5-1.811c-0.188-1.145-0.367-2.075-0.927-2.375
		c-0.436-0.222-1.098-0.068-2.164,0.656c-0.355,0.24-0.687,0.281-0.945,0.176c-0.438-0.164-0.68-0.742-0.494-1.51
		c0.279-1.156,0.978-2.02,1.911-2.808c6.706-5.663,10.338-12.825,10.362-21.692c0.001-0.713,0.008-1.441-0.131-2.137
		c-1.564-7.736-8.314-14.086-16.068-16.557c-3.035-0.965-6.224-1.334-9.314-0.96c-8.453,1.022-11.932,7.016-15.002,13.476
		c-1.193,2.512-2.489,5.336-1.533,8.49c0.337,1.117-0.819,2.09-1.515,3.018c-0.963,1.286-1.931,2.57-2.841,3.894
		c-0.532,0.775-0.921,1.925,0.125,2.308c1.821,0.664,1.512,2.033,1.324,3.233c-0.542,3.409,0.837,6.507,1.651,9.618
		c0.69,2.637,3.609,3.707,5.695,5.277c1.195,0.9,3.529,5.482,3.212,6.836c-0.205,0.876-0.841,1.359-1.652,1.572
		c-9.9,2.596-15.831,9.492-20.012,18.658c-0.005-0.006-0.01-0.01-0.015-0.015c-0.001,0.003-0.003,0.005-0.004,0.008
		c-2.408-2.691-5.646-4.006-8.35-6.088c-0.279-0.217-0.573-0.446-0.897-0.567c-3.244-1.19-3.225-1.165-1.205-3.844
		c1.462-1.938,3.069-3.48,5.422-4.539c2.715-1.222,4.797-3.701,5.547-6.6c0.718-2.775,3.031-3.938,4.837-5.138
		c1.938-1.288,2.729-2.78,3.297-4.684c0.152-0.047,0.264-0.051,0.353-0.029c0.519,0.091,0.167,1.103,0.609,1.198
		c0.077,0.011,0.174-0.002,0.303-0.05c0.772-0.29,0.126-0.915,0.197-1.38c0.556-3.658-0.244-7.051-1.956-10.279
		c-0.2-0.378-0.443-0.877-0.353-1.24c0.963-3.844-1.228-7.115-2.462-10.309c-0.857-2.213-3.146-4.409-5.647-5.729
		c-1.068-0.562-2.17-1.008-3.32-1.349c-0.38-0.112-0.766-0.214-1.157-0.304c-3.188-0.731-6.485-0.437-9.688-1.449
		c-2.435-0.771-4.6,0.429-6.744,2.172c-3.917,3.181-7.172,6.584-8.219,11.686c-0.177,0.859-0.934,1.187-1.622,1.639
		c-1.664,1.093-1.746,2.793-0.293,4.246c0.819,0.818,1.086,1.381-0.377,1.75c-1.145,0.286-1.34,1.146-1.254,2.293
		c0.137,1.833,1.213,3.799-0.702,5.456c-0.459,0.397,0.011,0.868,0.479,1.037c0.061,0.021,0.121-0.072,0.179-0.063
		c0.007,0.001,0.011-0.105,0.018-0.105c0.001,0,0.002,0,0.003,0c0.159,0,0.293,0.191,0.436,0.236
		c0.094,0.031,0.199,0.102,0.287,0.139c1.59,0.667,2.148,2.49,3.447,3.553c-0.007-0.002-0.014,0.01-0.02,0.008l0,0
		c-0.317-0.13-0.637-0.235-0.957-0.333c-4.529-1.383-9.318,0.19-13.839-1.044c-0.326-0.088-0.65-0.189-0.974-0.309
		c0.029-0.826,0.661-1.383,1.135-2.003c3.032-3.959,4.77-8.354,4.477-13.401c-0.267-4.619,1.993-8.422,5.148-11.019
		c6.235-5.134,9.172-11.479,9.997-19.321c0.553-5.244,2.32-10.216,5.207-14.758c2.159-3.391,1.914-5.029-0.859-8.109
		c-1.026-1.139-1.23-2.122-0.74-3.604c0.972-2.956,1.576-6.032,2.508-9.003c0.445-1.43,1.038-2.959,2.004-4.051
		c2.074-2.338,3.356-4.761,2.617-7.979c-0.335-1.469,0.852-2.015,1.89-2.549c1.578-0.811,2.238-1.73,1.313-3.63
		c-0.734-1.502,0.448-3.103,0.914-4.546c0.514-1.591,1.164-3.213,0.156-4.51c-0.273-0.352-0.593-0.576-0.941-0.711
		c-1.057-0.398-2.381,0.02-3.543,0.238c-0.604,0.115-1.17,0.432-1.755,0.646c-1.013,0.368-1.842,0.439-2.437,0.119
		c-0.604-0.314-0.972-1.023-1.047-2.229c-0.179-2.849-0.274-5.712-0.64-8.54c-0.148-1.158-0.263-2.951-1.358-3.334
		c-0.156-0.051-0.332-0.076-0.53-0.064c-1.562,0.088-0.959,2.151-1.036,3.379c-0.285,4.533,0.019,9.08-1.01,13.59
		c-0.656,2.89,0.463,5.835,0.643,8.771c0.013,0.202-0.003,0.396,0.002,0.596c0.004,0.208,0.005,0.414,0.002,0.619
		c-0.008,0.425-0.031,0.845-0.072,1.258c-0.014,0.138-0.028,0.276-0.045,0.413c-0.061,0.486-0.141,0.965-0.24,1.438
		c-0.01,0.045-0.02,0.09-0.029,0.134c-0.671,3.059-2.085,5.862-3.491,8.692c-0.991,1.994-2.177,3.893-3.163,5.891
		c-0.46,0.931-1.006,1.333-2.027,1.749c-1.927,0.784-2.922,2.756-3.946,4.517c-3.899,6.713-7.284,13.697-10.824,20.602
		c-1.103,2.148-2.239,4.277-4.347,5.676c-1.045,0.693-1.594,1.762-1.494,2.982c0.263,3.223-1.23,5.482-3.781,7.16
		c-1.439,0.949-2.229,2.008-2.225,3.914c0.004,1.989-1.394,3.618-2.47,5.246c-4.445,6.711-7.999,13.893-11.437,21.142
		c-1.193,2.519-2.573,4.896-5.272,6.454c-0.001-0.004-0.003-0.008-0.005-0.013c-0.004,0.002-0.007,0.005-0.011,0.007
		c-0.897-2.988-4.394-3.588-5.481-6.648c-1.233-3.465-1.01-6.424,0.926-9.439c0.66-1.031,0.951-2.199,0.947-3.521
		c-0.016-6.699-1.707-13.148-3.46-19.471c-0.96-3.469-3.698-5.983-7.018-7.303c-0.763-0.302-1.556-0.541-2.365-0.714
		c-2.724-0.583-5.566-1.561-8.529-0.914c-3.437,0.749-6.839,1.769-9.379,4.187c-2.042,1.943-4.325,3.591-6.185,5.809
		c-2.724,3.238-4.022,7.91-2.2,11.656c0.807,1.654,0.314,3.32,0.435,4.975c0.163,2.289-0.124,4.703,2.432,5.669
		c0.289,0.107,0.603,0.202,0.968,0.271c0.17,0.032,0.318,0.083,0.449,0.148c0.925,0.457,0.944,1.689,0.754,2.768
		c-0.249,1.402-0.528,2.799-0.775,4.201c-0.339,1.926-0.069,3.533,1.728,4.174c0.256,0.09,0.54,0.16,0.859,0.21
		c0.226,0.035,0.428,0.091,0.609,0.164c1.272,0.501,1.54,1.845,1.909,2.907c0.309,0.884,0.576,1.615,1.978,2.553
		c-5.386-0.164-6.588,3.295-7.695,7.04c-0.428,1.442-0.433,3.435-2.82,3.694c-0.532,0.057-0.919,0.037-1.183-0.076
		c-0.45-0.184-0.557-0.629-0.418-1.42c0.124-0.699,0.284-1.416,0.579-2.056c0.588-1.269,0.771-2.181-0.27-3.575
		c-0.924-1.238-1.217-3.046-0.557-4.984c1.21-3.545,2.103-7.996,0.645-10.919c-2.391-4.794-1.02-9.792-2.613-14.532
		c-1.606-4.776-1.602-10.014-2.108-15.078c-0.29-2.926-1.271-5.93-0.873-8.745c0.75-5.322-1.197-10.153-1.783-15.216
		c-0.392-3.375,1.665-6.127,2.542-9.183c0.256-0.895,1.481-2.06,0.121-2.812c-0.143-0.078-0.319-0.126-0.446-0.148
		c-0.905-0.154-1.147,1.003-2.147,2.022c0-0.008,0-0.015,0-0.023c0,0.007,0.034,0.014,0.03,0.021c0-2.997,0.038-5.535,0.012-8.073
		c-0.007-0.61,0.539-1.464-0.197-1.829c-0.103-0.049-0.222-0.09-0.378-0.119c-1.264-0.235-1.767,0.629-1.952,1.688
		c-0.311,1.753-0.538,3.523-0.843,5.278c-0.074,0.417-0.313,0.804-0.641,1.6c-0.002-0.008-0.002-0.015-0.004-0.022
		c-0.003,0.007-0.006,0.012-0.009,0.02c-0.781-2.914-0.165-5.383,0.039-7.87c0.074-0.927,0.779-2.41-0.63-2.774
		c-1.662-0.416-1.873,1.241-2.329,2.348c-0.163,0.396-0.083,0.859-0.169,1.352c-0.004-0.003,0.07-0.008,0.07-0.011
		c0,0.003,0,0.005,0,0.008c-1-0.313-0.327-1.431-1.067-1.536c-0.106-0.013-0.276-0.006-0.435,0.027
		c-0.953,0.199-1.345,0.971-1.508,1.723c-0.656,2.963-1.121,5.977-0.983,9.011c0.11,2.452-0.265,4.813-0.848,7.146
		c-0.35,1.398-0.991,2.356-2.257,2.389c-0.419,0.014-0.908-0.074-1.478-0.283c-0.26-0.096-0.509-0.162-0.747-0.203
		c-1.658-0.271-2.771,0.758-2.985,2.652c-0.105,0.931-0.115,1.881,0.689,1.982c0.271,0.03,0.63-0.033,1.107-0.223
		c0.438-0.173,0.93-0.287,1.361-0.218c0.262,0.04,0.503,0.146,0.696,0.349c2.243,2.335,5.119,3.856,7.515,5.959
		c1.395,1.222,1.733,3.152,1.364,4.979c-2.046,10.097-2.111,20.393-3.078,30.597c-0.138,1.433-0.32,1.976-1.204,1.796
		c-0.296-0.057-0.671-0.195-1.152-0.411c-2.247-1.009-4.538-1.862-6.92-2.206c-1.854-0.266-3.763-0.222-5.748,0.3
		c-0.988,0.259-1.683,0.342-2.129,0.206c-0.755-0.219-0.817-1.048-0.409-2.689c2.02-8.117,2.984-16.305,2.072-24.666
		c-0.489-4.488-1.681-8.725-4.228-12.52c-1.277-1.906-0.537-2.959,1.424-3.854c5.103-2.325,8.97-10.221,8.402-16.799
		c-0.671-7.755-4.962-13.904-11.244-15.349c-0.381-0.088-0.762-0.166-1.143-0.238c-0.027-0.005-0.054-0.012-0.08-0.017
		c-6.175-1.155-12.293-0.282-17.525,3.33c-3.907,2.696-6.562,6.8-6.267,11.993c0.088,1.578-0.689,2.271-1.844,2.891
		c-1.438,0.771-2.699,1.752-3.555,3.173c-1.052,1.752-1.08,3.224,1.18,4.003c0.553,0.191,1.277,0.125,1.063,1.127
		c-0.394,1.828-0.055,3.71-0.19,5.529c-0.373,4.972-0.353,5.206,4.235,6.584c-2.487,2.215-5.674,2.945-8.506,4.379
		c-5.362,2.715-11.238,2.371-16.87,3.445c-0.189,0.036-0.373,0.043-0.552,0.026c-0.527-0.046-0.999-0.315-1.386-0.747
		c-0.616-0.688-1.352-1.064-2.152-1.207c-0.479-0.084-0.983-0.084-1.499-0.016c-0.542,0.072-1.023,0.057-1.451-0.034
		c-1.286-0.268-2.095-1.222-2.628-2.619c-0.571-1.497-1.054-3.033-1.687-4.505c-1.603-3.729-1.385-6.996,1.771-9.971
		c2.197-2.072,3.065-5.037,3.812-7.867c0.71-2.694-1.242-4.857-4.3-5.355c-0.707-0.113-1.699-0.139-2.506-0.061
		c-0.963,0.091-2.133,0.347-3.133,0.535c0-0.002,0-0.003,0-0.005c0,0.001,0.218,0.002,0.213,0.003
		c0.009-1.062,1.146-1.232,1.699-1.764c2.799-2.678,2.823-5.135,0.057-7.849c-0.796-0.781-0.587-2.271-2.284-2.53
		c-4.179-0.628-8.383-1.245-12.354,0.414c-1.706,0.712-4.266,0.256-5.054,2.463c-1.071,2.996-0.913,6.153-0.235,9.244
		c0.663,3.035,2.52,5.725,2.592,8.957c0.019,0.833,0.227,1.592-0.601,2.137c-1.587,1.045-1.445,2.436-0.904,4.008
		c2.086,6.063,3.579,12.338,6.308,18.173c1.281,2.743,0.207,5.606,0.707,8.429c1.229,6.924,4.635,12.695,8.912,18.003
		c1.203,1.493,2.837,2.007,4.57,2.243c1.379,0.188,2.82,0.201,4.158,0.393c3.348,0.475,6.737,0.922,10.143,0.496
		c0.294-0.037,0.527-0.034,0.709,0.006c0.553,0.117,0.635,0.578,0.478,1.361c-0.561,2.796-1.216,5.582-1.13,8.472
		c0.016,0.614-0.137,1.021-0.47,1.013c-0.197,0-0.459-0.146-0.789-0.483c-0.108-0.11-0.255-0.182-0.394-0.211
		c-0.234-0.045-0.443,0.03-0.412,0.245c0.368,2.47-1.834,1.518-2.805,2.158c-1.548,1.016-1.05,2.602-0.669,3.688
		c0.729,2.096,1.073,3.948,0.341,6.174c-0.913,2.777-1.313,5.725-1.914,8.602c-0.071,0.34-0.178,0.844-0.005,1.037
		c2.767,3.138,0.068,5.461-1.264,7.86c-1.707,3.079-1.835,3.055,1.271,4.866c0.57,0.334,0.775,0.646,0.443,1.248
		c-0.128,0.229-0.142,0.518-0.25,0.759c-0.929,2.108-1.994,4.21-2.93,6.317c-0.004-0.002-0.139-0.004-0.139-0.006
		c0,0.002,0,0.002,0,0.003c-3-1.349-6.277-2.144-9.256-4.554c1.987-0.272,2.737-1.157,2.859-2.939
		c0.231-3.363,1.916-6.244,3.686-9.076c5.904-9.438,4.691-21.324-2.479-29.908c-3.554-4.254-7.763-5.933-12.418-6.354
		c-2.113-0.191-4.313-0.123-6.587,0.082c-3.594,0.324-6.933,1.584-10.41,2.312c-1.819,0.38-3.133,1.811-5.037,2.214
		c-1.189,0.251-0.73,2.102-0.463,3.142c0.648,2.515,0.653,4.836-0.553,7.235c-0.618,1.23-1.007,2.771-0.508,4.179
		c0.809,2.284-0.24,3.765-1.862,5.099c-3.132,2.576-3.146,2.592-1.124,5.868c0.323,0.524,0.412,1.003,0.167,1.495
		c-1.122,2.283-1.343,4.479,0.468,6.549c0.101,0.116,0.071,0.341,0.108,0.516c0.924,4.268,1.357,5.717,3.569,6.129
		c1.007,0.186,2.381,0.158,4.334,0.084c0.492-0.019,0.96,0.02,1.399,0.105c3.077,0.603,4.752,3.629,3.466,6.842
		c-0.499,1.248-3.202,2.172-4.877,1.864c-0.39-0.069-0.726-0.206-0.965-0.419c-5.047-4.514-10.314-8.738-15.869-12.613
		c-1.1-0.77-2.146-1.597-3.721-1.932c2.169-2.35,5.32-3.76,6.122-7.014c0.21-0.851,2.453-2.458-0.143-2.801
		c-0.172-0.022-0.364,0.047-0.581,0.047c-0.002,0-0.003,0-0.005,0c-0.004,0-0.006,0-0.01,0c-0.522,0-0.388-0.825-0.358-1.231
		c0.105-1.456-0.307-2.019-0.929-2.12c-0.626-0.096-1.461,0.193-2.194,0.385c-0.861,0.224-1.609,0.813-1.953,1.695
		c-1.017,2.611-3.313,3.098-5.656,3.256c-2.768,0.184-4.885,1.175-7.152,2.957c-3.611,2.837-7.77,5.072-11.938,7.047
		c-0.408,0.193-0.857,0.259-1.333,0.261c-0.944,0.007-1.993-0.237-3.036-0.222c-0.519,0.008-1.034,0.08-1.535,0.281
		c-0.821,0.332-1.813,0.34-2.245,1.197c-1.064,2.121-2.793,3.732-4.389,5.344c-4.516,4.559-4.872,9.732-3.343,15.583
		c1.237,4.728,3.129,9.085,5.832,13.117c0.625,0.932,1.324,1.841,0.719,3.078c-0.006-0.001,0.199-0.003,0.199-0.003
		c0,0.001,0,0.002,0,0.002c-2-0.068-2.23-1.394-3.47-1.452c-0.177-0.007-0.47,0.011-0.667,0.063
		c-0.977,0.257-2.072,0.519-2.306,1.606c-0.305,1.432,1.08,1.04,1.757,1.424c2.389,1.358,4.782,2.68,7.139,4.084
		c0.824,0.492,0.853,1.364,0.392,2.129c-1.354,2.252-0.124,4.555,1.047,5.794c1.491,1.579,0.062,2.21-0.236,3.049
		c-0.231,0.647-0.546,1.442-1.297,1.677h362.218C1283.421,298.99,1283.438,278.98,1283.505,258.973z M931.005,274.252
		c-0.575,1.78-1.036,3.244-1.631,4.648c-0.208,0.486-0.643,1.393-1.212,1.476c-0.19,0.028-0.396-0.036-0.613-0.237
		c-0.779-0.724-2.461-1.877-1.163-3.306c1.37-1.507,3.104-2.687,5.241-4.478C931.4,273.029,931.196,273.658,931.005,274.252z
		 M949.236,263.048c-0.682-0.007-1.49-0.361-2.449-1.06c-0.646-0.47-1.338-0.719-2.053-0.766c-1.19-0.076-2.89,0.412-3.89,1.384
		c0-0.001,0-0.001,0-0.003c0,0.002,0.01,0.002,0.01,0.003c0.906-2.229,2.202-2.753,3.865-2.704l0.008,0.098c0.001,0,0.001,0,0.002,0
		c0.075,0,0.15-0.09,0.226-0.088c2.22,0.068,4.439,0.165,6.75,0.285C951.159,262.15,950.373,263.059,949.236,263.048z"/>
	<polygon fill="#FFFFFF" points="706.234,270.287 706.23,270.291 706.235,270.294 	"/>
	<path fill="#FFFFFF" d="M939.169,228.973c0.848-0.635,2.635-0.976,1.757-2.409c-0.252-0.413-0.582-0.526-0.945-0.485
		c-0.612,0.075-1.316,0.59-1.898,0.875c-0.572,0.279-1.142,0.752-1.956,0.804c0.874-0.923,1.742-1.862,2.626-2.681
		c0.622-0.576,1.756-1.136,0.938-2.202c-0.311-0.406-0.632-0.612-0.955-0.616c-0.538,0.004-1.079,0.396-1.583,0.76
		c-1.559,1.132-3.115,2.253-5.004,3.08c0.003-0.004,0.007-0.015,0.01-0.019c-0.008,0.004-0.016,0.005-0.023,0.009
		c1.004-1.172,1.997-2.355,3.014-3.52c0.49-0.563,1.014-1.155,0.35-1.849c-0.239-0.248-0.493-0.349-0.744-0.351
		c-0.42,0-0.831,0.266-1.16,0.549c-1.348,1.17-2.647,2.398-3.915,3.654c-0.901,0.892-1.892,1.613-3.001,2.215
		c-0.469,0.253-0.907,0.416-1.318,0.49c-1.222,0.229-2.19-0.337-2.92-1.729c-0.661-1.258-1.483-2.226-3.08-2.103
		c-0.819,0.065-1.731,0.121-2.012,1.003c-0.32,0.998,0.724,1.01,1.276,1.363c0.614,0.395,1.223,0.937,1.287,1.644
		c0.292,3.286,1.521,6.51-0.442,9.844c-2.991,5.086-6.417,9.817-10.251,14.28c-0.87,1.014-1.946,1.982-2.444,3.171
		c-3.207,7.671-10.609,11.547-15.5,17.716c-2.074,2.613-6.428,2.726-8.428,6.096v-0.016c0,0.006-0.086,0.01-0.09,0.016
		c0.182-4.881-0.623-8.872-1.055-12.903c-0.361-3.351-1.501-6.354-3.136-9.292c-2.435-4.371-6.116-5.643-10.42-5.506
		c-0.114,0.004-0.236,0.014-0.352,0.02c-0.19,0.009-0.382,0.016-0.575,0.03c-0.313,0.024-0.631,0.054-0.949,0.09
		c-4.8,0.545-8.556,2.832-10.333,7.39c-1.223,3.135-1.771,6.529-2.635,9.801c-0.965,3.656-1.309,4.98-2.741,4.9
		c-0.859-0.042-2.111-0.595-4.134-1.457c-3.466-1.477-5.552-4.396-8.024-6.912c-1.757-1.783-3.352-3.721-5.485-5.086
		c-0.968-0.619-1.396-1.57-1.76-2.593c-1.483-4.165-3.711-7.935-6.475-11.34c-3.14-3.873-5.125-8.349-7.156-12.809
		c-1.055-2.319,0.842-8.563,3.037-9.7c1.803-0.932,0.714-1.559-0.093-1.979c-0.493-0.255-0.969-0.372-1.426-0.354
		c-0.757,0.034-1.461,0.439-2.098,1.21c-1.09,1.316-2.083,1.995-3.019,2.04c-1.207,0.065-2.317-0.921-3.409-2.952
		c-0.844-1.568-1.756-3.104-2.654-4.639c-0.279-0.479-0.646-0.879-1.087-0.973c-0.262-0.051-0.551,0.006-0.862,0.221
		c-0.731,0.504-0.309,1.273-0.009,1.937c0.608,1.346,1.197,2.698,1.33,4.302c-0.005-0.008-0.011-0.014-0.016-0.021
		c0,0.008,0.002,0.014,0.003,0.021c-1.089-1.463-2.175-2.931-3.268-4.395c-0.43-0.576-0.933-1.077-1.553-0.996
		c-0.208,0.029-0.428,0.123-0.662,0.301c-0.931,0.709-0.206,1.463,0.223,2.098c1.131,1.665,2.313,3.3,3.876,5.515
		c-0.007-0.003-0.013-0.005-0.02-0.009c0.002,0.004,0.004,0.006,0.006,0.009c-2.115-0.825-3.342-1.787-4.556-2.76
		c-0.592-0.475-1.269-1.028-1.91-0.87c-0.215,0.057-0.425,0.192-0.627,0.438c-0.894,1.093,0.236,1.716,1.054,2.263
		c1.116,0.74,2.264,1.434,3.355,2.211c0.478,0.339,1.148,0.736,0.699,1.502c-0.185,0.313-0.422,0.385-0.675,0.359
		c-0.253-0.021-0.523-0.143-0.773-0.215c-0.857-0.246-1.706-0.51-2.555-0.777c-0.387-0.121-0.821-0.27-1.197-0.263
		c-0.375,0.011-0.689,0.181-0.832,0.698c-0.247,0.896,0.667,1.363,1.437,1.654c0.749,0.284,1.523,0.498,2.288,0.742
		c5.539,1.756,9.456,5.244,11.204,10.855c3.356,10.788,9.321,20.166,15.681,29.334c1.059,1.527,1.475,2.138-0.834,2.99
		c-9.275,3.42-10.852,11.463-6.118,20.715c1.031,2.016,1.525,3.918,1.285,6.102c-0.104,0.953,0.074,1.895-1.393,2.07
		c-1.144,0.137-1.302,1.396-1.522,2.312c-0.687,2.832-3.196,3.374-5.33,3.745c-0.447,0.078-0.891,0.061-1.326-0.043
		c-1.312-0.307-2.555-1.397-3.603-3.041c0.006,0.001,0.01,0.002,0.016,0.002c0,0-0.001,0-0.001-0.001
		c0.437,0.087,0.831,0.132,1.191,0.138c2.544,0.041,3.31-1.828,4.105-4.006c2.404-6.568,2.781-12.988-0.334-19.439
		c-1.476-3.057-4.571-4.898-7.987-5.53c-4.994-0.919-10.665,0.746-12.946,4.978c-0.164,0.302-0.428,0.552-0.854,0.777
		c0.001-0.004,0.002-0.009,0.004-0.014c-0.007,0.004-0.013,0.008-0.02,0.012c1.027-3.52,1.772-7.041,2.122-10.709
		c0.594-6.2-0.167-12.312-0.409-18.457c-0.066-1.689,0.061-2.977,1.195-4.395c2.17-2.703,2.979-6.284,5.364-8.91
		c0.412-0.456,0.551-1.292,0.018-1.73c-0.17-0.139-0.32-0.193-0.458-0.195c-0.421,0.008-0.713,0.537-0.999,0.854
		c-0.702,0.779-1.343,1.611-2.264,2.73c-0.002-0.004-0.002-0.009-0.004-0.014c-0.004,0.005-0.007,0.009-0.011,0.014
		c-0.912-2.477-0.245-4.553-0.115-6.6c0.097-1.502,0.152-1.492-1.507-2.15c-0.193-0.078-0.41-0.279-0.474-0.467
		c-0.212-0.631-0.211-1.631-0.898-1.711c-0.098-0.009-0.208-0.002-0.335,0.029c-1.023,0.246-0.66,1.484-0.789,2.336
		c-0.209,1.387-0.461,2.768-1.015,4.12c-0.001-0.013-0.001-0.026-0.002-0.04c-0.005,0.014-0.008,0.027-0.014,0.04
		c-0.067-1.327-0.061-2.663-0.234-3.974c-0.071-0.564-0.209-1.36-0.872-1.464c-0.093-0.013-0.195-0.014-0.31,0.003
		c-0.693,0.1-0.782,0.87-0.779,1.526c0.007,1.966,0.043,3.935-0.006,5.899c-0.023,0.881-0.151,1.771-0.351,2.631
		c-0.292,1.257-0.735,2-1.412,1.898c-0.404-0.053-0.893-0.41-1.483-1.146c-0.324-0.402-0.794-0.732-1.264-0.967
		c-0.396-0.197-0.853-0.4-1.277-0.439c-0.422-0.034-0.813,0.094-1.086,0.553c-0.514,0.857,0.637,1.072,1.102,1.531
		c3.686,3.63,4.653,7.918,3.604,12.956c-1,4.794-1.535,9.669-3.442,14.255c-1.37,3.289-0.706,6.89-1.29,10.318
		c-0.654,3.834-1.816,7.391-4.405,10.809c-0.003-0.006-0.003-0.011-0.006-0.017c-0.004,0.005-0.007,0.011-0.011,0.016
		c-1.017-2.391-0.084-4.212,0.67-5.999c0.896-2.133,0.942-4.344,0.433-6.476c-1.142-4.759-3.062-9.131-7.398-11.942
		c-0.701-0.452-1.36-0.902-1.522-1.76c-1.738-9.175-6.546-17.098-10.39-25.41c-1.048-2.273-1.89-4.557-2.322-7.07
		c-0.361-2.115-0.974-4.534-3.515-5.221c-0.13-0.035-0.273-0.059-0.43-0.073c-2.362-0.206-7.435,1.836-8.255,3.202
		c-0.446,0.748-0.049,1.488,0.313,1.988c1.635,2.244,2.974,4.638,4.146,7.139c0.146,0.311,0.41,0.661,0.708,0.788
		c4.575,1.929,4.861,6.405,6.007,10.284c1.625,5.513,1.613,11.277,2.217,16.945c0.123,1.152-0.503,2.239-1.42,2.695
		c-0.288,0.145-0.496,0.189-0.649,0.169c-0.666-0.067-0.333-1.362-0.853-1.702c-0.588-0.387-1.124-0.859-1.707-1.309
		c0.269-0.765,0.743-0.898,1.275-0.909c0.26-0.006,0.533,0.018,0.803,0.014c0.273-0.006,0.542-0.042,0.788-0.171
		c-1.458-1.836-1.846-4.85-5.007-4.74c-0.452,0.018-0.961,0.098-1.538,0.255c0.002-0.002,0.004-0.003,0.007-0.005
		c-0.008,0.002-0.015,0.003-0.022,0.005c1.676-1.444,4.217-0.81,4.259-2.248c0.052-1.735-2.558-0.929-3.594-1.894
		c-1.813-1.688-4.219-3.121-4.268-5.957c-0.03-1.766-0.707-2.37-1.636-2.446c-0.561-0.042-1.211,0.106-1.867,0.308
		c-1.185,0.366-2.556,0.8-3.057,2.266c-0.34,0.986-0.901,1.381-1.591,1.38c-0.415,0.003-0.877-0.138-1.364-0.383
		c-1.293-0.647-2.53-1.099-3.787-1.149c-1.256-0.047-2.533,0.305-3.908,1.259c-0.149,0.104-0.293,0.152-0.432,0.161
		c-0.941,0.078-1.676-1.805-2.496-2.612c-0.329-0.323-0.236-1.077-0.352-1.754c-0.728,0.349-1.139,1.654-1.825,1.688
		c-0.311,0.023-0.678-0.214-1.157-0.922c-0.021-0.031-0.047-0.048-0.075-0.056c-0.213-0.032-0.575,0.46-0.564,0.888
		c0.038,1.456-0.071,2.549-1.669,2.441c-0.227-0.014-0.483-0.053-0.773-0.117c-1.202-0.264-2.42,0.994-2.937,2.002
		c-1.013,1.967,1.254,1.248,1.907,1.875c-0.002,0.65-0.423,1.143-0.884,1.262c-3.424,0.876-5.91,2.896-8.085,5.662
		c-0.663,0.846-1.396,1.283-1.345,2.523c0.049,1.198-0.655,2.189-1.627,2.936c-0.672,0.518-1.463,0.937-1.651,1.863
		c0.01,0.004,0.019,0.011,0.029,0.015c1.43-1.696,2.532,0.098,3.587,0.591c0.289,0.135,0.46,0.316,0.551,0.524
		c0.276,0.612-0.167,1.466-0.434,2.084c-0.542,1.251-1.302,2.413-1.978,3.604c0.003,0.008,0.007,0.017,0.01,0.025l-0.005,0.004
		c-0.003,0.036-0.024,0.072-0.043,0.109c-0.008-0.02-0.015-0.037-0.025-0.056c0,0,0.004-0.003,0.005-0.003
		c0.017-0.029,0.035-0.059,0.051-0.087c-0.422-1.092-0.817-2.188-1.122-3.309c-0.309-1.126-0.525-2.275-0.587-3.463l-0.066,0.073
		c0.002-0.016,0.008-0.029,0.011-0.045c-0.015,0.016-0.031,0.033-0.031,0.033c0.011-0.014,0.021-0.023,0.032-0.036
		c0.004-0.022,0.011-0.042,0.016-0.065c-0.006-0.002-0.01-0.004-0.015-0.006c0,0,0,0,0,0.001c-2.254-0.86-3.461-3.114-5.566-4.216
		c-0.67-0.352-0.004-1.129,0.209-1.682c1.212-3.176,2.835-6.146,4.565-9.062c1.623-2.735,3.79-4.687,7.062-5.212
		c1.314-0.214,2.633-0.508,3.89-0.944c1.929-0.665,3.669-1.743,3.855-3.996c0.164-1.981-0.846-3.659-2.466-4.702
		c-2.063-1.327-4.314-2.365-6.457-3.572c-0.209-0.117-0.41-0.197-0.605-0.241c-0.585-0.129-1.107,0.066-1.569,0.53
		c-0.627,0.627-1.31,1.273-1.707,2.045c-3.407,6.618-8.98,11.478-13.634,17.096c-3.571,4.313-7.565,8.938-8.482,14.357
		c-0.864,5.11-2.102,10.401-1.563,15.763c0.193,1.934,0.03,3.903-0.134,5.854c-0.003-0.025-0.006-0.05-0.009-0.074
		c-0.002,0.023-0.004,0.047-0.006,0.071c-1.085-8.355-1.381-16.725-0.676-25.134c0.325-3.844,0.739-7.64,2.495-11.144
		c0.8-1.592,1.488-3.298,2.571-4.681c6.498-8.307,11.597-17.599,18.247-25.802c2.04-2.521,1.48-5.748,0.703-8.495
		c-0.834-2.943-0.599-5.518,0.453-8.245c4.043-10.495,5.962-21.716,10.218-32.065c4.7-11.428,5.541-23.508,7.917-35.334
		c2.611-12.987,1.801-26.153,1.604-39.27c-0.063-4.15,0.254-7.993,3.317-11.188c1.051-1.096,1.417-2.661,1.743-4.155
		c1.061-4.884,2.297-9.678,5.332-13.83c1.297-1.774,1.622-3.588-1.041-4.746c-1.401-0.607-1.188-1.657-0.063-2.445
		c1.333-0.937,1.989-2.163,1.397-3.682c-0.307-0.787-0.829-1.032-1.424-1.072c-0.593-0.037-1.256,0.126-1.848,0.158
		c-1.271,0.068-2.24,0.102-2.941,0.041c-2.111-0.178-1.802-1.194,0.082-4.65c2.455-4.512,3.213-9.629,5.444-14.2
		c0.112-0.233,0.182-0.513,0.188-0.774c0.039-1.395,0.484-3.023-1.308-3.679c-0.209-0.077-0.404-0.122-0.589-0.14
		c-1.293-0.122-1.987,1.082-2.495,2.037c-1.507,2.82-2.86,5.73-4.136,8.664c-1.205,2.778-2.196,5.646-3.371,8.438
		c-0.258,0.612-0.102,1.603-1.386,1.331c-0.002,0-0.004-0.225-0.006-0.225h-0.006c-0.895,0-1.302-0.666-1.49-1.494
		c-1.031-4.518-1.843-8.959-2.168-13.588c-0.092-1.33-0.063-2.619-0.566-3.9c-0.422-1.078-0.926-2.061-2.096-2.127
		c-0.165-0.008-0.343,0.016-0.536,0.048c-1.549,0.253-1.98,1.561-1.847,2.842c0.379,3.662,0.088,7.323,0.146,10.979
		c0.071,4.697,0.906,9.424-0.445,14.076c-0.049,0.17-0.08,0.364-0.051,0.532c1.298,7.061-0.837,13.933-1.166,20.899
		c-0.037,0.801-0.012,1.674-0.32,2.377c-2.366,5.428-2.026,11.09-1.824,16.814c0.331,9.297-1.972,18.228-4.44,27.094
		c-1.301,4.676-2.177,9.41-1.924,14.264c0.379,7.232-2.679,13.766-4.019,20.645c-0.177,0.896-0.958,1.697-1.524,2.496
		c-4.618,6.532-8.222,13.594-10.568,21.232c-0.959,3.115-3.833,4.971-4.668,8.137c-0.987,3.737-3.814,5.813-7.08,7.672
		c-2.485,1.42-4.424,3.77-6.79,5.443c-2.023,1.432-3.753,3.008-4.911,5.4c-0.003-0.003-0.006-0.006-0.009-0.008l-0.003,0.006
		c-0.528-0.498-1.084-0.963-1.646-1.113c-0.718-0.188-1.443,0.143-2.134,1.579c0.002-0.013,0.001-0.022,0.003-0.034
		c-0.006,0.012-0.011,0.02-0.017,0.031c0.437-2.906-2.389-3.685-3.081-6c-1.181-3.965-0.46-7.529,0.562-11.162
		c1.281-4.539,2.886-8.981,3.444-13.719c0.271-2.272,1.93-4.104,3.248-5.733c1.771-2.194,1.651-4.512,1.937-6.901
		c0.923-7.682-2.639-13.785-6.907-19.641c-0.313-0.432-0.607-0.879-0.894-1.327c-0.03-0.046,0.037-0.158,0.066-0.278
		c0.127-0.013,0.242-0.002,0.349,0.023c0.627,0.139,0.956,0.84,1.563,1.101c0.099,0.04,0.203,0.071,0.318,0.085
		c-0.313-1.672-1.74-2.34-3.053-3.434c1.487-0.198,1.531-0.496,1.065-1.896c-0.358-1.076-0.789-1.565-1.273-1.735
		c-0.807-0.273-1.763,0.332-2.78,0.58c-1.619,0.395-3.31,0.494-5.073,0.738c0.001-0.003,0.003-0.004,0.004-0.007
		c-0.006,0.001-0.012,0.001-0.018,0.002c0.646-1.533,2.171-0.817,3.031-1.526c-2.538-2.339-3.971-3.398-5.121-3.646
		c-0.863-0.182-1.411,0.094-3.229,0.627c-0.086-0.622-0.073-1.229-0.162-1.836c-1.131,2.898-3.995,3.813-5.863,5.779
		c-0.239,0.25-0.536,0.491-0.833,0.397c-0.102-0.028-0.186-0.094-0.276-0.212c-0.428-0.558-0.983-0.859-1.566-0.998
		c-1.288-0.3-2.673,0.195-2.96,0.498c-0.996,1.047-1.889,1.182-2.738,0.971c-0.991-0.24-1.917-0.955-2.867-1.242
		c-0.403-0.119-0.81-0.16-1.228-0.055c0.167,2.844-1.158,4.306-4.609,5.064c-0.791,0.175-2.426-0.227-1.174,1.6
		c0.156,0.227-0.499,1.045-0.823,1.56c-1.146,1.813-2.305,3.63-2.711,5.776c-0.222,1.172-1.083,2.336,0.394,3.527
		c0.607,0.492,0.19,1.842-0.171,2.802c-1.566,4.175-1.926,8.149-0.35,12.673c1.84,5.281,0.911,10.748-2.942,16.122
		c1.043-0.765,1.646-0.913,2.023-0.745c0.774,0.326,0.619,1.951,1.345,2.341c0.069,0.036,0.146,0.062,0.232,0.073
		c0.004,0.001,0.008,0.004,0.012,0.004c-0.273,1.258,0.675,2.254,0.539,3.621c-0.337,3.373,1.33,5.837,4.547,7.075
		c1.621,0.624,2.194,1.266,0.395,2.407c-0.445,0.281-1.08,0.627-1.174,1.045c-0.739,3.272-2.543,4.275-5.896,3.682
		c-0.557-0.098-1.008-0.126-1.401-0.261c-0.397-0.134-0.735-0.372-1.06-0.899c-1.524-2.469-3.756-4.3-5.997-6.078
		c-4.626-3.677-8.161-8.159-11.728-12.914c-3.804-5.068-5.167-10.705-7.412-16.184c-0.75-1.822-1.571-3.609-2.775-5.176
		c-4.997-6.501-7.162-14.066-8.347-22.012c-1.057-7.091-2.97-13.992-5.577-20.62c-4.653-11.829-6.815-24.145-8.368-36.659
		c-0.611-4.908-1.811-9.75-2.887-14.589c-0.458-2.06-0.304-4.091-0.211-6.121c0.167-3.672,0.138-7.329-0.491-10.944
		c-0.417-2.395-0.251-4.755-0.183-7.154c0.155-5.443,0.021-11.07,0.083-16.517c0.015-1.492-0.507-2.255-1.053-4.255h-2.683
		c-0.347,1-0.592,0.787-0.776,1.131c-0.434,0.813-0.482,1.844-0.429,2.797c0.267,4.764-0.757,9.435-1.431,14.101
		c-0.076,0.522-0.267,1.054-0.424,1.563c-0.386,1.25-0.485,2.872-2.256,2.888c-0.61,0.005-1.018-0.22-1.31-0.562
		c-0.487-0.564-0.653-1.441-0.885-2.103c-1.775-5.066-4.539-9.665-6.717-14.538c-0.325-0.729-0.689-1.444-1.143-2.098
		c-0.456-0.654-1.002-1.244-1.689-1.719c-0.87-0.6-1.807-0.833-2.746-0.191c-0.961,0.655-1.104,1.619-0.65,2.608
		c2.655,5.815,4.03,12.187,7.616,17.6c0.38,0.575,1.011,1.137,1.321,1.747c0.01,0.018,0.253,0.035,0.253,0.054
		c0,0.001,0,0.001,0,0.002c0,0.004-0.216,0.007-0.214,0.011c0.575,1.165,1.606,2.55,0.747,3.635
		c-0.701,0.885-2.207-0.203-3.298-0.443c-1.273-0.281-2.606-0.72-3.468,0.497c-0.824,1.168-0.616,2.468,0.137,3.511
		c0.089,0.123,0.182,0.239,0.284,0.354c0.023,0.025,0.039,0.054,0.062,0.079c0.17,0.183,0.302,0.357,0.429,0.53
		c0.028,0.038,0.068,0.078,0.094,0.116c1.03,1.487,0.479,2.617-1.22,3.576c-1.477,0.838-1.688,2.252-1.074,3.246
		c0.015,0.023,0.038,0.044,0.054,0.068c0.076,0.112,0.156,0.223,0.253,0.321c0.245,0.248,0.472,0.503,0.685,0.765
		c3.175,3.898,2.902,9.164,5.261,13.364c1.086,1.931,1.982,3.901,3.41,5.684c1.963,2.454,1.711,5.722,2.158,8.685
		c1.459,9.716,0.927,19.619,2.677,29.311c1.281,7.113,2.951,14.133,5.149,21.021c1.681,5.27,3.238,10.563,4.073,16.047
		c0.256,1.684,0.938,3.191,1.981,4.609c2.157,2.934,2.782,6.539,3.799,9.919c1.814,6.042,3.255,12.195,4.843,18.269
		c-6.158,0.469-11.736,2-15.937,6.764c-1.795,2.033-2.282,4.615-2.738,7.147c-0.267,1.478-0.881,2.312-2.36,2.374
		c-1.786,0.078-3.162,1.47-5.008,1.66c0-0.006,0.002-0.01,0.002-0.015c-0.004,0.001-0.007,0.001-0.011,0.002
		c0.094-1.576,1.462-1.602,2.189-2.286c0.448-0.42,1.073-0.805,0.701-1.551c-0.037-0.074-0.08-0.139-0.126-0.193
		c-0.016-0.018-0.034-0.029-0.05-0.045c-0.031-0.031-0.061-0.063-0.095-0.086c-0.33-0.229-0.784-0.17-1.143-0.057
		c-0.715,0.223-1.111,0.139-1.351-0.144c-0.242-0.276-0.327-0.751-0.416-1.324c-0.354-2.299-1.01-4.313-2.241-5.797
		c-1.235-1.481-3.048-2.433-5.715-2.607c-1.175-0.075-2.295-0.917-3.451-1.39c-2.353-0.966-4.391-0.678-6.821,0.473
		c-5.917,2.805-8.914,6.656-9.05,13.639c-0.077,3.925-0.893,7.568,1.068,11.281c1.185,2.242-1.442,1.534-2.238,2.227
		c-0.58,0.502-1.194,0.529-1.567-0.023c-0.128-0.186-0.229-0.436-0.291-0.76c-0.407-2.141-0.371-4.236,0.208-6.357
		c0.179-0.656,0.511-1.531,0.177-2.136c-0.113-0.196-0.295-0.364-0.58-0.485c-1.251-0.535-1.919,0.665-2.452,1.555
		c-0.782,1.303-1.402,2.668-0.911,4.297c0.29,0.963,0.212,1.951-0.585,2.783c-0.71-0.342-1.19-0.854-1.562-1.443
		c-0.375-0.592-0.641-1.259-0.921-1.906c-1.446-3.349-2.831-6.729-4.259-10.084c-0.227-0.53-0.458-1.137-0.815-1.538
		c-0.362-0.401-0.852-0.593-1.596-0.288c-1.666,0.683-0.827,2.07-0.443,3.213c0.784,2.34,1.601,4.671,2.193,7.094
		c-0.198-0.172-0.38-0.354-0.549-0.542c-1.187-1.317-1.742-2.999-2.656-4.457c-0.665-1.056-1.196-2.196-1.898-3.224
		c-0.192-0.281-0.38-0.626-0.604-0.916c-0.376-0.481-0.854-0.803-1.624-0.398c-1.273,0.666-1.262,1.898-0.651,3.031
		c1.265,2.355,2.604,4.667,3.93,6.99c0.512,0.894,1.412,1.605,1.296,3.045c-2.136-0.555-3.325-2.346-5.014-3.313
		c-1.924-1.103-3.033-4.019-6.112-2.724c-0.213,0.089-0.378-0.011-0.517-0.196c-0.231-0.297-0.391-0.833-0.572-1.147
		c-0.382-0.665-0.796-1.284-1.238-1.857c-3.101-4.013-7.597-5.784-12.489-5.164c-7.938,1.009-16.135,6.982-11.708,17.745
		c0.497,1.21,0.803,2.611,0.763,3.912c-0.146,4.784,1.136,9.115,3.734,13.086c0.405,0.617,0.515,1.023-0.208,1.502
		c-2.521,1.662-4.161,4.134-5.877,6.528c-0.354,0.493-0.657,1.196-1.368,1.144c-0.235-0.018-0.386-0.09-0.487-0.195
		c-0.305-0.299-0.158-0.892-0.271-1.299c-2.518-9.016-3.01-18.207-2.728-27.525c0.129-4.338-0.448-8.618-2.991-12.545
		c-3.681-5.688-3.533-5.912,2.729-8.432c4.922-1.979,8.631-5.473,12.666-8.742c3.876-3.14,3.621-6.604,3.186-10.609
		c-0.612-5.631-2.058-11.006-4.376-16.182c-2.006-4.477-3.338-9.154-4.367-13.98c-0.476-2.232-1.115-3.811-2.033-4.838
		c-1.538-1.711-3.858-1.885-7.506-1.008c-0.78,0.186-1.257,0.523-2.006-0.375c-2.636-3.158-8.43-3.188-11.22,0.019
		c-0.65,0.75-1.683,1.06-2.065,2.212c-0.699,2.107-0.423,4.157,0.833,5.682c0.757,0.915,1.867,1.64,3.332,2.074
		c2.233,0.663,3.646,1.752,4.598,3.324c0.575,0.945,0.982,2.065,1.299,3.374c1.533,6.331,1.354,12.757,1.793,19.153
		c0.06,0.877-0.423,1.277-1.076,1.651c-0.874,0.501-1.814,0.755-2.806,0.798c-0.837,0.037-1.859,1.126-2.517,0.492
		c-0.095-0.089-0.182-0.211-0.26-0.377c-0.642-1.355-2.565-2.67-0.861-4.596c0.504-0.57,0.384-1.247-0.015-1.69
		c-0.135-0.147-0.301-0.268-0.485-0.349c-1.641-0.722-2.869-1.848-3.977-3.094c-0.626-0.705-1.217-1.447-1.819-2.18
		c-0.458-0.556-0.922-1.107-1.42-1.627c-5.696-5.949-16.684-6.052-22.775-0.52c-1.023,0.929-1.619,2.117-2.238,3.304
		c-0.493,0.942-0.951,0.901-1.322,0.441c-0.126-0.153-0.242-0.354-0.346-0.583c-0.57-1.248-1.119-2.201-1.719-2.886
		c-1.324-1.501-2.899-1.693-5.495-0.841c-2.456,0.806-4.903,1.312-7.458,1.742c-7.357,1.24-11.395,7.941-10.774,12.953
		c1.604-6.226,4.761-10.504,11.176-11.43c-0.008,0.006-0.014,0.012-0.022,0.018c0.011-0.002,0.02-0.004,0.031-0.006
		c-3.016,2.133-4.892,5.537-8.493,7.031c0.139,0.195,0.277,0.393,0.415,0.588c0.389-0.197,0.778-0.393,1.404-0.713
		c-0.003,0.008-0.006,0.015-0.009,0.021c0.006-0.003,0.011-0.006,0.018-0.009c-1.417,3.343-2.094,6.997-6.204,8.079
		c2.491-0.261,3.455,2.67,5.695,2.844c0.248,0.019,0.683,0.375,1.021,0.874c0.341,0.497,0.586,1.137,0.448,1.723
		c-0.276,1.171-1.515,1.313-2.735,1.594c1.563,0.89,2.661,0.087,3.919-0.976c-0.003,0.01-0.007,0.02-0.01,0.029
		c0.007-0.006,0.013-0.01,0.02-0.016c-0.985,3.296-4.086,5.758-6.765,5.742c-2.961-0.018-5.991,1.105-8.859-0.627
		c-0.329-0.199-1.203-0.003-1.475,0.312c-0.828,0.961-2.086,0.989-2.96,0.938c-2.567-0.148-4.792-0.521-2.275,3.039
		c0.2,0.284-0.057,1.116-0.357,1.485c-1.146,1.416-1.001,2.406-0.312,3.254c0.416,0.506,1.027,0.961,1.673,1.424
		c2.907,2.086,5.69,3.017,9.32,1.229c4.548-2.235,5.043-1.858,7.916,2.169c0.252,0.354,0.505,0.709,0.757,1.064
		c1.46,2.047,2.935,4.124,4.545,6.388c-8.633,2.103-11.708,8.341-12.589,17.22c-0.003-0.004-0.006-0.007-0.009-0.011v0.001
		c-0.211-0.273-0.432-0.533-0.658-0.781c-2.518-2.746-5.881-4.086-7.962-6.715c-0.76-0.957-1.351-2.084-1.667-3.514
		c-0.584-2.646-1.858-5.219-3.459-7.502c-0.2-0.285-0.404-0.563-0.613-0.83c-3.159-4.041-7.316-5.984-12.673-5.318
		c-1.591,0.197-3.209,0.249-4.776,0.563c-1.162,0.232-2.021,0.096-2.525-0.367c-0.508-0.459-0.663-1.246-0.409-2.324
		c0.881-3.749-0.542-7.418-0.061-11.126c0.052-0.401,0.154-0.895-0.039-1.249c-0.117-0.205-0.336-0.363-0.73-0.424
		c-0.818-0.127-1.385,0.305-1.753,0.971c-0.796,1.441-0.957,3.063-0.994,4.653c-0.05,2.175-1.178,2.099-2.607,1.384
		c-0.788-0.392-1.43-0.936-1.987-1.565c-0.557-0.626-1.028-1.337-1.471-2.069c-1.063-1.748-2.08-3.532-3.202-5.246
		c-0.116-0.176-0.242-0.365-0.381-0.541c-0.422-0.527-0.97-0.922-1.751-0.438c-1.004,0.617-0.584,1.537-0.137,2.352
		c1.063,1.936,2.09,3.863,2.339,6.283c-0.003-0.004-0.053-0.009-0.053-0.013v0.003c-1-1.145-1.689-2.347-2.615-3.461
		c-0.278-0.335-0.546-0.658-0.845-0.974c-0.034-0.036-0.052-0.074-0.086-0.109c-0.018-0.019-0.031-0.04-0.05-0.06
		c-0.409-0.436-0.853-1.047-1.341-1.516c-0.65-0.622-1.372-0.982-2.171-0.314c-1.667,1.393,0.287,2.846,1.226,4.018
		c1.034,1.287,2.229,2.441,3.184,4.441c-1.913-1.34-3.382-2.422-4.912-3.417c-0.658-0.431-1.508-0.902-2.144-0.006
		c-0.469,0.661-0.155,1.181,0.26,1.63c0.135,0.145,0.28,0.281,0.412,0.414c1.424,1.424,3.283,2.39,4.683,4.138
		c0.2,0.249,0.391,0.514,0.57,0.798c-1.845,0.168-3.072-0.935-4.473-1.397c-0.78-0.259-1.646-0.652-2.092,0.34
		c-0.216,0.481-0.125,0.864,0.113,1.161c0.241,0.293,0.625,0.5,0.994,0.63c5.738,2.021,9.49,7.266,15.2,9.329
		c0.292,0.105,0.513,0.244,0.674,0.41c0.488,0.488,0.444,1.215,0.127,2.034c-3.025,7.818-2.785,16.114-3.502,24.267
		c-0.223,2.543-0.436,5.089-0.646,7.547c-0.909-0.594-1.669-1.259-2.309-1.98c-2.771-3.119-3.284-7.295-3.825-11.285
		c-1.577-11.612-5.105-22.466-10.244-33.023c-3.465-7.116-7.349-14.064-10.236-21.465c-0.972-2.488-1.69-5.078-2.746-7.526
		c-0.91-2.111-0.411-3.815,1.359-4.874c3.567-2.133,5.5-5.805,8.452-8.506c1.518-1.389,0.798-6.036-0.837-7.947
		c-0.196-0.227-0.401-0.422-0.621-0.561c-1.122-0.704-1.483,0.008-1.526,0.932c-0.04,0.844,0.13,1.698,0.262,3.161
		c-0.003-0.004-0.005-0.007-0.009-0.011v0.001c-0.814-0.951-1.31-1.511-1.76-2.063c-0.033-0.04-0.069-0.082-0.102-0.123
		c-0.491-0.609-1.495-1.17-1.814-0.762c-1.443,1.833-4.209,0.814-5.514,2.742c-0.049,0.07-0.053,0.234-0.095,0.239
		c-4.894,0.707-3.689,6.214-6.825,8.646c-2.745,2.128-1.561,6.063-0.492,9.083c4.306,12.174,8.143,24.525,14.271,36
		c2.679,5.019,3.17,10.743,3.708,16.352c0.333,3.465,0.822,6.905,1.535,10.313c0.296,1.416,0.378,1.986-1.596,1.648
		c-10.872-1.848-19.759,8.273-17.069,19.152c0.454,1.844,0.609,3.681,1.572,5.436c0.905,1.648,0.05,3.098-1.819,3.862
		c0.625,0.339,1.024,0.98,1.822,0.243c0.283-0.262,1.111-1,1.316-0.652c0.103,0.149,0.074,0.527-0.207,1.299
		c-0.061,0.167-0.07,0.268-0.047,0.325c0.084,0.148,0.437-0.06,0.59-0.067c0.252-0.012,0.573-0.251,0.741-0.161
		c0.2,0.108,0.417,0.298,0.641,0.549c1.552,1.729,3.5,6.468,3.255,8.202c-0.246,1.738-1.031,3.021-2.801,3.54
		c-2.051,0.6-4.128,1.126-6.138,1.841c-0.925,0.33-1.69,0.014-2.228-0.436c-0.004-0.003-0.005-0.006-0.008-0.01h0
		c-0.712-0.588,0.128-1.25,0.442-1.759c1.925-3.147,1.493-6.651,1.125-9.944c-0.402-3.596-0.015-7.115,0.024-10.666
		c0.047-4.391-0.186-8.752-1.038-13.052c-0.387-1.952-0.512-3.89-0.456-5.855c0.301-10.437,0.622-20.876,0.93-31.315
		c0.028-0.99,0.191-1.938,0.663-2.834c1.23-2.336,1.692-4.839,1.819-7.471c0.054-1.133-0.375-2.755,1.682-3.041
		c0.7-0.097,0.927-1.061,0.543-1.799c-0.455-0.871-0.754-1.749-0.942-2.736c-0.093-0.482-0.247-0.879-0.483-1.145
		c-0.399-0.438-1.032-0.509-2.009-0.006c-1.324,0.682-2.222,0.677-2.735-0.014c-0.313-0.412-0.485-1.072-0.525-1.984
		c-0.081-1.892-0.442-3.721-0.835-5.549c-0.083-0.383-0.181-0.799-0.393-1.112c-0.213-0.306-0.537-0.511-1.07-0.476
		c-1.256,0.078-0.92,1.088-0.932,1.824c-0.028,2.01-0.015,4.019-0.015,6.818c-0.003-0.004-0.014-0.008-0.014-0.012
		c0,0.001,0,0.002,0,0.002c-2-2.52-3.447-4.457-4.983-6.349c-0.247-0.304-0.518-0.593-0.809-0.864
		c-0.292-0.271-0.601-0.525-0.921-0.758c-0.444-0.324-1.075-0.297-1.516,0.056c-0.581,0.46-0.11,0.96,0.134,1.392
		c0.349,0.622,0.679,1.275,1.143,1.807c6.07,6.993,5.329,15.349,4.692,23.641c-0.616,8.007-1.602,15.965-3.358,23.82
		c-0.468,2.092,0.384,4.299,0.231,6.389c-0.631,8.574,0.1,17.125,0.189,25.683c0.02,1.85-4.308,5.798-6.094,5.788
		c-0.587-0.002-0.93-0.258-1.194-0.618c-0.09-0.12-0.171-0.253-0.248-0.392c-1.428-2.553-2.166-4.615-0.615-7.97
		c3.514-7.603,5.093-15.804,1.956-24.129c-0.421-1.117-0.982-2.122-1.654-3.009c-4.713-6.207-14.857-6.694-20.253-0.044
		c-1.007,1.241-1.802,2.657-2.905,4.302c-0.001-0.008-0.001-0.014-0.003-0.021c-0.002,0.004-0.004,0.006-0.006,0.01
		c-0.642-3.553,0.192-6.883-0.232-10.162c-1-7.734-0.8-15.532-0.202-23.242c0.518-6.676-0.205-13.576,2.494-20.004
		c0.238-0.567,0.339-1.209,0.408-1.826c0.064-0.577,0.213-1.255-0.151-1.682c-0.125-0.141-0.305-0.253-0.567-0.324
		c-1.048-0.285-1.642,0.346-1.986,1.313c-0.817,2.293-1.671,4.573-3.019,6.758c-0.001-0.008-0.001-0.015-0.002-0.022
		c-0.002,0.005-0.004,0.009-0.007,0.013c-0.248-2.408-0.51-4.813-0.736-7.225c-0.045-0.489-0.143-0.963-0.367-1.309
		c-0.224-0.338-0.572-0.551-1.117-0.524c-1.194,0.059-1.171,1.109-1.167,2.03c0.011,2.398,0.004,4.799,0.004,7.234
		c-2.764-0.857-5.466,1.441-5.481,4.456c-0.012,2.714,0.443,5.475,1.566,7.791c2.249,4.636,1.877,9.384,1.583,14.183
		c-0.398,6.505-0.813,12.996-0.802,19.528c0.012,6.072-0.841,12.032-2.593,17.929c-1.801,6.061-2.755,12.354-3.011,18.711
		c-0.024,0.59-0.08,1.177-0.315,1.787c-0.003-0.004-0.086-0.008-0.086-0.012c0,0.001,0,0.002,0,0.002
		c-2-2.5-3.951-4.607-3.021-8.414c0.636-2.609-0.025-5.648-0.596-8.396c-0.253-1.225-0.2-1.665,0.815-2.256
		c1.734-1.01,2.32-2.512,1.855-4.553c-0.724-3.18-0.204-5.768,3.105-7.564c1.972-1.066,1.612-3.293,0.442-4.624
		c-0.078-0.088-0.158-0.173-0.242-0.252c-0.163-0.153-0.313-0.31-0.455-0.466c-2.093-2.32-1.898-5.02-1.975-7.855
		c-0.093-3.442-1.351-6.738-1.206-10.291c0.031-0.771-0.217-1.466-0.63-2.097c-0.69-1.048-1.834-1.923-2.899-2.687
		c-3.491-2.501-7.5-3.654-11.758-4.444c0.001-0.003,0.003-0.007,0.005-0.01c-0.005-0.001-0.009-0.002-0.014-0.003
		c4.127-8.761,8.224-17.439,12.306-26.127c1.63-3.471,3.135-6.998,6.082-9.659c1.296-1.173,1.691-2.683,0.956-4.393
		c-0.91-2.12-0.603-4.37-0.726-6.594c-0.458-8.277-1.266-16.553-1.633-24.815c-0.457-10.301-3.664-19.951-5.565-29.901
		c-0.818-4.282-0.115-8.287,0.869-12.376c0.924-3.84,0.749-7.487-1.47-11.059c-1.384-2.227-1.914-4.97-2.962-7.425
		c-0.33-0.771-0.589-1.688-1.086-2.312c-0.5-0.618-1.242-0.938-2.536-0.517c-0.275,0.089-0.432-0.024-0.527-0.179
		c-0.035-0.054-0.064-0.113-0.086-0.172c-0.132-0.354-0.285-0.64-0.456-0.871c-1.204-1.611-3.261-0.487-4.842-0.684
		c-1.318-0.162-1.754,1.074-1.637,2.252c0.131,1.299,0.04,2.235-1.297,3.064c-1.277,0.795-1.172,2.47-1.31,3.908
		c-0.335,3.507,0.667,6.914,0.684,10.394c0.007,1.446-0.275,2.571-1.581,3.411c-1.49,0.961-2.01-0.544-2.948-0.986
		c-0.079-0.037-0.143-0.107-0.22-0.152c-1.768-1.01-3.958-2.77-5.513-0.854c-0.972,1.2-0.276,2.504,0.641,3.665
		c0.372,0.47,0.777,0.915,1.124,1.322c0.045,0.053,0.091,0.106,0.134,0.157c0.332,0.398,0.665,0.796,1.002,1.189
		c2.377,2.781,4.937,5.4,8.382,6.996c0.271,0.125,0.485,0.299,0.659,0.503c0.517,0.602,0.663,1.484,0.802,2.259
		c1.976,11.004,3.26,22.031,1.899,33.252c-0.96,7.904-0.703,15.879-0.637,23.827c0.032,3.848-1.663,6.64-4.867,8.575
		c-2.391,1.444-4.605,3.115-6.427,5.213c-4.065,4.681-7.991,9.467-11.68,14.468c-2.96,4.017-5.379,8.819-10.153,10.988
		c-3.164,1.434-6.062,3.394-9.247,4.616c-2.429,0.931-3.966,2.498-5.497,4.311c-0.493,0.582-1.029,1.861-1.705,1.199
		c-0.762-0.75-2.191-0.76-2.85-1.584c-0.224-0.275-0.362-0.64-0.358-1.155c0.021-3.126,0.13-6.253,0.186-9.378
		c0.017-1,0.762-1.584,1.262-2.303c3.261-4.678,5.148-9.904,6.057-15.496c0.106-0.648,0.241-1.108,0.743-1.588
		c2.167-2.072,3.103-4.557,3.122-7.652c0.017-2.958,1.785-5.748,1.003-8.902c-0.573-2.313-1.082-4.64-1.185-7.08
		c-0.029-0.676-0.256-1.276-0.609-1.818c-0.591-0.902-1.527-1.642-2.475-2.295c-6.91-4.762-14.59-6.84-22.812-5.451
		c-5.466,0.924-11.323,2.305-14.837,6.992c-3.355,4.475-7.193,9.014-6.682,15.406c0.464,5.799,1.204,11.27,4.504,16.451
		c4.122,6.465,6.288,13.613,3.948,21.55c-0.708,2.407-2.419,2.782-4.124,3.507c-1.484,0.633-2.516-0.298-3.501-1.285
		c-2.076-2.08-4.022-4.329-6.855-5.475c-0.298-0.12-0.507-0.262-0.649-0.418c-0.624-0.663-0.017-1.596,0.179-2.316
		c1.456-5.384,0.988-10.605-1.067-15.734c-0.13-0.324-0.183-0.736-0.412-0.967c-0.273-0.26-0.522-0.522-0.75-0.787
		c-3.375-3.92-1.83-8.313-0.508-12.633c3.5-11.436,5.856-23.148,8.475-34.797c0.823-3.655,2.29-6.961,5.196-9.447
		c2.593-2.217,4.004-5.199,5.554-8.119c0.583-1.1,0.991-2.476,2.946-1.9c1.22,0.357,1.782-0.895,2.114-1.967
		c0.399-1.287,0.351-2.494-0.452-3.515c-0.114-0.143-0.241-0.282-0.386-0.417c-0.312-0.293-1.028-0.33-1.139-0.635
		c0-0.002-0.001-0.004-0.002-0.006s-0.006-0.004-0.007-0.007c-0.244-0.67-0.539-1.19-0.878-1.592
		c-1.481-1.737-3.8-1.172-6.403-0.534c0.003-0.005,0.006-0.01,0.008-0.014c-0.006,0.001-0.012,0.002-0.018,0.004
		c2.319-4.066,5.189-7.109,7.752-10.372c0.605-0.771,1.305-1.479,1.826-2.303c0.711-1.121,1.659-2.454,0.388-3.608
		c-1.321-1.186-2.547-0.053-3.485,0.86c-1.725,1.681-3.317,3.497-4.97,5.253c-2.006,2.13-3.515,4.718-6.073,6.664
		c-0.002-0.005-0.004-0.01-0.007-0.014c0,0-0.001,0.002-0.002,0.002c-0.904-1.555-0.425-3.034-0.204-4.451
		c0.525-3.356,1.566-6.585,2.609-9.809c0.28-0.863,0.515-1.721,0.369-2.625c-0.059-0.361-0.154-0.713-0.334-1
		c-0.181-0.284-0.445-0.506-0.842-0.611c-0.809-0.215-1.441,0.182-1.793,0.851c-0.66,1.261-1.316,2.536-1.806,3.868
		c-1.664,4.51-3.527,8.947-4.537,13.686c-0.486,2.28-1.699,4.278-3.236,6.262c-0.003-0.004-0.005-0.008-0.009-0.012
		c-1.212-1.381-1.2-3.077-1.878-4.471c-0.584-1.198-1.02-2.483-1.708-3.615c-0.135-0.222-0.283-0.44-0.45-0.637
		c-0.505-0.591-1.177-0.971-2.169-0.589c-1.378,0.531-1.284,1.696-0.98,2.696c1.999,6.586,1.734,13.621,4.046,20.135
		c0.513,1.445,0.25,2.783-0.238,4.168c-3.692,10.51-7.114,21.117-13.106,30.668c-2.221,3.541-3.779,7.473-5.149,11.445
		c-0.744,2.159-2.945,2.798-4.438,1.148c-2.165-2.391-4.415-4.669-6.921-6.702c-0.185-0.149-0.339-0.309-0.471-0.475
		c-0.92-1.149-0.68-2.661-0.673-4.032c0.025-4.307,1.045-8.491,1.662-12.727c0.95-6.533,1.169-13.246,2.836-19.582
		c2.21-8.398,3.701-17.074,7.594-24.973c0.666-1.352,1.561-2.309,3.168-2.958c2.86-1.161,3.945-4.028,4.605-6.829
		c0.337-1.432,0.24-2.971,0.54-4.473c0.174-0.871-0.01-1.594-0.436-2.105c-0.717-0.853-2.107-1.118-3.633-0.51
		c-1.567,0.624-2.333,0.869-2.662,0.416c-0.262-0.345-0.255-1.113-0.151-2.459c0.275-3.54,1.032-7.047,1.316-10.589
		c0.162-2.021,0.637-4.22-0.626-5.95c-0.291-0.396-0.673-0.767-1.172-1.105c-0.064-0.043-0.112-0.09-0.15-0.138
		c-0.269-0.319-0.005-0.728,0.013-1.089c0.042-0.877,0.152-1.865-0.41-2.441c-0.191-0.191-0.457-0.336-0.827-0.414
		c-1.414-0.297-2.78-0.498-4.01,1.117c-5.984,7.86-6.49,16.987-6.124,26.234c0.137,3.486-0.079,6.629-1.689,9.803
		c-6.581,12.977-12.447,26.252-16.004,40.435c-1.431,5.706-2.932,11.396-4.34,17.104c-0.308,1.255-0.428,2.571-0.624,4.066
		c-0.003-0.004-0.081-0.009-0.081-0.014c0,0.001,0,0.002,0,0.002c-1-1.117-1.378-1.895-0.97-3.398
		c0.419-1.539,0.041-3.006-0.89-4.154c-0.312-0.383-0.662-0.729-1.076-1.031c-8.109-5.919-16.747-9.49-27.2-7.262
		c-4.312,0.918-8.451,1.701-12.3,4.029c-7.967,4.816-11.291,12.5-13.42,20.951c-1.254,4.979-3.187,9.686-5.068,14.434
		c-0.926,2.336-1.146,4.939-1.587,7.391c-0.612,3.391-1.57,6.684-2.227,10.055c-0.656,3.361-0.581,6.726-0.137,10.076
		c0.077,0.574,0.069,1.293,0.552,1.83c0.162,0.178,0.378,0.335,0.669,0.46c0.112,0.048,0.23,0.155,0.336,0.305
		c0.32,0.443,0.589,1.276,0.196,2.076c-1.089,2.219-1.879,4.541-2.879,6.82v-0.035c0,0.008-0.061,0.015-0.063,0.022
		c0,26.187-0.009,52.373-0.026,78.559c0.03,0.001,0.06,0.003,0.09,0.004V319H920.23c-0.091-0.021-0.172-0.027-0.271-0.059
		c-0.822-0.266-1.61-0.578-2.408-0.904c-2.248-0.916-4.363-2.213-6.859-2.371c-0.355-0.021-0.719-0.021-1.092,0.008
		c-0.1,0.008-0.201,0.004-0.305-0.009c-0.705-0.081-1.476-0.595-2.122-1.005c-1.313-0.833-1.249-3.248,0.15-3.386
		c2.625-0.261,2.521-1.772,2.368-3.584c-0.023-0.261,0.044-0.761,0.085-0.763c3.282-0.137,0.814-2.039,0.83-3.025
		c0.025-1.38,0.374-2.652,0.728-3.926c0.826-2.968,1.058-5.979,0.853-9.023c-0.416-6.17-3.941-9.887-10.796-11.238
		c2.347-3.731,4.275-7.697,7.017-10.983c7.146-8.566,12.352-18.288,17.784-27.922c2.079-3.694,5.69-5.683,10.069-6.009
		c0.178-0.014,0.373-0.018,0.578-0.017c0.512,0,1.085,0.026,1.607-0.006c0.936-0.058,1.704-0.304,1.654-1.222
		c-0.05-0.916-0.523-1.122-1.15-1.091c-0.636,0.035-1.425,0.308-2.093,0.336c-0.191,0.009-0.373-0.002-0.538-0.044
		c-0.577-0.147-1.204-0.092-2.17-0.148C935.599,230.711,937.611,230.145,939.169,228.973z M935.91,227.984V228h-0.015
		C935.9,227.995,935.905,227.99,935.91,227.984z M625.214,207.303c-0.067,0.627-0.38,0.829-0.758,0.844
		c-0.377,0.016-0.819-0.156-1.144-0.278c-2.192-0.821-3.125-3.247-2.433-5.419c0.058-0.18,0.126-0.359,0.207-0.536
		c0.161-0.353,0.367-0.694,0.622-1.015c0.127-0.161,0.266-0.317,0.417-0.467c0.02,0.178,0.025,0.356,0.022,0.535
		c-0.006,0.359-0.045,0.718-0.072,1.073c-0.067,0.889-0.057,1.755,0.745,2.52c0.188-0.433,0.125-0.902,0.09-1.378
		c-0.018-0.238-0.021-0.477,0.011-0.713c0.052-0.372,0.201-0.738,0.602-1.081c0,0,0,0.001,0.001,0.001c0,0,0-0.001,0-0.001
		C625.414,202.982,625.449,205.146,625.214,207.303z M459.754,172.855c-1.582-1.693-2.322-3.204-3.036-5.17
		c-0.103-0.281-0.204-0.572-0.307-0.873C459.427,168.096,459.203,170.271,459.754,172.855z M48.862,232.98
		c0.452-6.707,1.579-7.555,9.387-7.204C54.894,228.088,51.852,230.051,48.862,232.98z M74.996,202.219
		c-1.768,4.623-2.401,9.475-2.79,14.368c-0.219,2.755-4.152,6.156-6.906,5.938c-0.262-0.02-0.462-0.074-0.591-0.234
		c-0.064-0.078-0.116-0.174-0.14-0.318c-0.648-3.887-1.291-7.863,1.741-11.057c2.217-2.334,2.066-5.391,3.028-8.092
		c0.186-0.519,0.039-1.029-0.241-1.519c-0.309-0.538-0.779-1.052-1.168-1.521c-0.328-0.393-0.637-0.795-0.854-1.226
		c-0.291-0.571-0.414-1.191-0.156-1.914c1.794-5.021,0.726-10.019-0.056-15.024c-0.035-0.227,0.048-0.473,0.118-1.068
		c2.459,4.855,4.705,9.596,6.574,14.445c0.624,1.617,1.205,3.248,1.738,4.898C75.559,200.719,75.289,201.452,74.996,202.219z
		 M202.992,262.262c-1.151,2.981-3.763,4.774-5.963,7.531c-0.314,0.394-0.62,0.807-0.912,1.246
		c-0.004-0.894-0.001-1.771,0.017-2.633c0.13-6.029,1.034-11.246,5.726-15.279c0.29,0.381,0.621,0.795,0.929,1.222
		c0.986,1.37,2.267,2.626,2.872,4.143c0.112,0.282,0.163,0.528,0.166,0.747C205.85,260.762,203.511,260.918,202.992,262.262z
		 M258.064,280.301c-0.604,0.488-1.264,0.686-1.982,0.634c-1.197-0.086-2.557-0.864-4.091-2.142
		c-0.231-0.192-0.433-0.383-0.619-0.573c-0.017-0.017-0.04-0.034-0.056-0.052c-0.092-0.096-0.16-0.193-0.242-0.29
		c-0.094-0.111-0.199-0.222-0.278-0.335c-0.891-1.257-0.903-2.581-0.361-4.401c0.88-2.957,1.134-6.101,1.658-9.163
		c0.228-0.121,0.454-0.243,0.681-0.362c0.126,1.347,0.554,2.497,1.141,3.544c1.292,2.304,3.353,4.106,4.655,6.403
		C259.376,274.984,258.994,279.547,258.064,280.301z M320.13,290.555c-0.855-0.588-1.141-1.531-0.778-2.328
		c0.464-1.021,1.354-0.158,2.117-0.034c-0.351-1.034-0.725-2.004-1-3c-0.168-0.604-0.885-1.411,0.116-1.826
		c0.217-0.09,0.428-0.136,0.633-0.142c0.616-0.019,1.18,0.32,1.688,0.906c2.087,2.395,2.246,5.328,2.696,8.623
		C323.408,292.26,321.683,291.629,320.13,290.555z M373.185,266.084c-1.128,0.391-2.485,1.127-3.553,1.141
		c-0.356,0.006-0.68-0.069-0.953-0.264c-1.128-0.806,0.193-2.732,0.443-4.154c0.524-2.982,0.891-5.967,0.91-8.99
		c0.006-0.922,0.127-1.378,0.59-1.419c0.277-0.024,0.676,0.101,1.247,0.364c2.387,1.1,4.25,2.884,6.42,4.244
		c0.789,0.494,0.903,1.226,0.831,2.322c-0.01,0.156-0.024,0.32-0.041,0.492c0.187,2.348-0.894,3.766-2.524,4.775
		C375.579,265.201,374.403,265.66,373.185,266.084z M378.046,315.641c-1.217-6.914-0.443-13.355,0.579-19.822
		c2.229,4.988,2.631,10.314,3.181,15.604C382.063,313.901,379.714,314.161,378.046,315.641z M408.818,195.428
		c0.177,0.706,0.33,1.313,0.476,1.898c0.044,0.179,0.088,0.355,0.131,0.531c0.05,0.202,0.142,0.423,0.194,0.635
		c0.073,0.297,0.069,0.578-0.253,0.771c-0.263,0.158-0.81-0.107-1.209-0.236c-0.455-0.149-0.706-0.456-0.674-0.83
		c0.011-0.124,0.053-0.256,0.129-0.393c0.027-0.048,0.045-0.1,0.067-0.15C407.995,196.928,407.848,195.982,408.818,195.428z
		 M403.289,190.482c0.226-0.889,0.708-1.521,1.642-1.92c0.431-0.184,0.826-0.367,1.214-0.399s0.77,0.087,1.177,0.507
		c1.047,1.082,1.188,2.494,0.849,3.689c-0.452,1.59-1.447,3.021-1.833,4.682c-0.114,0.49-0.372,0.7-0.632,0.707
		c-0.261,0.008-0.524-0.186-0.649-0.502c-0.768-1.938-1.327-3.955-1.917-5.789C403.166,191.104,403.213,190.778,403.289,190.482z
		 M396.255,197.894c0.128,2.627-0.813,3.901-3.121,4.892C393.711,200.768,394.535,199.436,396.255,197.894z M387.56,208.65
		c-0.099-0.152-0.194-0.314-0.285-0.486c0.123-0.12,0.247-0.236,0.371-0.349c0.249-0.224,0.5-0.431,0.754-0.616
		c0.127-0.093,0.255-0.18,0.384-0.262c1.548-0.978,3.221-1.109,5.106,0.508c0.187,0.162,0.476,0.201,0.717,0.297
		c0.085-0.25-0.206-0.723-0.121-0.964c0.05-0.146,0.234-0.206,0.717-0.085c0.211,0.052,0.437,0.553,0.441,0.85
		c0.009,0.699,0.072,1.445-0.12,2.05c-0.173,0.547-0.579,0.965-1.4,1.141c-0.086,0.019-0.153,0.048-0.249,0.061
		C391.373,211.123,389.044,210.94,387.56,208.65z M393.967,215.611C393.966,215.611,393.966,215.611,393.967,215.611
		C393.966,215.611,393.966,215.611,393.967,215.611c-1.216-1.016-1.94-1.97-2.566-3.262c1.748-0.217,3.358-0.42,5.528-0.686
		c-1.104,1.073-2.255,1.662-2.734,2.711C394.035,214.725,393.95,215.125,393.967,215.611z M396.291,218.03
		c-0.06,0.018-0.114,0.023-0.166,0.02c-0.359-0.027-0.534-0.538-0.716-0.85c-0.514-0.884-0.689-1.84-0.036-2.7
		c0.53-0.697,1.244-1.227,2.217-1.301c0.488,0.91,0.376,1.892,0.107,2.774C397.458,216.76,397.238,217.748,396.291,218.03z
		 M423.857,260.957c-1.478-1.106-2.66-2.34-3.605-3.679c-2.08-2.944-3.011-6.398-3.415-10.134c-0.037-0.346-0.087-0.751-0.284-1.014
		c-0.335-0.444-0.639-0.904-0.916-1.375c-1.944-3.298-2.631-7.153-4.407-10.529c-0.155-0.294-0.315-0.584-0.482-0.869
		c-1.171-1.996-2.657-3.734-4.706-4.743c-4.002-1.968-5.813-5.92-8.617-8.953c0-0.001,0-0.001-0.001-0.001s-0.001-0.002-0.001-0.002
		c-1.121-1.213,0.831-2.24,1.358-3.299c0.245-0.488,0.627-0.236,0.989,0.115c0.164,0.158,0.322,0.334,0.462,0.474
		c0.045,0.044,0.09,0.09,0.13,0.124c0.179,0.152,0.354,0.308,0.521,0.467c1.16,1.102,1.894,2.367,0.481,4.197
		c1.446-1.031,1.97-1.961,1.624-3.086c-0.209-0.678-0.73-1.425-1.552-2.308c-0.521-0.56-0.904-1.05-1.15-1.499
		c-0.739-1.35-0.241-2.329,1.481-3.701c1.274-1.016,2.087-1.064,2.701-0.178c0.205,0.295,0.387,0.693,0.557,1.194
		c0.473,1.396,0.149,2.606-0.322,3.938c1.202,0.054,1.041-1.341,1.882-1.57c0.568,0.637,1.139,1.28,1.708,1.924
		c-1.168-3.952-2.104-7.642,0.265-11.488c0.327-0.532-0.699-1.821,0.813-2.404c1.738-0.671,2.338,0.464,3.183,1.524
		c1.839,2.314,4.461,3.512,7.086,4.648c0.42,0.182,0.723,0.375,0.94,0.617c0.361,0.402,0.481,0.937,0.497,1.771
		c0.112,6.367-1.131,12.756,0.274,19.105c0.144,0.658-0.004,1.43-0.188,2.101c-2.32,8.484-1.66,16.74,1.831,24.793
		c0.422,0.974,0.736,1.989,1.072,3.001C424.113,260.256,423.99,260.451,423.857,260.957z M491.514,226.527
		c2.707,2.191,5.413,4.383,8.12,6.572c-2.885,0.6-5.317-0.559-7.493-1.667C490.658,230.68,491.783,228.205,491.514,226.527z
		 M487.973,246.215c0.222-2.353,0.706-4.084,2.288-5.489c1.392-1.237,1.604-3.12,1.771-4.899c0.058-0.618,0.136-1.156,0.604-1.179
		c0.156-0.008,0.354,0.042,0.61,0.165c0.477,0.229,0.972,0.43,1.471,0.623c2.022,0.783,4.138,1.413,5.683,3.026
		c0.276,0.287,0.534,0.606,0.769,0.963c-2.632,1.925-5.602,3.188-8.607,4.544C491.028,244.66,489.486,245.374,487.973,246.215z
		 M507.313,250.998c-2.597,0.42-5.218,0.709-7.887,1.342c2.109-2.457,5-3.705,7.826-5.033c0.73-0.344,1.094,0.136,1.075,0.707
		c-0.002,0.082-0.013,0.165-0.031,0.248C508.093,249.201,509.281,250.682,507.313,250.998z M517.787,247.561
		c-0.693-1.492-1.126-2.425-1.125-3.127c0.002-1.17,1.211-1.698,4.438-3.107c0.04,0.193,0.063,0.378,0.071,0.554
		C521.292,244.517,518.055,245.236,517.787,247.561z M550.001,222.092c0.548-0.222,1.085-0.395,1.618-0.563
		c0.326-0.103,0.587-0.141,0.798-0.131c1.479,0.072,0.487,2.579,1.845,2.902c-0.865,0.213-1.712,0.273-2.581,0.246
		c-0.869-0.029-1.758-0.147-2.707-0.295c-0.633-0.099-1.292-0.21-1.988-0.316C548.052,223.014,549.044,222.479,550.001,222.092z
		 M559.806,237.87c-0.133,2.667-1.883,5.249-4.627,6.463c-2.847,1.261-5.954,2.103-8.526,3.993
		c-0.808,0.593-1.642,1.073-1.767-0.542c-0.162-2.103-1.754-2.407-3.351-2.827c-0.846-0.219-2.432,0.057-2.272-1.18
		c0.198-1.527-0.887-3.272,0.288-4.594c0.059-0.065,0.117-0.131,0.188-0.195c2.223-2.018,3.729-4.51,5.018-7.12
		c0.168-0.341,0.333-0.684,0.496-1.028c0.164-0.347,0.324-0.643,0.497-0.885c0.518-0.727,1.145-0.959,2.286-0.568
		c1.682,0.577,3.407,1.02,5.12,1.508c0.442,0.127,1.002,0.341,1.39,0.184c0.129-0.053,0.239-0.146,0.319-0.299
		c0.427-0.813-0.383-1.319-0.99-1.637c-1.292-0.675-2.643-1.238-4.279-1.988c3.039-0.539,4.564-0.729,5.539-0.072
		c0.87,0.586,1.304,1.842,1.965,4.15c0.217,0.758,0.499,1.373,1.073,2.026C559.387,234.641,559.887,236.271,559.806,237.87z
		 M578.42,245.604c-0.332-0.207-0.577-0.433-0.75-0.668c-0.019-0.025-0.031-0.061-0.048-0.088c-0.036-0.053-0.073-0.111-0.101-0.168
		c-0.042-0.082-0.075-0.171-0.103-0.262c0-0.002-0.001-0.005-0.002-0.007c-0.084-0.279-0.107-0.601-0.081-0.986
		c0.074-1.096,0.235-2.168,0.458-3.236c0.473-2.267,1.257-4.513,2.298-6.91c0.493,0.733,0.989,1.59,1.486,2.309
		c3.447,4.985,6.96,9.337,10.064,15.253c-0.419-0.134-0.833-0.311-1.245-0.435C586.002,249.095,582.016,247.865,578.42,245.604z
		 M591.726,251v-0.006c0.001,0.002,0.002,0.004,0.003,0.006H591.726z M645.845,144.51c0,0,0.012,0,0.019,0
		c-0.007,0.002-0.012,0.004-0.019,0.006V144.51z M701.311,300.628c-0.771-0.333-0.954-0.795-0.891-1.273
		c0.062-0.479,0.372-0.976,0.59-1.374c0.663-1.225,1.332-0.177,1.784,0.329c0.156,0.176,0.326,0.345,0.498,0.513
		c0.831,0.807,1.769,1.625,2.092,3.344C703.718,301.541,702.493,301.137,701.311,300.628z M707.845,277.299c0,0,0,0.001,0.001,0.002
		h-0.001C707.845,277.3,707.845,277.3,707.845,277.299z M707.622,283.921c-0.305-0.431-0.188-1.067-0.008-2.349
		c0.188-1.342,0.229-2.701,0.313-4.055c0.931,2.334,1.253,4.997,2.12,7.514C708.602,284.58,707.922,284.355,707.622,283.921z
		 M754.765,298.018c-0.128,0.086-0.253,0.178-0.376,0.273c0.477-2.514,1.914-3.473,2.997-5.003
		C758.99,296.301,756.678,296.713,754.765,298.018z M791.005,308.831c-0.632,0.157-1.163,0.282-1.628,0.378
		c-2.712,0.553-2.871-0.114-3.599-4.001c-0.543-2.929-0.581-5.704,1.304-8.382c1.072-1.524,1.712-3.271,2.353-5.053
		c0.455-1.27,0.911-2.557,1.521-3.798c-0.046,0.34-0.082,0.677-0.108,1.014s-0.044,0.671-0.053,1.005
		c-0.122,4.654,1.444,8.982,2.985,13.299c0.69,1.932,2.752,0.859,4.278,1.613C796.263,307.324,793.603,308.183,791.005,308.831z
		 M841.782,312.958c-1.354-0.863-2.771-1.62-4.12-2.358c-1.325-0.729-2.421-4.83-1.663-6.001c0-0.001-0.154-0.001-0.154-0.001
		c0-0.001,0-0.002,0-0.002c1-0.75,1.376-0.584,2.083-0.492c1.425,0.187,2.481,0.314,3.185,0.275c1.545-0.088,1.789-0.992,2.45-3.881
		c0.137-0.596,0.344-1.178,0.477-1.773c0.067-0.302,0.21-0.539,0.396-0.694c0.188-0.156,0.435-0.231,0.722-0.208
		c0.586,0.047,0.523,0.627,0.584,1.045c0.738,5.013,0.688,10.069,1.062,15.646c0.054,0.796,0.115,1.604,0.189,2.423
		C845.201,315.299,843.48,314.043,841.782,312.958z M886.876,314.369c-0.189,0.228-0.393,0.452-0.613,0.674
		c-0.163-4.17,0.875-8.128,1.979-12.074C889.138,306.993,889.711,310.965,886.876,314.369z"/>
</g>
</svg>
