<?xml version="1.0" encoding="utf-8"?>
<!-- Generator: Adobe Illustrator 16.0.0, SVG Export Plug-In . SVG Version: 6.00 Build 0)  -->
<!DOCTYPE svg PUBLIC "-//W3C//DTD SVG 1.1//EN" "http://www.w3.org/Graphics/SVG/1.1/DTD/svg11.dtd">
<svg version="1.1" id="Layer_1" xmlns="http://www.w3.org/2000/svg" xmlns:xlink="http://www.w3.org/1999/xlink" x="0px" y="0px"
	 width="1284.129px" height="319.311px" viewBox="0 0 1284.129 319.311" enable-background="new 0 0 1284.129 319.311"
	 xml:space="preserve">
<g>
	<g>
		<path fill="#252A26" d="M846.187,188.088c-0.026,3.145-1.396,5.955-2.293,8.869c-2.109,6.866-3.729,13.837-5.217,20.865
			c-2.235,10.557-2.133,21.26-2.712,31.936c-0.318,5.865-1.736,11.576-3.274,17.233c-1.949,7.165-4.654,14.069-7.416,20.946
			c-0.927,2.307-2.229,4.438-3.146,6.77c-0.85,2.156-1.253,4.293-1.074,6.563c0.128,1.658,0.192,3.27-0.896,4.708
			c-0.305,0.403-0.528,1.022-0.194,1.498c1.227,1.733,1.043,3.89,1.795,5.767c1.086,2.699-0.041,4.967-2.884,5.529
			c-2.982,0.594-6.014,0.853-9.066,0.674c-1.793-0.107-2.952-0.904-3.194-2.785c-2.794,2.408-6.052,1.488-9.097,1.002
			c-1.964-0.314-2.808-3.525-1.598-5.169c1.359-1.842,1.526-4.21,1.748-6.163c0.402-3.443,1.064-7.063-0.859-10.584
			c-2.133-3.904-3.597-8.17-5.421-12.246c-3.005-6.709-6.214-13.318-9.507-19.895c-2.11-4.221-3.769-8.669-5.615-13.023
			c-1.616-3.809-3.32-7.591-4.381-11.613c-1.343-5.09-0.405-9.986,0.722-15.027c2.143-9.588,6.313-18.361,10.025-27.337
			c0.456-1.106,1.32-2.353-1.096-2.534c-1.137-0.082-1.471-1.736-2.097-2.723c-2.448-3.855-2.287-4.615,1.733-6.985
			c1.871-1.101,2.826-2.575,2.989-4.743c0.368-4.922-0.332-9.733-1.11-14.573c-0.604-3.759-1.857-7.407-1.914-11.257
			c3.156-0.255,6.188,0.883,9.327,0.827c-0.117,0.774-0.277,1.546-0.35,2.328c-0.723,8.085-1.601,16.171-0.514,24.302
			c-0.178,1.381,0.218,2.881-0.978,3.975c0.48,0.42,0.869,0.258,1.23,0.125c0.418-0.159,0.673-0.536,1.167-0.661
			c6.312-1.594,12.635-0.447,18.855,0.313c8.679,1.06,17.271,2.808,26.062,2.869C839.357,187.893,842.771,188.01,846.187,188.088z
			 M809.643,309.167c0.666-1.751,0.548-3.303,0.888-4.756c0.808-3.464-0.007-7.446,3.252-10.151c0.358-0.297,0.473-0.93,0.625-1.432
			c1.714-5.729,2.36-11.617,2.462-17.57c0.128-7.643-0.087-15.314,1.555-22.846c0.789-3.611,1.873-7.203,1.525-10.93
			c-0.364-3.9-0.259-7.795-0.146-11.677c0.181-6.335,0.077-12.67,0.999-18.983c0.946-6.471,0.438-12.961-0.567-19.779
			c-1.768,2.402-3.305,4.502-4.853,6.596c-4.245,5.74-8.415,11.537-12.968,17.045c-4.054,4.903-8.257,9.715-10.603,15.785
			c-1.506,3.9-1.972,7.588,0.354,11.473c2.16,3.61,3.655,7.563,4.221,11.822c1.091,8.225,1.6,16.545,4.23,24.519
			c1.076,3.261,2.72,5.788,5.94,7.362c4.302,2.102,5.488,4.791,3.135,9.025C806.937,299.634,807.691,304.098,809.643,309.167z"/>
	</g>
	<path fill-rule="evenodd" clip-rule="evenodd" fill="#882338" d="M790.466,154.616c-3.14,0.056-6.171-1.082-9.327-0.827
		c-0.677-0.578-0.363-1.355-0.379-2.045c-0.105-4.905,0.148-9.816,0.293-14.703c0.426-14.295,0.007-28.586,0.426-42.876
		c0.11-3.843,0.102-3.911,3.796-5.032c0.503-0.15,1.001-0.328,1.499-0.497c0.595-0.001,1.203,0.079,1.774-0.026
		c1.398-0.244,2.115,0.449,2.443,1.672c0.586,2.18,2.145,3.563,3.914,4.719c4.049,2.646,8.564,3.8,13.353,3.938
		c2.38,0.07,4.762,0.109,7.138,0.033c2.755-0.092,5.532,0.086,8.225-0.788c1.12-0.366,1.941,0.024,2.602,1.153
		c3.444,5.854,8.114,10.347,14.617,12.717c1.072,0.394,1.948,1.084,2.496,2.134c0.166,0.317,0.466,0.999,0.742,0.636
		c1.509-1.99,2.233,0.402,3.34,0.51c-0.69,5.778-1.302,11.637-0.563,17.363c0.355,2.753,0.85,5.34,0.699,8.189
		c-0.142,2.667,0.94,5.403,1.489,8.106c-0.563,0.265-1.023-0.065-1.495-0.269c-2.816-1.205-5.368-0.236-6.723,2.481
		c-0.264,0.524-0.508,0.961-0.077,1.421c1.978,2.109,3.161,4.703,4.509,7.209c1.102,2.051,0.934,5.547-0.392,7.434
		c-1.463,2.086-2.437,4.368-3.199,6.848c-0.808,2.621-2.077,5.249-4.851,6.549c-0.52,0.246-1.296,0.144-1.167,1.004
		c0.118,0.766,0.846,0.813,1.41,0.775c1.728-0.105,2.558,0.68,2.724,2.371c0.082,0.839,0.677,1.865,1.479,1.352
		c2.36-1.502,4.945-2.273,7.596-2.949c0.627,2.455-0.805,3.781-2.671,4.871c-3.415-0.078-6.829-0.195-10.247-0.222
		c-8.791-0.062-17.383-1.81-26.062-2.869c-6.221-0.76-12.544-1.906-18.855-0.313c-0.494,0.125-0.749,0.502-1.167,0.661
		c-0.361,0.133-0.75,0.295-1.23-0.125c1.195-1.094,0.8-2.594,0.978-3.975c1.449-2.359,2.79-4.785,3.011-7.608
		c0.36-4.61,0.51-9.233,0.961-13.833c0.591-6.014,1.146-12.064,4.563-17.367c0.668-1.035,1.073-2.244,1.612-3.365
		c1.296-2.676-0.007-5.127-0.525-7.688c-0.303-1.49-1.606-1.122-2.306-1.785c-0.713-0.678-1.416-1.33-2.029-2.131
		c-1.199-1.57-1.327-3.525-2.076-5.254c-0.126,2.092-0.207,4.143-0.108,6.184c0.373,8.033,0.249,16.056-0.224,24.076
		C792.402,153.808,792.191,154.895,790.466,154.616z M836.046,125.058c-2.006,5.749-2.669,11.635-1.684,17.63
		c0.302,1.833,0.995,3.619,2.745,4.864c0.189-1.603-0.835-2.776-0.771-4.208c0.039-0.898,0.387-1.994-0.771-2.633
		c-0.269-0.145-0.138-0.574-0.03-0.902C837.081,134.936,835.951,129.979,836.046,125.058z"/>
	<g>
		<path fill="#252A26" d="M847.417,115.332c-1.106-0.107-1.831-2.5-3.34-0.51c-0.276,0.363-0.576-0.318-0.742-0.636
			c-0.548-1.05-1.424-1.74-2.496-2.134c-6.503-2.37-11.173-6.862-14.617-12.717c-0.66-1.129-1.481-1.52-2.602-1.153
			c-2.692,0.874-5.47,0.696-8.225,0.788c-2.376,0.076-4.758,0.037-7.138-0.033c-4.788-0.138-9.304-1.291-13.353-3.938
			c-1.77-1.156-3.328-2.539-3.914-4.719c-0.328-1.223-1.045-1.916-2.443-1.672c-0.571,0.105-1.18,0.025-1.774,0.026
			c-0.245-2.71,1.309-4.894,2.17-7.281c-3.884,0.035-5.352,0.981-6.354,4.082c-0.737-2.167,0.461-4.293,2.978-5.167
			c1.245-0.43,2.515-0.814,3.796-1.093c0.993-0.214,1.086-0.747,0.899-1.581c-0.4-1.801-0.682-3.629-1.146-5.414
			c-0.854-3.295,0.846-5.727,2.657-8.106c1.063-1.399,2.141-2.835,3.439-3.996c3.483-3.115,5.17-7.517,8.147-10.999
			c3.358-3.936,7.448-5.414,12.497-4.621c1.229,0.193,2.55,0.344,3.745,0.104c4.635-0.945,8.067,1.068,10.551,4.575
			c1.69,2.394,3.716,4.378,5.707,6.452c0.575,0.602,1.229,1.189,1.56,2.412c-1.384-0.698-2.541-1.283-3.817-1.926
			c0.292,2.16,1.46,3.883,2.753,5.302c2.525,2.775,3.281,6.385,4.991,9.532c1.767,3.258,4.111,5.373,7.813,5.889
			c0.167,0.024,0.314,0.182,0.521,0.305c-1.896,0.536-3.433-0.633-5.208-0.737c3.037,2.114,7.252,1.852,9.812,4.923
			c-3.164-1.524-6.792-1.018-10.293-2.744c0.807,1.771,1.407,3.218,2.119,4.61c1.021,2.001,1.196,4.135,1.297,6.329
			c0.304,6.49,1.152,12.93,2.183,19.344c0.062,0.391,0.33,0.75-0.12,1.041c-0.539,0.348-0.65-0.215-0.826-0.463
			c-0.313-0.441-0.659-0.818-1.139-1.066c-0.063-0.598-0.158-1.178-0.973-1.364c-0.104,1.019-0.1,1.944,0.778,2.64
			c0.86,2.104,2.645,3.424,4.28,4.811c3.499,2.963,3.969,6.734,3.102,11.018C854.67,120.292,852.19,116.958,847.417,115.332z
			 M792.033,67.116c-1.293,1.585-1.655,3.191-1.447,4.964c0.19,1.633,0.326,3.275,0.569,4.902c0.087,0.568-0.482,1.52,0.463,1.646
			c0.963,0.129,1.545-0.756,1.793-1.553c0.274-0.881,0.059-1.792-0.424-2.652c-0.795-1.416-0.983-2.969-0.829-4.586
			C792.239,69.015,792.553,68.17,792.033,67.116z M836.2,107.634c-1.621-2.245-3.156-4.563-4.897-6.71
			c-0.804-0.988-0.722-2.428-1.861-3.179c-0.34-0.224-0.611-0.499-1.059-0.256c-0.413,0.224-0.308,0.455-0.124,0.784
			C830.247,101.92,832.616,105.256,836.2,107.634z M846.13,88.438c-0.102-4.075-2.105-7.214-5.12-10.353
			C841.645,82.4,844.727,85.004,846.13,88.438z M844.417,76.195c-1.608-1.356-2.742-3.134-4.342-4.446
			C841.162,73.604,841.908,75.783,844.417,76.195z"/>
	</g>
	<g>
		<path fill="#252A26" d="M848.857,183.217c-2.65,0.676-5.235,1.447-7.596,2.949c-0.803,0.514-1.397-0.513-1.479-1.352
			c-0.166-1.691-0.996-2.477-2.724-2.371c-0.564,0.037-1.292-0.01-1.41-0.775c-0.129-0.86,0.647-0.758,1.167-1.004
			c2.773-1.3,4.043-3.928,4.851-6.549c0.763-2.479,1.736-4.762,3.199-6.848c1.325-1.887,1.493-5.383,0.392-7.434
			c-1.348-2.506-2.531-5.1-4.509-7.209c-0.431-0.46-0.187-0.896,0.077-1.421c1.354-2.718,3.906-3.687,6.723-2.481
			c0.472,0.203,0.932,0.533,1.495,0.269c1.203,3.169,1.01,6.576,1.724,9.837c1.132,5.174,2.012,10.336,1.724,15.732
			C852.3,178.07,851.64,180.982,848.857,183.217z"/>
	</g>
</g>
</svg>
