<?xml version="1.0" encoding="utf-8"?>
<!-- Generator: Adobe Illustrator 16.0.0, SVG Export Plug-In . SVG Version: 6.00 Build 0)  -->
<!DOCTYPE svg PUBLIC "-//W3C//DTD SVG 1.1//EN" "http://www.w3.org/Graphics/SVG/1.1/DTD/svg11.dtd">
<svg version="1.1" id="Layer_1" xmlns="http://www.w3.org/2000/svg" xmlns:xlink="http://www.w3.org/1999/xlink" x="0px" y="0px"
	 width="1284.129px" height="319.311px" viewBox="0 0 1284.129 319.311" enable-background="new 0 0 1284.129 319.311"
	 xml:space="preserve">
<g>
	<g>
		<path fill="#252A26" d="M471.625,52.978c8.953,0.76,17.915,1.404,26.899,1.646c2.221,0.059,4.306,0.594,6.329,1.436
			c1.403,0.585,1.635,1.554,0.842,2.842c-1.069,1.746-2.717,2.838-4.392,3.844c-5.909,3.55-12.205,6.245-18.989,7.501
			c-5.871,1.087-11.691,0.444-17.325-1.612c-0.764-0.279-1.934-1.116-2.266-0.42c-0.587,1.23-2.913,1.706-1.734,3.785
			c0.598,1.049,0.131,2.248-0.039,3.418c-0.353-0.945-0.706-1.893-1.157-3.096c-1.915,3.327-1.905,6.742-1.854,10.148
			c0.014,0.963,0.549,1.057,1.489,0.896c4.872-0.826,7.109,0.689,8.849,5.368c1.372,3.69,2.405,7.503,4.132,11.074
			c1.102,2.28,2.713,4.167,4.143,6.193c3.806,5.388,5.632,11.645,8.084,17.648c1.388,3.4,1.133,5.479-1.34,8.518
			c-7.447,9.145-14.41,18.687-22.118,27.636c-0.21,0.242-0.352,0.545-0.526,0.818c-1.373,0.736-2.228,2.008-3.207,3.143
			c-1.076,1.25-2.396,1.859-4.001,1.379c-1.811-0.541-3.676-0.869-5.405-1.747c-3.112-1.581-6.108-1.653-8.706,1.156
			c-0.478,0.514-1.101,0.927-1.722,1.272c-0.455,0.254-1.122,0.379-1.474-0.07c-0.459-0.584,0.167-0.922,0.558-1.254
			c0.299-0.254,0.607-0.492,0.917-0.73c1.664-1.297,3.329-2.592,5.174-4.029c-1.793-0.697-2.834,0.292-3.833,1.152
			c-1.409,1.215-2.937,2.193-4.699,2.768c-0.487,0.158-1.102,0.203-1.36-0.435c-0.181-0.45,0.104-0.749,0.526-0.895
			c3.124-1.084,4.806-4.453,8.278-4.983c-1.755-0.523-3.428-0.404-4.924,0.243c-1.026,0.444-1.803,1.445-2.734,2.14
			c-0.36,0.268-0.894,0.469-1.259,0.027c-0.339-0.407,0.103-0.704,0.34-0.997c1.701-2.111,3.413-4.19,6.569-3.838
			c0.583,0.065,1.199,0.037,1.772-0.079c0.642-0.132,0.928-0.596,0.392-1.123c-1.186-1.162-3.827-1.269-5.281-0.293
			c-0.484,0.325-0.972,0.676-1.509,0.885c-0.47,0.182-1.118,0.411-1.484-0.066c-0.457-0.602,0.261-0.951,0.574-1.275
			c0.677-0.697,1.522-1.236,2.18-1.947c0.801-0.861,1.753-0.941,2.714-0.612c2.897,0.989,5.798,1.938,8.788,2.632
			c1.949,0.454,2.772-0.03,2.543-2.006c-0.095-0.817-0.107-1.717-0.696-2.434c-0.448-0.551-0.401-1.248-0.396-1.898
			c0.002-0.423-0.183-1.016,0.416-1.178c0.45-0.12,0.665,0.382,0.89,0.66c0.952,1.182,1.607,2.532,2.014,3.994
			c0.388,1.393,0.622,2.838,1.116,4.191c0.756,2.071,1.895,2.201,3.208,0.451c0.226-0.302,0.289-0.728,0.428-1.092
			c0.97-1.546,1.954-3.085,2.909-4.645c2.993-4.893,6.015-9.771,8.939-14.703c1.034-1.746,1.981-3.578,2.675-5.48
			c0.81-2.215,0.85-4.406-0.663-6.564c-2.313-3.3-4.164-6.912-6.721-10.055c-0.114-1.172-1.128-1.763-1.811-2.469
			c-3.107-3.217-5.991-6.807-10.742-7.752c-0.789-0.16-1.325-0.538-0.93-1.316c0.738-1.461,0.625-3.08,1.022-4.605
			c0.846-3.25,1.544-6.539,2.641-9.742c-0.535,0.375-1.104,0.737-1.291,1.241c-1.287,3.481-2.758,6.921-3.247,10.647
			c-0.438,3.348-0.692,3.436-3.761,4.498c-1.482,0.516-3.021,0.742-4.503,1.301c-2.906,1.094-5.968,1.693-8.894-0.241
			c-0.767-0.509-1.048-0.901-0.666-1.9c0.771-2.023,1.298-4.136,1.927-6.212c-1.731,1.359-2.408,3.234-3.126,5.074
			c-0.266,0.686-0.288,1.545-1.398,1.152c0.06-2.047,0.142-4.092,0.173-6.141c0.026-1.759,0.872-2.942,2.349-3.838
			c2.31-1.398,4.834-2.016,7.478-2.298c2.525-0.271,3.313-0.935,3.584-3.466c0.331-3.111-0.025-6.194-0.734-9.244
			c-0.292-1.256-1.447-1.824-2.087-2.822c-1.534-2.389-2.766-4.912-4.047-7.565c-0.854,0.339-1.106,1.662-2.25,1.552
			c-0.285-0.024-0.694,0.199-0.755-0.316c-0.032-0.285,0.114-0.518,0.411-0.578c1.467-0.297,1.729-1.425,1.947-2.957
			c-0.776,0.866-1.693,1.084-1.9,2.256c-0.151,0.863-0.581-0.691-1.408-0.108c-0.997,0.702-2.517,0.61-4.082-0.079
			c2.202-0.843,3.695-2.195,4.611-4.16c0.446-0.965,0.478-1.458-0.827-1.67c-4.483-0.736-8.865-1.946-13.251-3.117
			c-10.929-2.926-21.405-6.91-30.41-13.948c-4.061-3.175-7.473-7.026-8.888-12.215c-0.744-2.724-0.082-3.802,2.677-4.313
			c3.781-0.698,7.515,0.173,11.241,0.566c6.828,0.72,12.873,3.721,18.705,7.1c5.912,3.421,11.765,6.944,17.935,9.898
			c1.181,0.566,2.417,1.021,3.574,1.627c0.915,0.484,1.226-0.008,1.719-0.654c1.873-2.445,3.674-4.975,5.78-7.209
			c4.975-5.276,13.625-3.625,17.325,2.623c0.566,0.959,1.133,1.918,1.696,2.879c-0.071,0.502-0.216,0.772-0.767,1.102
			c-1.008,0.602-2.517,0.44-3.018,1.871c-0.783,2.227-0.797,2.219-2.838,2.715c-0.372,0.089-0.957,0.039-1.022,0.451
			c-0.199,1.264-1.297,1.305-2.123,1.717c-0.532,0.268-1.111,0.455-1.101,1.223c0.013,0.841,0.69,0.635,1.148,0.737
			c0.423,0.097,0.655,0.308,0.846,0.709c0.932,1.949,1.892,2.166,3.672,0.851c0.784-0.578,1.518-1.256,2.725-0.61
			c-1.099,1.355-2.781,1.964-3.779,3.339c-0.923,1.275-0.773,2.643,0.53,2.76c1.986,0.186,1.121,1.209,0.838,2.129
			c1.838,0.697,3.133,0.188,4.016-1.589c0.732-1.476,1.808-1.659,2.532-0.229c0.829,1.638,1.911,1.358,3.184,1.128
			c0.904-0.164,2.059,0.264,2.4-1.138c0.317-1.308-0.132-2.594-1.064-3.184c-1.044-0.655-1.13-1.733-2.274-2.649
			c1.637,0.127,2.193,1.002,2.858,1.748c0.634,0.713,1.364,0.975,2.265,0.367c0.667-0.449,1.853-0.676,1.476-1.695
			C470.333,54.29,471.042,53.715,471.625,52.978z"/>
	</g>
	<path fill-rule="evenodd" clip-rule="evenodd" fill="#882338" d="M457.359,153.732c-0.139,0.364-0.202,0.79-0.428,1.092
		c-1.313,1.75-2.452,1.62-3.208-0.451c-0.494-1.354-0.729-2.799-1.116-4.191c-0.406-1.462-1.062-2.813-2.014-3.994
		c-0.225-0.278-0.44-0.78-0.89-0.66c-0.599,0.162-0.413,0.755-0.416,1.178c-0.005,0.65-0.052,1.348,0.396,1.898
		c0.589,0.717,0.602,1.616,0.696,2.434c0.229,1.976-0.594,2.46-2.543,2.006c-2.989-0.694-5.89-1.643-8.788-2.632
		c-0.961-0.329-1.914-0.249-2.714,0.612c-0.658,0.711-1.503,1.25-2.18,1.947c-0.313,0.324-1.031,0.674-0.574,1.275
		c0.366,0.478,1.014,0.248,1.484,0.066c0.537-0.209,1.025-0.56,1.509-0.885c1.454-0.976,4.095-0.869,5.281,0.293
		c0.536,0.527,0.25,0.991-0.392,1.123c-0.573,0.116-1.189,0.145-1.772,0.079c-3.156-0.353-4.868,1.727-6.569,3.838
		c-0.237,0.293-0.679,0.59-0.34,0.997c0.365,0.441,0.899,0.24,1.259-0.027c0.931-0.694,1.708-1.695,2.734-2.14
		c1.496-0.647,3.169-0.767,4.924-0.243c-3.473,0.53-5.155,3.899-8.278,4.983c-0.422,0.146-0.707,0.444-0.526,0.895
		c0.258,0.638,0.873,0.593,1.36,0.435c1.762-0.574,3.29-1.553,4.699-2.768c0.999-0.86,2.04-1.85,3.833-1.152
		c-1.846,1.438-3.51,2.732-5.174,4.029c-0.309,0.238-0.618,0.477-0.917,0.73c-0.391,0.332-1.017,0.67-0.558,1.254
		c0.352,0.449,1.02,0.324,1.474,0.07c0.621-0.346,1.244-0.759,1.722-1.272c2.597-2.81,5.594-2.737,8.706-1.156
		c1.729,0.878,3.594,1.206,5.405,1.747c1.605,0.48,2.925-0.129,4.001-1.379c0.979-1.135,1.833-2.406,3.207-3.143
		c2.246,4.986,3.609,10.164,3.332,15.684c-0.28,5.62-0.156,11.232,0.398,16.834c0.05,0.517,0.085,1.109,0.353,1.521
		c1.015,1.567,0.636,2.704-0.908,3.582c-1.736,0.536-3.431,1.178-5.189,1.673c-5.767,1.627-11.511,1.785-17.323,0.42
		c-1.016-0.24-1.896-0.975-3.019-0.797c-2.162-0.703-4.32-1.406-6.48-2.111c-2.33-0.584-4.634-1.527-6.992-1.688
		c-6.082-0.403-12.22,0.194-18.272-0.932c-1.858-0.347-2.24-1.008-1.376-2.968c2.352-5.323,4.435-10.774,6.443-16.243
		c0.902-2.455,1.282-5.086,1.606-7.695c0.145-1.168,0.293-2.336,0.44-3.501c1.015-0.212,1.614-0.593,0.876-1.739
		c-0.287-0.447-0.726-1.175,0.413-1.209c1.65-0.052,0.582-0.936,0.441-1.502c0.642-0.396,1.499,0.282,2.071-0.535
		c-0.454-0.729-0.984-1.398-1.718-1.818c-0.933-0.533-1.477-1.249-1.514-2.33c0.099-0.393,0.196-0.783,0.295-1.176
		c0.645-0.173,1.625,0.363,1.896-0.396c0.232-0.652-0.632-1.131-1.088-1.643c-0.194-0.216-0.241-0.563-0.354-0.848
		c-0.024-2.653,1.175-4.977,1.992-7.404c0.943-2.809,1.623-5.705,1.821-8.643c0.229-3.396,1.34-6.572,2.098-9.829
		c0.483-2.069,0.071-3.804-1.006-5.43c-1.58-2.376-2.326-4.94-2.48-7.774c-0.122-2.228,0.927-3.391,2.716-4.529
		c2.496-1.593,5.405-2.35,7.771-4.136c0.627-0.474,1.216-0.995,1.823-1.497c1.11,0.393,1.132-0.467,1.398-1.152
		c0.718-1.84,1.396-3.715,3.126-5.074c-0.628,2.076-1.156,4.188-1.927,6.212c-0.382,0.999-0.101,1.392,0.666,1.9
		c2.925,1.935,5.987,1.335,8.894,0.241c1.482-0.559,3.021-0.785,4.503-1.301c3.069-1.063,3.324-1.15,3.761-4.498
		c0.489-3.727,1.959-7.166,3.247-10.647c0.187-0.504,0.756-0.866,1.291-1.241c-1.097,3.203-1.795,6.492-2.641,9.742
		c-0.397,1.525-0.284,3.145-1.022,4.605c-0.395,0.778,0.141,1.156,0.93,1.316c4.751,0.945,7.635,4.535,10.742,7.752
		c0.683,0.706,1.696,1.297,1.811,2.469c-0.182,0.632-0.283,1.301-0.556,1.894c-3.344,7.246-7.474,13.98-13.008,19.796
		c-1.508,1.584-2.083,3.539-1.523,5.649C450.838,145,454.11,149.365,457.359,153.732z"/>
	<g>
		<path fill="#252A26" d="M406.554,194.807c6.052,1.126,12.19,0.528,18.272,0.932c2.358,0.16,4.662,1.104,6.992,1.688
			c-2.89,7.916-7.045,15.229-10.77,22.745c-1.455,2.933-2.873,5.886-4.288,8.837c-2.189,4.571-1.736,9.412-1.345,14.215
			c0.479,5.873,0.819,11.74-0.574,17.529c-1.126,4.678-3.039,9.104-4.69,13.615c-1.62,4.431-4.09,8.518-5.02,13.243
			c-0.542,2.751,0.022,5.195,1.839,6.956c2.884,2.797,3.614,5.939,2.488,9.545c-1.268,4.066-1.053,8.221-1.258,12.364
			c-0.04,0.802,0.707,2.315-0.801,2.37c-1.691,0.066-0.814-1.508-0.852-2.274c-0.146-2.97-0.083-5.948-0.115-8.925
			c-0.023-2.146-0.56-2.447-2.619-1.539c-2.787,1.229-4.899,3.292-6.81,5.572c-1.767,2.107-3.462,4.273-5.145,6.451
			c-0.396,0.512-0.757,0.799-1.444,0.796c-5.222-0.022-10.444,0.003-15.667,0.005c-0.388,0.002-0.932,0.037-0.953-0.453
			c-0.027-0.641,0.083-1.295,0.604-1.815c1.462-1.469,3.421-1.88,5.264-2.519c2.135-0.745,4.191-1.561,5.674-3.402
			c1.099-1.357,1.029-3.1,1.643-4.621c2.166-5.355,4.206-10.762,6.362-16.121c1.573-3.908,2.159-8.006,2.539-12.146
			c0.935-10.196,1.829-20.393,2.753-30.592c0.416-4.59-0.611-9.063-1.075-13.582c-0.191-1.861-0.047-3.717,0.246-5.527
			c1.823-11.26,4.514-22.304,8.678-32.955C406.532,195.074,406.531,194.937,406.554,194.807z"/>
	</g>
	<g>
		<path fill="#252A26" d="M438.299,199.537c1.122-0.178,2.003,0.557,3.019,0.797c5.812,1.365,11.556,1.207,17.323-0.42
			c1.758-0.495,3.453-1.137,5.189-1.673c0.565,6.983,1.14,13.966,1.692,20.949c0.147,1.853,0.441,3.671,1.095,5.419
			c1.725,4.609,2.604,9.466,4.179,14.133c2.761,8.178,2.062,16.553,0.684,24.89c-1.047,6.332-3.612,12.211-5.52,18.288
			c-1.176,3.745-3.033,7.322-3.182,11.359c-0.08,2.146,0.738,4.016,1.99,5.671c1.85,2.448,2.806,4.92,0.822,7.745
			c-0.476,0.679-0.549,1.445-0.542,2.258c0.028,3.043,0.028,6.086-0.007,9.126c-0.005,0.446,0.294,1.214-0.53,1.241
			c-1.009,0.032-0.625-0.813-0.63-1.32c-0.027-2.247,0.018-4.496-0.017-6.744c-0.009-0.536,0.188-1.357-0.559-1.478
			c-0.584-0.096-0.67,0.651-0.905,1.104c-1.24,2.383-2.083,4.959-3.696,7.162c-0.651,0.893-1.315,1.35-2.436,1.34
			c-3.901-0.037-7.804,0.012-11.705-0.008c-0.581-0.002-1.201-0.101-1.732-0.32c-1.812-0.762-1.877-1.324-0.622-2.822
			c1.342-1.605,3.008-2.863,4.314-4.536c1.245-1.601,1.844-3.36,2.305-5.166c1.368-5.37,3.564-10.44,5.335-15.664
			c1.315-3.883,1.993-7.913,2.502-11.96c1.3-10.338,1.487-20.695,0.134-31.034c-0.347-2.653-0.722-5.508-2.37-7.675
			c-2.102-2.763-3.523-5.821-4.798-8.961c-2.567-6.33-5.008-12.707-7.197-19.177c-1.156-3.425-2.345-6.84-3.549-10.25
			C438.623,201.066,438.318,200.341,438.299,199.537z"/>
	</g>
	<path fill-rule="evenodd" clip-rule="evenodd" fill="#882338" d="M471.625,52.978c-0.583,0.737-1.292,1.313-0.84,2.536
		c0.376,1.02-0.81,1.246-1.476,1.695c-0.901,0.607-1.631,0.346-2.265-0.367c-0.665-0.746-1.221-1.621-2.858-1.748
		c1.144,0.916,1.23,1.994,2.274,2.649c0.933,0.59,1.382,1.876,1.064,3.184c-0.341,1.401-1.496,0.974-2.4,1.138
		c-1.273,0.23-2.355,0.51-3.184-1.128c-0.724-1.431-1.8-1.247-2.532,0.229c-0.883,1.776-2.178,2.286-4.016,1.589
		c0.283-0.92,1.147-1.943-0.838-2.129c-1.304-0.117-1.453-1.484-0.53-2.76c0.998-1.375,2.68-1.983,3.779-3.339
		c-1.207-0.646-1.941,0.032-2.725,0.61c-1.78,1.315-2.74,1.099-3.672-0.851c-0.191-0.401-0.423-0.612-0.846-0.709
		c-0.458-0.103-1.135,0.104-1.148-0.737c-0.01-0.768,0.569-0.955,1.101-1.223c0.825-0.412,1.924-0.453,2.123-1.717
		c0.065-0.412,0.65-0.362,1.022-0.451c2.042-0.496,2.056-0.488,2.838-2.715c0.5-1.431,2.01-1.27,3.018-1.871
		c0.551-0.329,0.696-0.6,0.767-1.102c0.814-0.764,1.546-0.23,2.03,0.322c0.502,0.572,0.942,0.765,1.671,0.647
		c1.987-0.315,3.4,0.175,3.069,3.051c1.018-1.229,1.929-1.63,2.999-2.006c1.889-0.664,2.796,1.079,3.011,1.677
		c0.421,1.154-0.692,1.957-2.15,1.526c0.064,0.635,0.467,0.47,0.709,0.561c1.684,0.636,1.819,1.157,0.661,2.488
		C472.031,52.318,471.842,52.66,471.625,52.978z"/>
</g>
<g>
	<path fill="#252A26" d="M415.089,155.299c0.04,1.167,0.627,1.942,1.636,2.519c0.792,0.452,1.366,1.177,1.856,1.965
		c-0.619,0.882-1.543,0.151-2.238,0.578c0.151,0.611,1.307,1.567-0.477,1.623c-1.23,0.037-0.756,0.823-0.446,1.307
		c0.797,1.241,0.15,1.651-0.949,1.881c-0.111-0.425-0.271-0.823-0.722-0.989c-0.66-0.243-1.515-0.363-1.53-1.246
		c-0.016-0.912,1.062-0.753,1.573-1.271c-0.77-0.213-1.515-0.369-2.228-0.622c-0.719-0.258-1.878,0.086-1.886-1.239
		c-0.007-1.188,1.02-1.167,1.786-1.439c-0.062-0.149-0.08-0.345-0.17-0.39c-1.02-0.5-2.352-1.014-2.083-2.307
		c0.293-1.412,1.772-0.784,2.742-0.813C413.001,154.822,414.104,154.752,415.089,155.299z"/>
</g>
<g>
	<path fill="#252A26" d="M415.898,150.907c0.123,0.309,0.174,0.683,0.383,0.916c0.493,0.554,1.428,1.07,1.177,1.775
		c-0.292,0.821-1.353,0.241-2.049,0.428c-0.831-0.916-2.167-0.812-3.104-1.557c-0.457-0.362-1.014-0.581-0.799-1.271
		c0.19-0.609,0.773-0.517,1.244-0.498C413.801,150.745,414.849,150.836,415.898,150.907z"/>
</g>
</svg>
