<?xml version="1.0" encoding="utf-8"?>
<!-- Generator: Adobe Illustrator 16.0.0, SVG Export Plug-In . SVG Version: 6.00 Build 0)  -->
<!DOCTYPE svg PUBLIC "-//W3C//DTD SVG 1.1//EN" "http://www.w3.org/Graphics/SVG/1.1/DTD/svg11.dtd">
<svg version="1.1" id="Layer_1" xmlns="http://www.w3.org/2000/svg" xmlns:xlink="http://www.w3.org/1999/xlink" x="0px" y="0px"
	 width="1284.129px" height="319.311px" viewBox="0 0 1284.129 319.311" enable-background="new 0 0 1284.129 319.311"
	 xml:space="preserve">
<g>
	<g>
		<path fill="#252A26" d="M587.312,198.151c-0.794,0.662-1.615,1.66-2.671,2.168c-4.523,2.176-9.102-0.583-9.358-5.636
			c-0.208-4.05-0.048-8.054,1.145-12.022c0.47-1.559-0.144-3.422-0.159-5.146c-0.01-1.284,0.119-2.571,0.24-3.854
			c0.846-8.838,1.733-17.672,2.557-26.512c0.606-6.535,0.94-13.106,1.768-19.611c0.631-4.976,1.852-9.875,2.794-14.809
			c0.094-0.491,0.135-1.013,0.08-1.507c-0.976-8.568-0.792-17.019,2.549-25.148c0.08-0.196,0.157-0.427,0.14-0.632
			c-0.321-4.041,2.101-5.82,5.487-7.117c4.244-1.621,8.397-3.492,12.53-5.381c1.618-0.742,3.209-1.666,4.583-2.791
			c2.591-2.121,2.668-3.621,1.203-6.566c-0.655-1.322-0.702-2.934-1.226-4.336c-0.227-0.607-0.94-1.049-1.466-1.529
			c-0.554-0.511-1.416-0.867-1.667-1.484c-0.621-1.521-1.075-3.137-1.404-4.754c-0.526-2.568-0.27-2.821,2.47-2.889
			c-0.747-2.076-1.355-4.156-2.232-6.113c-1.36-3.03-1.184-5.711,0.693-8.564c3.018-4.59,7.125-6.422,12.53-6.691
			c3.661-0.182,6.449,0.984,9.483,2.709c2.243,1.273,4.56,2.146,6.259,4.29c1.446,1.821,2.022,3.61,1.354,5.804
			c-0.653,2.143-1.321,4.277-1.98,6.416c0.714,0.09,1.683-0.073,2.062,0.326c0.533,0.561,0.9,1.553,0.854,2.332
			c-0.109,1.859-0.42,3.717-0.825,5.542c-0.141,0.624-0.745,1.563-1.231,1.63c-2.574,0.326-2.267,2.341-2.552,4.008
			c-0.104,0.635-0.062,1.297-0.058,1.947c0.021,3.538,1.483,5.313,5.051,6.024c3.686,0.731,7.387,1.396,11.082,2.097
			c0.072,0.014,0.143,0.023,0.214,0.039c8.945,1.959,11.091,3.907,14.758,12.348c2.848,6.553,3.816,13.482,4.511,20.45
			c0.89,8.936,3.758,17.335,6.345,25.83c0.285,0.938,0.491,1.949,0.49,2.929c-0.01,3.287-0.312,6.584-0.168,9.863
			c0.264,5.836,0.791,11.658,1.165,17.49c0.18,2.881,0.434,5.777,0.313,8.652c-0.079,1.865-0.897,3.683-1.162,5.552
			c-0.158,1.147-0.222,2.501,0.234,3.509c1.334,2.965,0.221,5.855,0.033,8.764c-0.033,0.547-0.77,1.197-1.334,1.54
			c-2.881,1.741-5.79,3.442-8.744,5.046c-0.617,0.334-1.482,0.207-2.232,0.292c0.083-0.83,0.167-1.662,0.248-2.495
			c-0.129,0.018-0.257,0.039-0.389,0.059c-0.105-1.262-0.268-2.527-0.301-3.794c-0.053-1.899-0.014-3.806-0.014-5.878
			c-2.007,0.58-2.606,1.543-2.66,3.274c-0.117,3.816-0.571,7.612-0.782,11.421c-0.267,4.829-0.384,9.668-0.66,14.498
			c-0.193,3.459-0.438,6.922-0.857,10.357c-0.448,3.662-0.851,7.219,0.458,10.863c0.431,1.199-0.416,2.859-0.689,4.308
			c-0.259,1.376-0.537,2.751-0.789,4.124c-0.063,0.346,0.006,0.725-0.104,1.045c-1.005,2.979-2.06,5.935-3.061,8.912
			c-1.414,4.217-3.431,8.065-6.536,11.32c-0.886,0.934-1.906,2.012-2.188,3.182c-1.229,5.08-3.937,9.766-3.903,15.181
			c0.018,2.89-0.134,5.788-0.403,8.664c-0.464,4.989-1.341,9.951-1.547,14.948c-0.171,4.139-2.002,8.194-0.6,12.416
			c0.408,1.231-0.219,2.109-1.515,2.385c-0.989,0.209-1.985,0.436-2.988,0.507c-2.812,0.189-5.625,0.343-8.441,0.429
			c-2.276,0.072-3.015-1.016-2.433-3.134c0.794-2.901,1.631-5.804,2.109-8.763c0.204-1.273-0.294-2.739-0.751-4.016
			c-0.558-1.554-1.72-2.928-2.081-4.502c-2.054-8.93-5.594-17.457-6.742-26.643c-0.832-6.653-2.523-13.193-3.6-19.823
			c-0.772-4.759-1.245-9.574-1.679-14.38c-0.152-1.691,0.207-3.432,0.334-5.147c0.038-0.501,0.211-1.03,0.101-1.493
			c-1.521-6.527-2.214-13.242-4.906-19.497c-2.878-6.693-3.924-13.877-5.016-21.021c-0.323-2.109-0.538-4.236-0.971-6.318
			c-0.381-1.828-1.669-1.117-2.729-0.718c-1.589,0.598-3.109,1.546-4.747,1.812c-2.093,0.336-2.925-0.906-2.647-3.041
			c0.118-0.928-0.097-1.896-0.163-2.848c-0.467,0.047-1.326,0.029-1.346,0.152c-0.154,0.918-0.388,1.94-0.141,2.796
			c1.249,4.298,2.637,8.55,3.978,12.82c0.085,0.274,0.298,0.579,0.243,0.817c-0.25,1.068-0.394,2.242-0.98,3.102
			C589.729,198.831,588.352,198.324,587.312,198.151z M618.234,50.497c0.462,0.488,1.019,0.924,1.371,1.482
			c0.939,1.475,1.537,3.262,2.733,4.455c1.686,1.682,5.705,0.585,6.44-1.525c0.53-1.521,0.984-3.063,1.383-4.318
			c-0.389,0-1.047,0.189-1.516-0.029c-3.473-1.611-6.926-0.326-10.385-0.035c-2.232,0.109-4.514-0.021-6.677,0.422
			c-1.078,0.222-2.709,1.437-2.763,2.285c-0.187,2.997,2.182,4.821,5.224,4.506c2.425-0.254,4.24-2.868,3.88-5.465
			C617.847,51.706,618.122,51.091,618.234,50.497z M631.824,252.478c3.054-0.968,4.129-3.286,4.175-6.506
			c0.028-1.916,0.317-4.019,1.167-5.693c2.146-4.229-0.421-8.055-0.697-12.04c-0.251-3.622-1.563-7.157-2.045-10.776
			c-0.3-2.258-0.497-4.369-1.974-6.263c-0.602-0.772-0.72-2-0.854-3.045c-0.499-3.823-0.91-7.655-1.355-11.484
			c-0.207,0.019-0.415,0.036-0.621,0.058c-0.398,2.923-0.766,5.848-1.198,8.764c-0.956,6.418-0.619,12.838,0.236,19.213
			c0.598,4.441,1.455,8.822,0.541,13.318c-0.139,0.68-0.04,1.445,0.098,2.141C630.113,244.261,630.972,248.346,631.824,252.478z
			 M628.324,106.674c0.316-0.024,0.632-0.046,0.947-0.07c0.658-2.648,1.504-5.269,1.935-7.955
			c0.904-5.635,1.723-11.288,2.323-16.963c0.545-5.16-0.08-10.219-2.35-14.937c-2.712,2.891-5.389,5.743-7.971,8.492
			c0.912,0.436,1.816,0.863,2.889,1.372c-0.464,0.59-0.654,0.897-0.9,1.136c-1.462,1.407-2.047,3.887-0.702,5.169
			c2.144,2.038,1.858,4.499,2.076,7.001C627.059,95.512,627.729,101.089,628.324,106.674z M618.067,106.009
			c0-6.416-0.07-12.622,0.048-18.822c0.029-1.613,0.273-3.436,1.075-4.77c1.244-2.073,1.565-3.664-0.841-5.145
			c0.753-0.664,1.359-1.195,1.739-1.527c-2.994-2.236-5.946-4.442-8.968-6.694c-1.629,2.448-1.101,5.512-0.787,8.489
			c0.983,9.334,4.193,18.113,6.937,27.004C617.426,105.052,617.782,105.497,618.067,106.009z M597.341,124.571
			c-0.488,14.953-4.447,29.37-6.513,44.117C598.538,154.739,600.878,140.063,597.341,124.571z M657.267,134.437
			c0.196-0.055,0.391-0.109,0.587-0.164c-0.491-2.053-0.986-4.107-1.481-6.156c-0.153,0.033-0.313,0.07-0.466,0.106
			C656.359,130.296,656.812,132.364,657.267,134.437z"/>
	</g>
	<path fill-rule="evenodd" clip-rule="evenodd" fill="#FFFFFF" d="M628.324,105.747c-0.595-5.582-1.266-11.16-1.754-16.756
		c-0.218-2.501,0.068-4.96-2.076-7c-1.346-1.281-0.761-3.763,0.702-5.166c0.247-0.241,0.437-0.549,0.9-1.139
		c-1.072-0.508-1.977-0.935-2.889-1.37c2.582-2.749,5.259-5.601,7.971-8.493c2.27,4.717,2.896,9.775,2.35,14.936
		c-0.6,5.675-1.419,11.33-2.323,16.965c-0.431,2.686-1.277,5.307-1.935,7.953C628.957,105.702,628.64,105.724,628.324,105.747z"/>
	<path fill-rule="evenodd" clip-rule="evenodd" fill="#FFFFFF" d="M618.067,105.084c-0.285-0.512-0.641-0.956-0.797-1.466
		c-2.744-8.891-5.953-17.671-6.937-27.005c-0.314-2.976-0.843-6.041,0.787-8.487c3.021,2.25,5.974,4.455,8.968,6.693
		c-0.379,0.332-0.986,0.865-1.739,1.526c2.406,1.482,2.084,3.073,0.841,5.146c-0.802,1.334-1.046,3.157-1.075,4.77
		C617.997,92.458,618.067,98.666,618.067,105.084z"/>
	<path fill-rule="evenodd" clip-rule="evenodd" fill="#FFFFFF" d="M618.26,49.604c3.459-0.294,6.913-1.58,10.385,0.032
		c0.469,0.217,1.126,0.029,1.516,0.029c-0.399,1.254-0.854,2.797-1.383,4.316c-0.735,2.111-4.754,3.21-6.44,1.527
		c-1.196-1.194-1.794-2.981-2.733-4.457c-0.352-0.558-0.908-0.99-1.371-1.48L618.26,49.604z"/>
	<path fill-rule="evenodd" clip-rule="evenodd" fill="#FFFFFF" d="M618.234,49.571c-0.112,0.592-0.387,1.209-0.31,1.776
		c0.36,2.597-1.456,5.212-3.88,5.465c-3.042,0.315-5.411-1.509-5.224-4.505c0.054-0.85,1.685-2.064,2.763-2.285
		c2.164-0.441,4.445-0.315,6.677-0.424C618.26,49.604,618.234,49.571,618.234,49.571z"/>
</g>
</svg>
