<?xml version="1.0" encoding="utf-8"?>
<!-- Generator: Adobe Illustrator 16.0.0, SVG Export Plug-In . SVG Version: 6.00 Build 0)  -->
<!DOCTYPE svg PUBLIC "-//W3C//DTD SVG 1.1//EN" "http://www.w3.org/Graphics/SVG/1.1/DTD/svg11.dtd">
<svg version="1.1" id="Layer_1" xmlns="http://www.w3.org/2000/svg" xmlns:xlink="http://www.w3.org/1999/xlink" x="0px" y="0px"
	 width="1284.129px" height="302.311px" viewBox="0 0 1284.129 302.311" enable-background="new 0 0 1284.129 302.311"
	 xml:space="preserve">
<path fill-rule="evenodd" clip-rule="evenodd" fill="#1A3C47" d="M478.498,230.064c-0.275-0.685-0.045-1.35,0.188-2.012
	c0.946-2.685,0.225-5.116-1.128-7.465c-2.94-5.104-7.212-8.903-11.913-12.31c-1.373-0.995-2.829-1.962-3.381-3.763
	c-0.119-0.39-0.624-0.745-1.034-0.948c-6.432-3.167-11.881-8.082-18.67-10.588c-3.676-1.356-7.206-2.976-10.271-5.399
	c-1.781-1.408-3.552-2.598-5.576-3.686c-2.277-1.224-4.922-0.996-6.924-2.583c-0.639-0.506-1.46-0.17-1.89,0.299
	c-1.946,2.125-3.5,0.405-4.902-0.602c-0.854-0.614-1.604-1.086-2.633-1.357c-0.821-0.217-1.909-0.082-2.424-1.214
	c-0.337-0.74-1.231-0.398-1.885-0.396c-2.635,0.009-5.261,0.389-7.532-1.677c-1.211-1.102-3.088-0.479-4.611-0.58
	c-3.889-0.256-7.184-2.168-10.726-3.337c-2.825-0.934-5.532-2.299-8.273-3.479c-2.461-1.06-2.829-2.762-2.604-4.675
	c0.462-3.927-0.699-7.63-1.095-11.434c-0.066-0.637-0.251-1.219,0.483-1.593c0.595-0.304,1.518-0.459,1.464-1.267
	c-0.112-1.689,0.732-3.212,0.677-4.863c-0.014-0.424-0.31-0.776-0.723-0.938c-1.894-0.744-1.771-2.486-1.76-3.975
	c0.016-2.123,0.331-4.247,0.578-6.364c0.1-0.853,0.079-1.679-0.354-2.402c-1.627-2.718-0.975-5.889-1.769-8.709
	c-0.818-2.906,0.379-6.228-1.36-8.676c-2.508-3.532-2.841-7.665-4.081-11.537c-0.916-2.863-1.555-5.838-1.399-8.896
	c0.053-1.036-0.424-1.745-1.25-2.2c-1.2-0.661-1.731-1.638-1.881-2.978c-0.1-0.895-0.082-2.177-1.532-1.952
	c-1.33,0.206-1.706,1.256-1.59,2.49c0.036,0.385,0.167,0.761,0.354,1.578c-3.438-1.821-7.176-1.674-10.265-3.558
	c-2.26-1.378-5.035-1.173-7.318-2.488c-0.573-0.331-1.38-0.024-1.611,0.557c-0.292,0.733,0.637,0.685,1.007,1.004
	c0.154,0.132,0.407,0.172,0.521,0.324c3.224,4.322,8.327,5.592,12.849,7.689c3.869,1.795,5.191,4.948,5.596,8.65
	c0.342,3.141,0.659,6.313,0.511,9.498c-0.036,0.794-0.034,1.435-0.981,1.774c-0.87,0.313-0.962,1.223-0.681,1.94
	c1.479,3.776,0.721,7.45-0.26,11.169c-0.291,1.103-0.428,2.43-0.091,3.479c0.869,2.706-0.375,5.666,1.193,8.273
	c0.475,0.79-0.092,1.744-0.329,2.603c-0.382,1.383-0.235,2.562,1.489,3.329c-2.478,0.912-2.946,3.063-3.96,4.988
	c-1.229,2.333-0.311,4.097,0.505,6.022c0.271,0.64,0.05,1.027-0.252,1.504c-0.341,0.539-0.688,1.284-0.176,1.718
	c1.388,1.176,0.521,2.341,0.147,3.499c-1.395,4.318-4.104,8.057-5.48,12.397c-0.362,1.142-1.225,1.448-2.384,0.533
	c-1.398-1.103-2.87-2.136-4.518-2.886c-0.619-0.282-0.92-0.804-1.13-1.567c-0.632-2.299-1.562-4.498-3.475-6.095
	c0.583-0.431,1.475-0.349,1.971-1.324c-2.63-0.005-5.171-0.121-7.53-0.969c-2.146-0.77-4.003-2.362-6.404-2.427
	c-4.037-0.108-8.052-0.007-11.384,2.772c-1.147,0.958-2.189,1.894-3.729,2.417c-1.522,0.518-2.124,2.471-2.97,3.785
	c-1.913,2.972-3.407,6.236-4.688,9.563c-0.192,0.501-0.296,1.061,0.105,1.687c0.795-1.916,1.788-3.61,3.157-5.147
	c1.387,3.625,0.732,5.225-2.624,6.852c-0.418,0.202-1.754-0.207-0.863,1.336c0.32,0.553-1.114-0.015-1.748-0.105
	c0.937,2.227,3.08,1.603,7.214-2.2c0.083,1.761,0.015,3.227-1.839,3.922c-1.081,0.405-1.466,1.33-1.79,2.814
	c1.088-1.411,2.096-2.305,3.202-2.76c2.645,4.109-0.623,7.259-2.216,10.709c0.179,0.047,0.357,0.095,0.536,0.142
	c0.263-0.42,0.525-0.84,0.944-1.508c0.251,1.669-0.704,3.309,0.659,4.578c0.57-0.819-0.661-1.479,0.047-2.229
	c1.387,1.685,0.893,3.916,1.44,5.864c0.107,0.383-0.271,0.639-0.66,0.359c-0.85-0.609-1.421-0.122-1.726,0.554
	c-0.296,0.654-0.003,1.27,0.53,1.851c0.451,0.493,1.777-0.078,1.467,0.965c-0.271,0.911-1.252,1.395-2.308,1.422
	c-0.197,0.006-0.395,0.078-0.687,0.14c1.271,1.098,2.451,0.418,3.687-0.246c-0.202,1.177-1.403,0.81-1.634,1.602
	c1.601,0.528,2.279-1.238,3.76-1.58c-0.031,1.205-0.87,1.573-1.565,1.984c-0.727,0.43-1.319,0.945-1.745,1.68
	c-0.517,0.893-0.584,1.649,0.724,2.425c-0.396-1.612,0.025-2.616,1.369-3.225c1.031-0.467,3.077,0.077,3.555,1.12
	c0.474,1.035-0.79,0.414-0.911,1.03c1.04,0.281,1.923,0.748,1.141,2.089c-0.688,1.182,0.81,2.927-0.985,3.847
	c-0.254,0.131,0.024,0.469,0.092,0.456c1.607-0.308,1.552,1.346,2.563,2.23c-0.368-1.516-0.386-2.757,0.274-4.249
	c0.552,1.521,0.572,2.765,0.304,4.026c-0.261,1.228-0.314,2.47-0.186,3.705c0.211,2.02,1.174,2.773,3.292,2.693
	c-2.074-0.825-3.75-4.607-2.201-5.587c1.187-0.75,0.415-2.72,2.027-2.406c2.959,3.055,4.617,6.601,3.604,10.995
	c0.239-0.034,0.4-0.011,0.501-0.078c1.715-1.155-0.715-2.794,0.634-4.32c1.284-1.453-0.259-2.839-1.371-4
	c-1.622-1.695-1.838-2.812-0.942-5.074c0.561,2.995,4.556,4.022,3.258,8.021c1.733-1.789,0.875-3.151,0.227-4.425
	c-0.755-1.483-1.653-2.891-0.991-4.874c0.337,1.576,1.017,2.81,1.961,3.9c1.446,1.671,1.365,3.225-0.067,4.964
	c-2.345,2.842-2.265,2.896,0.62,5.516c0.655,0.595,1.675,1.176,0.341,2.246c1.533-0.326,1.858-0.988,0.92-2.201
	c-0.794-1.025-2.457-1.504-2.55-2.828c-0.09-1.299,1.764-1.541,2.326-2.706c1.227-2.543,1.271-5.203,0.708-7.835
	c-0.347-1.622-0.231-2.979,0.258-4.577c0.563-1.841,0.336-3.914,1.105-5.777c0.243-0.591,0.237-1.605,1.106-1.372
	c0.746,0.2,0.673,1.164,0.457,1.818c-0.212,0.644-0.624,1.223-0.963,1.821c-1.781,3.147-1.513,5.603,0.925,8.38
	c0.04-0.128,0.151-0.312,0.103-0.376c-2.274-3.028-1.056-5.629,0.913-8.204c0.919-1.204,0.765-2.852,1.343-4.231
	c0.975,2.702,0.806,5.156-1.075,7.378c-0.56,0.661-0.447,1.563-0.369,2.397c0.179,1.918,0.288,3.818-1.498,5.196
	c1.729-0.751,2.48-2.146,2.13-3.876c-0.326-1.613,0.114-2.765,1.156-3.931c1.413-1.581,1.813-3.443,1.407-5.577
	c-0.43-2.243,0.62-4.402,0.733-6.664c0.091-1.826,0.735-1.794,0.93-3.255c1.157,2.695-0.233,5.917,1.982,8.771
	c-1.186-4.569,0.165-8.559,1.37-12.42c2.07,2.212,2.416,5.295,0.88,8.003c-2.12,3.737-2.994,7.921-4.053,12.02
	c-0.32,1.239,0.123,2.439,0.865,3.67c1.384,2.297,2.616,4.635,3.007,7.496c0.369,2.707,0.924,5.45,1.514,8.154
	c0.086,0.394,0.271,0.834,0.173,1.187c-0.93,3.359-0.494,6.791-0.579,10.191c-0.072,2.885-0.677,5.8-0.647,8.584
	c0.05,4.95-0.662,9.904-0.091,14.833c0.171,1.479-0.38,2.954-0.055,4.29c1.217,4.983-0.41,10.025,0.527,15.046
	c0.289,1.548,0.083,3.547-0.729,5.354c-0.521,1.158-0.203,3.021,0.39,4.256c0.547,1.14,0.112,0.964-0.575,1.002
	c-3.076,0.172-6.136,0.469-9.131,1.233c-0.586,0.149-1.662-0.43-1.638,0.618c0.021,0.91,0.577,1.891,1.729,1.992
	c1.576,0.141,3.16,0.19,4.742,0.249c0.885,0.033,1.772,0.006,2.663,0.124c-0.073,0.031-0.148,0.051-0.223,0.077
	c1.89-0.07,3.769-0.061,5.636,0.074c0.024-0.356,0.434-0.746,1.241-1.386c1.409-1.116,4.091-1.177,5.444-0.015
	c0.296,0.254,0.748,0.478,1.036,0.773c0.183,0.006,0.348,0.035,0.524,0.05c0.37-0.04,0.752-0.065,1.148-0.065
	c1.359,0,2.555,0.254,3.598,0.688c0.067-0.171,0.12-0.354,0.148-0.556c0.115-0.832-0.644-0.904-1.144-1.226
	c-0.951-0.611-2.583-0.228-2.638-2.194c-0.035-1.237-1.174-2.702-1.042-3.643c0.192-1.385-0.431-2.342-0.579-3.497
	c-0.207-1.606-1.956-2.694-1.646-4.326c0.546-2.867,1.187-5.745,2.134-8.499c0.997-2.895,2.484-5.616,3.608-8.473
	c2.015-5.113,1.845-10.591,1.944-15.902c0.149-8.086,0.955-16.007,2.914-23.851c0.475-1.9,1.245-2.553,3.064-2.219
	c2.627,0.482,5.18,0.274,7.69-0.719c0.667-0.264,1.51-0.232,2.247-0.14c3.995,0.507,5.494-1.573,6.621-4.585
	c1.566-4.188,3.764-8.012,5.807-11.938c0.521-1.002,1.305-1.398,2.395-1.695c3.048-0.832,6.184-0.074,9.233-0.713
	c1.995-0.417,3.276,0.992,3.255,3.092c-0.044,4.341,1.037,5.564,3.92,6.461c0.664,0.206,1.088,0.702,1.481,1.288
	c1.907,2.839,3.864,5.645,5.806,8.46c0.617,0.895,1.193,1.477,1.313-0.705c1.249,3.623,3.956,5.392,6.289,7.501
	c2.156,1.951,6.458,1.063,7.618-1.606c0.555-1.277,0.795-2.704,1.714-3.922c1.018,2.115,2.241,2.745,3.992,1.764
	c2.133-1.196,3.705-0.321,5.463,0.793c2.956,1.874,4.306,5.31,7.226,7.188c0.755,0.486,0.421,1.131,0.015,1.589
	c-1.386,1.563-2.24,3.455-3.358,5.182c-0.729,1.124-1.741,2.821-2.904,2.649c-3.004-0.443-3.55,1.741-4.61,3.488
	c-0.212,0.35,0.028,1.174-0.742,0.879c-1.682-0.643-3.419-0.141-5.117-0.393c-3.531-0.524-4.087-0.073-5.004,3.347
	c-0.824,3.075-0.749,6.267-1.354,9.369c-0.248,1.273-0.521,1.646-1.948,1.168c-4.53-1.517-6.66-0.438-8.581,3.951
	c-1.648,3.765-2.606,7.809-4.637,11.417c-1.413,2.513-3.028,4.96-3.873,7.716c-1.91,6.229-3.027,12.432,1.522,17.917
	c2.299-0.366,4.619-0.609,6.953-0.751c0.169-0.189,0.361-0.381,0.595-0.575c0.5-0.416,0.829-1.094,1.106-1.711
	c0.847-1.886,1.965-3.307,3.854-4.492c2.625-1.648,4.801-4.02,7.128-6.128c0.856-0.775,1.671-1.307,2.926-1.043
	c1.307,0.274,2.618-0.12,3.855-0.511c1.975-0.625,2.235-2.199,0.673-3.574c-0.205-0.182-0.499-0.282-0.659-0.49
	c-0.448-0.583-2.073-0.331-1.375-1.687c0.914-1.773,2.085-2.142,3.519-1.169c2.396,1.627,4.941,2.473,7.896,2.592
	c2.291,0.093,4.517,1.033,6.69,1.883c1.081,0.422,1.82,0.231,2.527-0.931c4.497-7.39,9.243-14.632,13.628-22.087
	c4.073-6.926,8.223-13.865,11.51-21.173C479.117,239.438,480.379,234.729,478.498,230.064z M423.678,229.98
	c-0.342,0.507-0.661-0.042-0.914-0.307c-0.697-0.732-1.381-1.478-2.135-2.287c1.166,0.119,1.896,0.902,2.827,1.245
	C424.267,228.931,423.903,229.645,423.678,229.98z M422.712,226.433c-1.595,0.285-4.632-1.901-5.062-3.656
	c2.299,0.49,4.645,0.394,7.007,1.547C423.802,224.966,423.816,226.235,422.712,226.433z"/>
</svg>
