<?xml version="1.0" encoding="utf-8"?>
<!-- Generator: Adobe Illustrator 16.0.0, SVG Export Plug-In . SVG Version: 6.00 Build 0)  -->
<!DOCTYPE svg PUBLIC "-//W3C//DTD SVG 1.1//EN" "http://www.w3.org/Graphics/SVG/1.1/DTD/svg11.dtd">
<svg version="1.1" id="Layer_1" xmlns="http://www.w3.org/2000/svg" xmlns:xlink="http://www.w3.org/1999/xlink" x="0px" y="0px"
	 width="1284.129px" height="302.311px" viewBox="0 0 1284.129 302.311" enable-background="new 0 0 1284.129 302.311"
	 xml:space="preserve">
<path fill-rule="evenodd" clip-rule="evenodd" fill="#1A3C47" d="M948.994,139.48c-0.064-1.925-1.865-2.804-2.547-4.351
	c-0.43-0.979-1.496-1.039-2.262-1.53c-1.27-0.815-2.617-1.507-3.932-2.254c-0.844-0.479-1.709-0.926-2.52-1.452
	c-0.959-0.617-1.861-1.316-2.799-1.966c-1.094-0.756-2.205-1.486-3.297-2.244c-0.781-0.544-1.572-1.081-2.299-1.692
	c-0.295-0.248-0.43-0.686-0.664-1.08c-0.613-0.421-1.371-0.851-2.012-1.416c-0.352-0.312-0.445-0.897-0.754-1.279
	c-0.512-0.633-1.139-1.172-1.646-1.809c-0.35-0.44-0.521-1.023-0.877-1.455c-0.359-0.436-0.813-0.392-1.088,0.148
	c-0.779,1.535-0.783,1.555-2.295,0.73c-0.553-0.303-1.014-0.789-1.584-1.04c-0.773-0.343-1.598-0.601-2.422-0.789
	c-1.969-0.447-3.883-0.969-5.223-2.646c-0.684-0.857-1.604-1.291-2.646-1.589c-0.842-0.241-1.623-0.684-2.439-1.009
	c-0.242-0.098-0.518-0.128-0.781-0.145c-0.904-0.05-1.289-0.598-1.348-1.423c-0.084-1.204-0.486-1.71-1.664-1.582
	c-1.447,0.159-2.236-0.774-3.154-1.559c-1.484-1.27-2.955-2.556-4.479-3.776c-0.195-0.158-0.676,0.009-1.018,0.066
	c-0.508,0.084-1.016,0.299-1.504,0.255c-0.141-0.013-0.291-0.721-0.311-1.116c-0.027-0.647-0.24-0.947-0.906-1.214
	c-0.99-0.396-1.85-1.11-2.791-1.647c-0.484-0.274-1.035-0.427-1.527-0.686c-0.871-0.462-1.898-0.794-2.543-1.479
	c-1.428-1.52-3.027-2.403-5.135-2.179c-1.992,0.211-3.986,0.44-5.973,0.706c-0.502,0.067-1.016,0.502-1.461,0.423
	c-1.381-0.244-2.732-0.652-4.094-0.996c-0.098-0.023-0.197-0.037-0.293-0.052c-1.41-0.216-2.82-0.432-4.297-0.657v-2.592
	c0.789,0.198,1.484,0.375,2.359,0.596c-0.238-0.693-0.467-1.366-0.74-2.163c-0.42-0.039-0.945-0.089-1.203-0.113
	c-0.535-0.615-0.928-1.07-1.408-1.622c0.289-0.585,0.871-1.385-0.195-2.163c-0.145-0.105-0.082-0.815,0.115-0.999
	c0.492-0.46,0.391-0.763,0.084-1.282c-0.35-0.593-0.615-1.197,0.121-1.921c0.484-0.477,0.521-1.403-0.316-1.959
	c0.211-0.225,0.383-0.403,0.557-0.584c-0.539-0.482-0.471-1.357,0.26-2.045c0.396-0.372,0.215-0.454,0.037-0.837
	c-0.398-0.856-1.123-1.571-0.996-2.706c0.059-0.562-0.516-1.193-0.834-1.858c0.084-0.038,0.385-0.071,0.479-0.229
	c0.201-0.34,0.383-0.741,0.395-1.123c0.006-0.158-0.428-0.448-0.684-0.476c-0.73-0.08-1.252-0.287-1.098-1.181
	c-0.398-0.088-0.721-0.16-1.109-0.244c-0.041-0.722-0.084-1.45-0.127-2.177c-0.084,0.062-0.166,0.12-0.25,0.182
	c-0.525-0.589-1.012-1.216-1.588-1.75c-0.303-0.281-0.846-0.318-1.123-0.613c-0.453-0.475-0.813-1.048-1.143-1.62
	c-0.467-0.811-0.961-0.587-1.293-0.307c-2.234-0.434-4.297-0.831-6.365-1.232c-0.908,0.452-1.941,0.966-2.975,1.48
	c-0.943-0.538-1.891-0.894-2.895-0.142c-0.045,0.036-0.145,0.068-0.18,0.042c-1.549-1.102-1.842,0.672-2.707,1.148
	c-0.375,0.206-0.566,0.733-1.287,0.517c-0.543-0.165-1.311,0.209-1.91,0.491c-0.58,0.273-1.199,0.623-1.033,1.503
	c0.035,0.192-0.164,0.548-0.352,0.646c-1.59,0.835-2.137,2.171-2.076,3.899c0.021,0.654-0.201,1.318-0.34,2.146
	c0.416,0.292,0.803,0.784-0.125,1.35c-0.025,0.015-0.057,0.045-0.061,0.07c-0.197,1.446-0.496,2.889-0.543,4.34
	c-0.027,0.866,0.406,1.739,0.518,2.621c0.129,1.012-0.568,1.754-1.008,2.581c-0.342,0.645-0.654,1.332-0.811,2.038
	c-0.201,0.91-0.039,1.724,1.465,1.638c-0.268,0.787-0.535,1.392-0.664,2.022c-0.059,0.288,0.094,0.661,0.25,0.942
	c0.178,0.324,0.465,0.588,0.713,0.89c-0.34,0.425-0.678,0.846-1.156,1.448c0.539,0.262,1.064,0.453,1.512,0.755
	c0.316,0.216,0.613,0.542,0.773,0.886c0.293,0.624,0.484,1.293,0.703,1.948c0.293,0.873,0.828,1.341,1.805,1.405
	c1.408,0.089,2.639-0.269,3.75-1.119c0.141-0.107,0.391-0.061,0.58-0.12c0.479-0.15,0.955-0.305,1.424-0.484
	c0.887-0.341,1.574,0.05,2.121,0.663c0.912,1.027,0.84,1.526-0.246,2.698c-0.537,0.578-1.066,1.167-1.621,1.726
	c-0.117,0.117-0.365,0.216-0.508,0.174c-1.389-0.394-1.869,0.654-2.424,1.529c-0.383,0.604-0.805,1.073-1.582,0.941
	c-0.748-0.127-1.006,0.521-1.463,0.856c-0.189,0.138-0.383,0.304-0.6,0.359c-0.871,0.23-1.771,0.365-2.623,0.653
	c-0.369,0.124-0.643,0.53-0.951,0.817c-0.111,0.104-0.188,0.32-0.299,0.337c-1.68,0.223-3.361,0.422-5.111,0.636
	c-0.07-0.399-0.125-0.717-0.184-1.044c-1.146-0.733-1.943,0.32-2.85,0.631c-0.891,0.307-1.393,1.167-1.918,1.972
	c-0.166,0.25-1.084,0.157-1.588,0.001c-0.629-0.191-1.18-0.621-1.773-0.933c-0.113-0.056-0.275-0.08-0.396-0.047
	c-1.145,0.331-2.313,0.602-3.412,1.05c-0.733,0.302-1.196,0.158-1.281-0.66c-0.212-2.106-0.265-4.246-0.686-6.312
	c-1.086-5.314-0.189-10.668-0.543-15.99c0.906-1.909,0.408-3.986,0.744-5.952c0.109-0.648,0.861-1.208,1.369-1.759
	c0.568-0.613,1.197-1.171,1.901-1.851c0.782,0.02,1.356,0.537,1.474,1.552c0.205,1.762,0.381,3.524,0.594,5.284
	c0.021,0.175,0.215,0.325,0.326,0.486c0.104-0.139,0.227-0.267,0.305-0.419c0.563-1.102,1.193-2.177,1.656-3.318
	c0.963-2.391,3.105-3.7,4.797-5.427c1.086-1.106,2.027-2.408,3.266-3.299c2.26-1.619,3.756-3.946,5.762-5.796
	c1.344-1.239,2.51-2.738,3.33-4.472c0.566-1.197,1.75-2.161,2.098-3.39c0.373-1.32,1.578-2.729,0.348-4.255
	c-0.158-0.194-0.082-0.583-0.109-0.883c-0.102-1.165-0.795-1.352-1.873-1.018c-1.055,0.325-1.955,0.848-2.924,1.283
	c-0.424,0.19-1.209-0.299-1.775-0.585c-0.531-0.268-0.965-0.729-1.492-1.013c-1.191-0.64-2.412-1.223-3.625-1.819
	c-0.084-0.041-0.211-0.051-0.297-0.021c-0.842,0.312-1.686,0.613-2.514,0.96c-0.504,0.21-0.957,0.563-1.473,0.73
	c-2.176,0.698-3.902,2.032-5.326,3.755c-0.855,1.031-1.564,2.18-2.345,3.271c-0.653,0.913-1.295,1.836-1.979,2.725
	c-1.013,1.314-2.365,2.228-3.746,3.108c-0.531,0.338-0.95,0.845-1.458,1.224c-0.528,0.395-1.128,0.69-1.644,1.101
	c-0.324,0.256-0.748,0.622-0.783,0.971c-0.096,0.996-0.367,2.075,0.522,2.917c0.082,0.077,0.086,0.253,0.096,0.385
	c0.181,2.668,0.481,5.337,0.478,8.004c-0.003,1.207-0.718,2.393-0.922,3.621c-0.162,0.965-0.328,1.923,0.192,2.972
	c0.364,0.734,0.097,1.805,0.029,2.719c-0.034,0.426-0.28,0.834-0.405,1.258c-0.375,1.26-0.738,2.525-1.103,3.789
	c-0.036,0.128-0.044,0.262-0.079,0.389c-0.372,1.372-0.748,2.74-1.121,4.11c-0.01,0.032-0.014,0.065-0.02,0.1
	c-0.227,1.568-0.478,3.136-0.674,4.709c-0.244,1.971-0.221,4.011-0.741,5.903c-0.333,1.213-0.177,2.468-0.583,3.571
	c-0.383,1.043-0.514,2.053-0.422,3.093c0.123,1.438,0.18,2.943,0.672,4.269c0.318,0.858,1.301,1.535,2.104,2.131
	c0.663,0.491,1.5,0.747,2.259,1.104c0.089,0.042,0.184,0.09,0.28,0.104c1.521,0.225,3.041,0.458,4.567,0.654
	c1.609,0.207,3.175,0.569,4.618,1.311c0.332,0.172,0.518,0.63,0.918,1.146c0.414-0.242,0.914-0.574,1.447-0.834
	c0.313-0.149,0.691-0.287,1.016-0.246c0.6,0.074,1.18,0.283,1.768,0.437c0.832,0.216,1.652,0.483,2.494,0.635
	c1.436,0.256,2.715-0.095,3.787-1.133c0.141-0.135,0.438-0.142,0.662-0.144c0.436-0.004,0.9,0.147,1.301,0.042
	c1.313-0.344,1.889,0.824,2.801,1.291c0.104,0.052,0.096,0.369,0.094,0.563c-0.035,2.281,0.1,4.583-0.15,6.843
	c-1.014,9.216-0.297,18.459-0.6,27.681c-0.064,1.933,0.15,3.842,0.061,5.768c-0.096,1.976-0.029,3.96-0.025,5.94
	c0.004,1.947,0.018,3.895,0.025,5.842c0.006,1.979,0.008,3.96,0.02,5.939c0.014,1.979,0.014,3.962,0.064,5.941
	c0.029,1.23-0.299,2.275-1.08,3.258c-0.297,0.371-0.176,1.072-0.287,1.951c1.002-0.409,1.764-0.671,2.48-1.027
	c0.563-0.279,1.059-0.692,1.604-1.011c0.42-0.244,0.951-0.346,1.295-0.663c1.895-1.746,4.07-3.179,5.67-5.268
	c0.924-1.206,2.188-2.144,3.176-3.306c0.846-0.993,1.537-2.117,2.258-3.21c0.648-0.986,1.129-2.109,1.896-2.982
	c0.592-0.668,1.498-1.075,2.301-1.537c0.686-0.395,1.42-0.696,2.23-1.087c0.713,0.316,0.824,0.996,0.75,1.867
	c-0.082,0.97,0.67,1.631,1.641,1.619c0.834-0.007,1.672-0.032,2.506-0.014c0.959,0.021,1.418,0.733,1.121,1.631
	c-0.664-0.175-1.338-0.349-1.914-0.502c-0.326,0.615-0.637,1.041-0.771,1.519c-0.078,0.283,0.162,0.641,0.186,0.973
	c0.053,0.683,0.318,1.525,0.021,2.021c-0.469,0.792-0.438,1.304,0.148,1.849c-0.791,1.009-1.566,2.005-2.35,2.995
	c-0.105,0.132-0.234,0.255-0.371,0.354c-0.41,0.296-0.98,0.487-1.223,0.883c-0.893,1.458-1.734,2.955-2.486,4.491
	c-0.35,0.709-0.363,1.577-0.676,2.311c-0.4,0.944-0.945,1.824-1.426,2.736c-0.549,1.043-1.086,2.093-1.639,3.135
	c-0.523,0.99-1.078,1.966-1.584,2.965c-0.504,0.99-0.965,2.006-1.441,3.01c-0.559,1.176-1.135,2.341-1.652,3.531
	c-0.295,0.678-0.453,1.415-0.744,2.092c-0.582,1.364-0.459,2.966-1.598,4.167c-0.482,0.509-0.535,1.407-0.846,2.102
	c-0.328,0.729-0.727,1.427-1.098,2.137c-0.061,0.112-0.117,0.265-0.215,0.313c-1.598,0.75-2.287,2.201-2.955,3.704
	c-0.422,0.946-0.828,1.917-1.893,2.445c-0.648,0.322-0.746,1.058-0.717,1.788c0.016,0.337-0.115,0.755-0.326,1.018
	c-0.83,1.031-0.775,2.234-0.662,3.406c0.096,0.982-0.08,1.494-1.184,1.629c-0.432,0.052-1.057,0.616-1.139,1.039
	c-0.217,1.108-0.5,2.32,0.512,3.281c0.051,0.047,0.008,0.191,0.008,0.168c-0.654,0.421-1.273,0.768-1.834,1.192
	c-0.797,0.603-0.734,1.554-0.59,2.338c0.293,1.589-0.516,2.492-1.621,3.372c-1.01,0.802-1.518,1.975-2.018,3.136
	c-0.168,0.392-0.436,0.739-0.645,1.115c-0.592,1.063-1.172,2.132-1.762,3.193c-0.535,0.973-1.076,1.944-1.613,2.916
	c-0.047,0.081-0.137,0.171-0.129,0.249c0.137,1.374-0.967,1.956-1.691,2.822c-0.611,0.733-0.934,1.699-1.454,2.516
	c-0.878,1.378-1.821,2.712-2.724,4.076c-0.463,0.701-0.895,1.425-1.338,2.139c-0.642,1.033-1.179,2.156-1.951,3.08
	c-0.959,1.141-1.263,2.383-1.175,3.802c0.035,0.56,0.006,1.121,0.006,1.724c-1.343,0.047-1.695,1.026-2.17,1.912
	c-0.833,1.548-2.187,2.773-2.726,4.509c-0.201,0.646-0.886,0.972-1.615,0.901c-0.375-1.475-0.67-1.396-2.254-1.891
	c-1.573-0.491-3.097-0.523-4.672-0.514c-0.33,0.002-0.661,0.035-1.172,0.063c0.761,1.255,1.777,1.791,3.139,1.849
	c-0.553,1.806-2.248,2.256-3.521,3.386c0.945,0.082,1.845,0.158,2.765,0.235c0.455,1.386,0.3,1.586-1.466,1.807
	c0.055,0.079,0.109,0.158,0.164,0.236c-0.621,0.484-1.218,1.004-1.869,1.443c-1.103,0.742-2.22,1.463-3.363,2.136
	c-0.634,0.37-1.321,0.661-2.008,0.926c-1.809,0.698-3.878,0.492-5.574,1.643c-0.526,0.356-1.19,0.573-1.821,0.696
	c-1.792,0.35-2.006,3.231-0.565,4.301c0.461,0.341,0.981,0.596,1.603,0.965c-0.266,0.07-0.514,0.154-0.752,0.249
	c6.243-0.507,12.496-0.836,18.751-1.147c-0.003-0.019-0.006-0.035-0.009-0.055c0.329,0,0.639,0.004,0.951,0.008
	c1.219-0.061,2.439-0.121,3.658-0.182c0.297-0.033,0.604-0.066,0.939-0.1c0.063,0.012,0.143,0.025,0.218,0.04
	c4.374-0.224,8.749-0.466,13.122-0.784c0.633-0.776,1.193-1.613,1.08-2.658c-0.072-0.638,0.016-1.243-0.027-1.844
	c-0.072-0.945-0.295-1.939-0.707-2.788c-0.787-1.611-0.449-2.458,1.223-2.695c0.67-1.628,1.611-3.155,1.391-4.996
	c-0.01-0.089,0.203-0.199,0.301-0.311c0.479-0.545,1.002-1.058,1.416-1.646c0.559-0.801,1.006-1.676,1.547-2.491
	c0.664-1.01,1.418-1.962,2.055-2.989c0.727-1.174,1.242-2.498,2.08-3.583c0.877-1.139,1.664-2.303,2.352-3.567
	c0.908-1.669,1.98-3.249,2.986-4.864c0.961-1.538,1.965-3.054,2.879-4.619c0.732-1.247,1.34-2.566,2.041-3.833
	c0.941-1.693,1.926-3.362,2.885-5.048c0.34-0.598,0.635-1.219,0.984-1.812c0.67-1.135,1.375-2.251,2.051-3.383
	c0.268-0.45,0.41-1.004,0.76-1.368c1.385-1.443,1.971-3.326,2.926-5.005c0.32-0.564,0.533-1.617,1.369-1.173
	c0.596,1.061,1.105,1.843,1.494,2.681c0.678,1.459,1.246,2.97,1.932,4.424c0.266,0.563,0.746,1.021,1.092,1.551
	c0.434,0.667,0.867,1.339,1.232,2.047c0.51,0.993,0.871,2.072,1.447,3.022c1.07,1.769,2.285,3.446,3.367,5.207
	c0.855,1.395,1.65,2.833,2.381,4.296c0.707,1.414,1.307,2.88,1.939,4.331c0.266,0.606,0.479,1.237,0.746,1.845
	c0.338,0.77,0.744,1.509,1.055,2.288c0.281,0.7,0.434,1.45,0.707,2.153c0.324,0.836,0.717,1.645,1.08,2.466
	c0.25,0.572,0.408,1.207,0.76,1.706c0.721,1.009,1.57,1.926,2.313,2.921c0.279,0.374,0.414,0.856,0.596,1.301
	c0.25,0.629,0.314,1.607,0.762,1.83c0.803,0.404,0.324,0.772,0.363,1.351h-5.516c1.418,1.858,3.168,2.878,5.109,3.943
	c-0.912,0.327-1.854,0.379-1.992,1.413c0.008-0.002,0.016-0.002,0.023-0.004c-0.002,0.01-0.002,0.021-0.004,0.031h2.193
	c0.051,0.152,0.1,0.305,0.15,0.457c-0.912,0.65-1.822,1.301-2.734,1.95c-0.102-0.049-0.203-0.098-0.301-0.147
	c0.174-0.385,0.391-0.756,0.514-1.155c0.109-0.353,0.125-0.734,0.178-1.104h-0.027c0.002-0.01,0.006-0.018,0.008-0.027
	c-0.186,0.037-0.457,0.027-0.518,0.135c-0.516,0.908-0.988,1.839-1.525,2.867c-0.406,0.185-1.012,0.359-1.498,0.702
	c-0.854,0.597-1.949,0.706-2.676,1.622c-0.484,0.609-1.334,1.037-2.104,1.283c-0.902,0.291-1.871,0.156-2.832,0.584
	c-0.91,0.402-1.795,0.903-2.004,1.692c-0.293,1.11-0.467,2.429,0.807,3.317c0.426,0.297,0.658,0.765-0.063,1.202
	c-0.02,0.012-0.033,0.032-0.053,0.046c2.869-0.105,5.74-0.183,8.611-0.239c7.828-0.729,15.707-0.544,23.6-0.112
	c0.881,0.004,1.762,0.01,2.643,0.016c-0.188-0.191-0.412-0.361-0.732-0.473c-0.42-0.145-0.764-0.508-1.162-0.786
	c0.51-0.306,1.08-0.482,1.385-0.869c0.629-0.805,1.125-1.715,1.658-2.595c0.152-0.25,0.244-0.536,0.322-0.716
	c-0.111-0.498-0.209-0.977-0.328-1.449c-0.191-0.74-0.34-1.5-0.619-2.206c-0.324-0.82-0.77-1.592-1.16-2.384
	c-0.287-0.58-0.568-1.164-0.857-1.743c-0.297-0.6-0.582-1.172,0.084-1.756c0.15-0.133,0.213-0.542,0.125-0.738
	c-0.287-0.646-0.662-1.249-1.016-1.891c0.658-0.761,0.674-2.338,0.074-3.339c-0.322-0.538-0.461-1.183-0.758-1.74
	c-0.236-0.438-0.508-0.947-0.902-1.2c-0.92-0.581-1.406-1.347-1.578-2.406c-0.072-0.442-0.393-0.841-0.572-1.269
	c-0.551-1.304-1.094-2.61-1.623-3.92c-0.273-0.672-0.514-1.356-0.779-2.032c-0.586-1.489-1.201-2.969-1.766-4.468
	c-0.277-0.741-0.387-1.552-0.717-2.265c-0.666-1.453-1.432-2.858-2.152-4.286c-0.277-0.55-0.533-1.113-0.816-1.66
	c-0.129-0.249-0.326-0.462-0.447-0.713c-0.471-0.981-0.939-1.968-1.379-2.967c-0.561-1.278-1.105-2.563-1.623-3.859
	c-0.309-0.771-0.494-1.594-0.846-2.345c-0.381-0.818-0.895-1.574-1.342-2.362c-0.164-0.29-0.486-0.643-0.422-0.883
	c0.379-1.403-0.395-2.419-1.277-3.168c-0.623-0.53-0.645-1.024-0.57-1.605c0.193-1.517-0.303-2.614-1.613-3.46
	c-0.404-0.261-0.553-0.963-0.746-1.49c-0.203-0.554-0.434-1.139-0.441-1.713c-0.004-0.46,0.205-1.009,0.5-1.368
	c0.605-0.739,1.426-1.309,1.984-2.073c0.629-0.859,1.051-1.864,1.592-2.788c0.385-0.66,0.836-1.281,1.229-1.938
	c0.811-1.356,1.637-2.702,2.385-4.089c0.623-1.149,1.193-2.332,1.686-3.541c0.334-0.828,0.463-1.739,0.734-2.597
	c0.182-0.563,0.43-1.107,0.691-1.641c0.781-1.593,1.572-3.18,2.381-4.757c0.732-1.43,1.533-2.825,2.234-4.269
	c0.688-1.411,1.242-2.886,1.939-4.291c0.477-0.958,1.113-1.833,1.643-2.768c0.262-0.467,0.385-1.016,0.674-1.465
	c0.461-0.715,1.033-1.36,1.51-2.069c0.373-0.552,0.697-1.138,0.994-1.733c0.541-1.075,1.049-2.165,1.561-3.253
	c0.248-0.531,0.521-1.058,0.707-1.61c0.281-0.846,0.57-1.701,0.732-2.576c0.314-1.679,0.543-3.373,0.824-5.182
	c0.117-0.023,0.369-0.104,0.619-0.109c1.289-0.027,2.371-0.657,3.537-1.094c2.324-0.868,3.561-2.913,5.146-4.543
	c0.916-0.939,1.277-2.395,2.064-3.492c0.639-0.893,1.557-1.578,2.313-2.388c0.662-0.707,1.527-0.456,2.316-0.608
	c1.539-0.298,3.055-0.715,4.582-1.074c0.195-0.044,0.398-0.058,0.602-0.063c1.529-0.054,2.947-0.491,4.336-1.134
	c1.172-0.538,2.457-0.833,3.631-1.363c0.977-0.438,1.865-1.071,2.799-1.605c0.838-0.48,1.693-0.934,2.525-1.422
	c0.254-0.149,0.455-0.389,0.691-0.569c1.984-1.511,3.883-3.121,5.518-5.014c0.338-0.393,0.508-0.934,0.861-1.306
	c0.301-0.314,0.559-1.006,1.275-0.427c0.113,0.094,0.928-0.32,1.008-0.612c0.211-0.77,0.883-0.582,1.084-0.411
	c0.936,0.801,2.031,0.454,3.055,0.589c0.221,0.028,0.438,0.07,0.73,0.119c-0.791,1.111-1.52,2.142-2.254,3.177
	c0.842,1.041,0.832,1.031,1.746,0.048c1.043-1.125,2.109-2.227,3.158-3.348c0.174-0.187,0.277-0.441,0.451-0.63
	c0.191-0.208,0.424-0.376,0.639-0.56c0.158,0.204,0.406,0.393,0.453,0.62c0.094,0.454,0.105,0.934,0.1,1.401
	c-0.006,0.813,0.406,1.042,1.238,0.892c0-0.428-0.016-0.855,0.004-1.279c0.043-0.861-0.348-1.809,0.488-2.521
	c0.037-0.034,0.023-0.128,0.035-0.195c0.23-1.56,0.422-3.126,0.705-4.678c0.303-1.661,0.762-3.297,1.006-4.965
	C949.367,140.956,949.018,140.21,948.994,139.48z M832.045,70.667c-0.025,0.048-0.414-0.002-0.482-0.106
	c-0.516-0.793,0.637-2.785,1.654-2.837C833.891,69.174,832.559,69.755,832.045,70.667z M853.775,117.036
	c-0.09,0.002-0.176,0.002-0.264,0.002v-1.368c0.088,0,0.174-0.003,0.264-0.003V117.036z M879.15,304.021
	c0.057,0,0.162,0.203,0.154,0.305c-0.008,0.095-0.137,0.26-0.213,0.26c-0.52,0-1.037-0.036-1.557-0.061
	c-0.006-0.149-0.012-0.3-0.018-0.449C878.063,304.052,878.607,304.019,879.15,304.021z M937.455,148.063
	c-0.76,0.531-1.5,1.093-2.207,1.612c-0.48-0.147-0.889-0.309-1.314-0.392c-0.393-0.079-0.809-0.031-1.201-0.109
	c-1.762-0.347-3.508-0.792-5.279-1.051c-1.221-0.179-2.492-0.003-3.715-0.177c-1.826-0.262-3.621-0.725-5.441-1.041
	c-1.252-0.217-2.508-0.067-3.797-0.504c-1.584-0.538-3.359-0.498-5.031-0.812c-1.146-0.215-2.295-0.395-3.113-1.509
	c-0.865-1.183-1.961-2.204-2.998-3.257c-1.941-1.974-3.857-3.972-5.881-5.857c-1.438-1.341-3.008-2.543-4.566-3.749
	c-0.844-0.656-1.777-1.203-2.689-1.771c-1.092-0.688-2.244-1.291-3.295-2.034c-0.477-0.337-1.262-0.656-0.875-1.551
	c0.359-0.824,0.768-1.634,1.055-2.485c0.334-0.995,0.559-2.031,0.828-3.037c0.85-0.225,1.49-0.103,1.691,0.878
	c0.021,0.099,0.176,0.163,0.244,0.262c0.885,1.299,2.336,1.745,3.637,2.417c0.418,0.217,0.859,0.385,1.256,0.633
	c0.506,0.32,0.953,0.739,1.471,1.04c0.855,0.494,1.723,0.978,2.623,1.374c0.656,0.288,1.4,0.377,2.068,0.646
	c1.898,0.763,3.859,1.17,5.904,1.16c0.402-0.002,0.818-0.059,1.205,0.019c0.307,0.06,0.574,0.301,0.873,0.437
	c0.977,0.449,1.959,0.892,2.943,1.326c0.652,0.289,1.398,0.452,1.943,0.876c0.66,0.513,1.127,1.274,1.734,1.87
	c0.348,0.339,0.807,0.569,1.221,0.838c0.33,0.215,0.67,0.596,1.006,0.596c1.063,0,1.787,0.753,2.699,1.032
	c0.664,0.204,1.473,0.314,2.104,0.116c0.402-0.126,0.604-0.898,0.887-1.384c0.533-0.91,1.934-1.297,2.814-0.799
	c0.635,0.358,1.262,0.765,1.945,0.992c1.494,0.501,3.025,0.884,4.529,1.347c0.637,0.197,1.266,0.436,1.867,0.724
	c1.057,0.506,2.066,1.127,3.143,1.592c1.332,0.572,2.824,0.851,3.682,2.208c-1.283,1.014-2.084,2.984-2.293,4.62
	C938.973,146.378,938.471,147.353,937.455,148.063z M942.383,150.513c-1.172,0.774-2.471,0.703-3.922,0.482
	c0.082-0.226,0.094-0.444,0.193-0.497c0.52-0.276,1.162-0.399,1.576-0.777c0.906-0.838,1.604-0.438,2.293,0.216
	C942.6,150.008,942.51,150.429,942.383,150.513z"/>
</svg>
