<?xml version="1.0" encoding="utf-8"?>
<!-- Generator: Adobe Illustrator 16.0.0, SVG Export Plug-In . SVG Version: 6.00 Build 0)  -->
<!DOCTYPE svg PUBLIC "-//W3C//DTD SVG 1.1//EN" "http://www.w3.org/Graphics/SVG/1.1/DTD/svg11.dtd">
<svg version="1.1" id="Layer_1" xmlns="http://www.w3.org/2000/svg" xmlns:xlink="http://www.w3.org/1999/xlink" x="0px" y="0px"
	 width="1284.129px" height="302.311px" viewBox="0 0 1284.129 302.311" enable-background="new 0 0 1284.129 302.311"
	 xml:space="preserve">
<path fill-rule="evenodd" clip-rule="evenodd" fill="#1A3C47" d="M730.088,115.861c-1.152-1.655-2.861-2.334-4.625-3.168
	c-2.104-0.995-3.381-0.78-4.711,1.097c-1.838,2.592-6.02,3.946-8.992,2.871c-2.646-0.957-5.367-1.643-8.033-2.518
	c-2.143-0.704-4.404-1.292-6.303-2.441c-4.748-2.874-10.34-3.301-15.254-5.616c-2.602,1.28-3.523-3.347-6.209-1.765
	c-0.951-2.071-3.215-1.6-4.822-2.34c-1.875-0.864-3.926-1.398-5.537-2.746c-1.309-1.094-2.807-2.003-4.15-2.965
	c-1.809-1.299-4.1-2.257-6.297-3.1c-3.113-1.195-6.225-2.785-9.543-0.498c-1.035,0.715-1.592,0.149-2.016-0.834
	c-0.586-1.354-0.75-2.924-1.979-4.067c-0.883,1.135-0.754,2.511-1.205,3.691c-0.725,1.907-2.408,0.535-3.607,0.977
	c-2.16,0.794-3.721-1.237-5.605-1.868c-1.512-0.505,0.277-1.568-0.086-2.391c-0.16-0.358-0.08-0.814-0.18-1.207
	c-0.879-3.447-2.982-6.271-4.768-9.251c-1.789-2.986-4.365-5.118-7.08-7.3c-3.986-3.202-8.264-5.064-13.274-4.939
	c-1.902,0.047-4.232,0.351-5.437,2.039c-1.215,1.702-2.722,3.033-4.111,4.521c-0.501,0.536-0.887,1.247-1.127,1.945
	c-1.383,4.024-2.199,8.154-2.263,12.43c-0.054,3.587,0.065,7.149,0.916,10.653c0.754,3.106,0.872,6.404,4.261,8.341
	c1.438,0.822,2.605,2.121,4.332,2.586c1.413,0.38,2.9,0.423,4.922,0.74c-2.463,1.155-4.546,1.139-6.352,2.156
	c-2.516,1.417-5.424,1.819-7.965,3.498c-1.828,1.207-4.404,2.189-6.709,2.215c-3.063,0.033-5.777,1.484-8.864,1.395
	c-2.722-0.079-5.364,1.175-8.04,1.802c-2.756,0.646-5.558,0.861-8.299,1.488c-4.23,0.966-8.598,0.969-12.846,2.03
	c-4.363,1.09-8.896,1.442-13.407,1.697c-1.709,0.097-3.106-0.463-4.233-1.721c-1.82-2.032-3.996-2.882-6.768-2.454
	c-2.213,0.341-3.758,1.853-3.646,4.113c0.063,1.285-0.123,2.825,0.513,3.774c0.743,1.109,0.773,2.895,2.194,3.333
	c2.26,0.699,4.559,1.246,6.988,1.337c4.075,0.152,8.071-0.688,12.158-0.563c4.434,0.136,8.887,0.323,13.34,0.041
	c2.412-0.152,4.813-0.995,7.289-0.042c1.334,0.514,2.783,0.281,4.143-0.34c0.523-0.24,1.297-0.488,1.729-0.273
	c1.938,0.958,3.957,0.247,5.854,0.197c2.734-0.071,5.497-0.053,8.235-0.31c3.511-0.33,7.056-0.093,10.538-0.978
	c2.66-0.677,5.412-0.994,8.124-1.469c0.513-0.09,1.126-0.397,1.231,0.502c0.312,2.643,0.826,5.213-0.333,7.889
	c-0.982,2.268-2.427,4.269-3.294,6.594c-1.604,4.295-1.693,9.012-3.898,13.152c-0.93,1.746-0.172,2.684,1.893,2.755
	c0.916,0.032,1.76,0.261,2.619,0.473c0.873,0.215,1.153,0.799,0.555,1.514c-1.264,1.506-3.262,2.313-4.08,4.268
	c-0.064,0.153-0.5,0.212-0.764,0.213c-3.046,0.013-4.88,1.622-6.039,4.331c-0.504,1.177-1.016,2.377-2.01,3.331
	c-2.969,2.851-5.276,6.374-7.246,9.819c-1.873,3.278-4.449,6.094-5.928,9.708c-1.437,3.51-3.35,6.887-4.904,10.396
	c-2.552,5.758-3.561,12.092-6.645,17.659c-0.638,1.151-0.422,2.551-0.549,3.85c-0.258,2.64,0.489,5.184,0.572,7.802
	c0.205,6.492-0.923,12.891-1.039,19.357c-0.051,2.766,0.279,5.835-1.222,8.264c-1.308,2.117-1.685,4.583-1.717,6.6
	c-0.048,2.985,0.712,6.233,2.134,9.029c0.602,1.181,0.3,1.626-0.508,2.132c-1.313,0.822-2.188,2.083-3.293,3.109
	c-0.358,0.333-0.883,0.761-0.593,1.2c0.66,0.998-0.101,1.42-0.562,2.069c-1.852,2.613-4.227,4.599-6.924,6.308
	c-2.522,1.6-2.879,3.795-1.26,6.193c0.196,0.291,0.379,0.471,0.199,0.882c-0.344,0.781-0.549,1.417-0.633,1.975
	c2.725,0.369,5.469,0.575,8.215,0.569c0.846-0.539,1.603-1.071,2.178-1.499c0.928-0.688,1.974-1.08,3.059-1.244
	c-0.094-0.034-0.186-0.077-0.281-0.108c3.586-2.767,7.813-3.649,12.217-4.013c0.816-0.067,1.642-0.203,2.432-0.42
	c3.385-0.931,3.867-1.822,3.9-5.299c0.023-2.488-0.727-4.962-0.105-7.451c0.109-0.436,0.021-0.983-0.301-1.137
	c-1.885-0.896-0.918-3.001-1.873-4.278c-0.113-0.152-0.053-0.575,0.083-0.75c2.231-2.866,2.339-6.017,1.589-9.432
	c-0.355-1.613,0.657-3.185,1.188-4.703c2.836-8.107,5.788-16.175,8.708-24.252c0.307-0.846,0.685-1.732,1.532-2.118
	c5.153-2.352,8.708-6.643,12.701-10.399c1.052-0.989,2.016-2.074,3-3.133c4.132-4.44,9.058-5.272,14.603-3.196
	c3.543,1.327,7.141,2.669,10.297,4.704c4.127,2.66,7.367,6.427,10.291,10.337c7.674,10.254,14.051,21.295,19.508,32.878
	c0.879,1.863,1.551,3.413,0.662,5.674c-1.137,2.895,1.137,5.25,2.311,7.778c1.203,2.593,2.838,5.137,2.543,8.224
	c-0.223,2.315,0.313,4.617,0.066,6.948c-0.102,0.956,0.518,1.821,1.607,2.143c1.316,0.387,2.613,0.838,3.928,1.229
	c1.941,0.576,4.254,0.568,4.838,3.213c0.051,0.231,0.328,0.546,0.547,0.588c0.725,0.141,1.248,0.367,1.631,0.649
	c0.777,0.144,1.557,0.281,2.334,0.432c2.393,0.464,5.361,1.004,8.33,1.182c-0.014-0.025-0.031-0.048-0.043-0.075
	c0.742-0.842,1.328-0.352,2.018,0.135c0.08,0,0.162,0.004,0.242,0.002c-0.283-0.654-0.217-1.236-0.027-1.926
	c1.076-3.933,0.184-6.012-3.115-8.478c-1.645-1.23-2.938-2.846-3.682-4.812c-0.088-0.23-0.635-0.685-0.105-0.772
	c1.875-0.313,0.414-1.521,0.283-1.742c-0.906-1.534-1.939-3.008-3.07-4.389c-2.27-2.774-2.539-5.621-0.682-8.594
	c2.494-3.993,1.83-6.488-2.49-8.472c-1.24-0.57-1.68-1.228-1.465-2.461c0.43-2.472,0.625-4.85,0.072-7.429
	c-1.074-5.008-1.455-10.158-2.969-15.092c-0.785-2.559-2.564-4.864-1.98-7.786c0.078-0.394-0.254-0.746-0.607-1.021
	c-2.039-1.588-2.785-3.773-2.813-6.268c-0.008-0.674-0.25-1.269-0.803-1.595c-2.336-1.381-2.709-3.934-3.814-6.076
	c-0.76-1.474-0.223-3.431-1.59-4.525c-0.863-0.69-1.326-1.45-1.752-2.408c-0.693-1.56-1.508-3.078-2.398-4.535
	c-2.1-3.433-4.965-6.481-5.125-10.848c-0.018-0.476-0.426-1.162-0.84-1.361c-2.836-1.362-3.318-3.759-3.158-6.554
	c0.057-0.979-0.219-2.121-1.352-2.291c-2.484-0.372-2.783-2.166-2.746-4.056c0.027-1.337-0.543-2.317-1.615-2.567
	c-2.238-0.521-1.662-1.922-1.084-3.123c0.871-1.807,1.107-3.647,1.047-5.602c-0.029-0.957,0.17-1.918,0.221-2.88
	c0.055-1.01,0.539-1.299,1.553-1.46c2.908-0.462,5.863-0.645,8.717-1.472c0.883-0.256,2.09-0.571,2.754,0.128
	c0.848,0.893,1.439,0.455,2.154,0.081c0.67-0.352,1.313-0.79,2.102-0.773c1.07,0.023,1.238-0.587,1.17-1.476
	c-0.313-4.051-1.164-8.045-1.219-12.126c-0.049-3.443-2.289-6.583-1.705-10.072c0.68-4.051-0.625-7.838-1.109-11.732
	c-0.586-4.688-1.346-9.356-1.432-14.104c1.219,0.234,2.428,0.238,3.619,0.471c1.264,0.247,2.055,1.141,3.148,1.362
	c3.223,0.654,6.486,1.072,9.168,3.295c0.514,0.427,1.465,0.169,2.188-0.073c0.232-0.078,0.541-0.488,0.598-0.447
	c1.854,1.351,4.258,1.335,6.186,2.603c1.463,0.961,2.918,2.854,4.857,1.997c1.436-0.634,2.672-0.354,3.932-0.171
	c2.082,0.302,4.141,0.743,6.258,0.735c4.758-0.015,9.48,0.561,14.215,0.91c1.217,0.089,2.518,0.214,3.598,0.714
	c2.844,1.317,4.873,1.127,7.291-1.142c0.777-0.729,1.434-1.099,2.539-0.646c0.785,0.321,1.703,0.417,2.48-0.374
	c1.377-1.399,1.988-3.386,3.742-4.53C731.006,117.686,730.66,116.684,730.088,115.861z M601.591,102.41
	c1.918,1.638,4.042,2.904,6.432,3.708C604.919,106.659,603.309,104.426,601.591,102.41z"/>
</svg>
