<?xml version="1.0" encoding="utf-8"?>
<!-- Generator: Adobe Illustrator 16.0.0, SVG Export Plug-In . SVG Version: 6.00 Build 0)  -->
<!DOCTYPE svg PUBLIC "-//W3C//DTD SVG 1.1//EN" "http://www.w3.org/Graphics/SVG/1.1/DTD/svg11.dtd">
<svg version="1.1" id="Layer_1" xmlns="http://www.w3.org/2000/svg" xmlns:xlink="http://www.w3.org/1999/xlink" x="0px" y="0px"
	 width="1284.129px" height="302.311px" viewBox="0 0 1284.129 302.311" enable-background="new 0 0 1284.129 302.311"
	 xml:space="preserve">
<g>
	<path fill="#FFFFFF" d="M388.478,57.272c3.278-1.688,7.999,0.133,9.263,3.024c0.492,1.13,1.689,1.976,2.642,2.868
		c1.647,1.556,3.353,3.047,5.034,4.566c-0.205,0.442-0.41,0.886-0.615,1.325c-2.371-0.4-4.809-0.588-7.105-1.259
		c-2.893-0.841-4.066-0.271-3.979,2.676c0.312,10.646-1.266,21.046-3.104,31.505c-0.873,4.981-0.406,10.643,1.074,15.503
		c3.057,10.025,3.76,20.149,3.753,30.475c-0.003,6.065-0.577,12.104,1.857,18.096c2.196,5.407-0.562,11.003-7.149,15.273
		c0.161-1.543,0.445-3.083,0.457-4.628c0.008-1.742-0.233-3.49-0.367-5.235c-0.264-0.138-0.53-0.274-0.797-0.419
		c-1.299,2.177-2.936,4.22-3.832,6.549c-2.937,7.643-5.914,15.299-8.281,23.127c-2.225,7.352-4.348,14.803-4.161,22.65
		c0.033,1.244-0.56,2.49-0.689,3.757c-0.284,2.713-0.472,5.437-0.668,8.155c-0.431,5.982-0.593,12.002-1.339,17.943
		c-0.551,4.364-1.92,8.625-2.78,12.959c-0.242,1.228-0.253,2.644,0.107,3.826c1.577,5.209,0.698,10.078-1.462,14.917
		c-1.207,2.691,0.183,6.136,2.885,7.468c3.428,1.686,6.988,3.108,10.363,4.887c1.123,0.594,1.85,1.936,2.755,2.934
		c-1.135,0.967-2.173,2.58-3.427,2.771c-3.004,0.461-6.111,0.29-9.178,0.305c-5.35,0.028-10.694,0.028-16.047-0.006
		c-3.547-0.023-5.088-1.471-5.1-5.039c-0.005-1.646,0.523-3.285,0.779-4.938c0.915-5.871,0.975-11.757,0.778-17.695
		c-0.083-2.45,1.189-4.926,1.689-7.422c0.222-1.108,0.075-2.299,0.05-3.449c-0.107-5.301-0.242-10.598-0.347-15.896
		c-0.036-1.842-0.005-3.681-0.659-5.822c-1.314,2.75-2.876,5.414-3.879,8.273c-1.273,3.618-1.352,7.859-3.3,10.991
		c-2.267,3.644-2.384,7.645-3.712,11.395c-0.646,1.83-0.774,3.843-1.237,5.749c-0.411,1.697-0.591,3.611-1.52,4.995
		c-2.546,3.784-2.36,7.649-0.948,11.625c1.578,4.433,0.51,6.155-4.045,6.164c-0.99,0-1.982-0.013-2.971-0.018
		c-9.019-0.049-12.758-6.583-8.486-14.62c0.859-1.616,1.405-3.51,1.653-5.336c1.239-9.164,2.128-18.379,3.519-27.52
		c1.979-12.966,6.245-25.26,11.551-37.229c1.707-3.842,1.535-7.945,0.265-11.9c-3.285-10.243-7.051-20.347-9.927-30.702
		c-2.289-8.245-4.293-16.709-5.053-25.2c-0.759-8.458,0.857-16.953,4.489-24.84c2.718-5.896,3.638-12.037,3.096-18.484
		c-0.253-3.055-0.005-6.147-0.229-9.205c-0.674-9.037-1.652-18.056-2.104-27.104c-0.141-2.718,0.514-5.777,1.748-8.205
		c2.17-4.276,6.06-6.362,10.998-6.132c0.791,0.038,1.585,0.006,2.379,0.012c4.834,0.014,4.96-0.042,4.957-5.023
		c-0.004-6.379,0.229-12.789,3.033-18.587c2.435-5.026,4.973-10.262,8.621-14.386c7.531-8.516,22.475-4.742,25.016,6.277
		c1.584,6.87,1.811,14.055,2.58,21.107C387.799,49.04,388.092,52.975,388.478,57.272z M378.79,117.492
		c-0.43-5.352-0.851-10.611-1.274-15.904C373.274,104.67,373.973,113.838,378.79,117.492z"/>
</g>
</svg>
