<?xml version="1.0" encoding="utf-8"?>
<!-- Generator: Adobe Illustrator 16.0.0, SVG Export Plug-In . SVG Version: 6.00 Build 0)  -->
<!DOCTYPE svg PUBLIC "-//W3C//DTD SVG 1.1//EN" "http://www.w3.org/Graphics/SVG/1.1/DTD/svg11.dtd">
<svg version="1.1" id="Layer_1" xmlns="http://www.w3.org/2000/svg" xmlns:xlink="http://www.w3.org/1999/xlink" x="0px" y="0px"
	 width="1284.129px" height="275.121px" viewBox="0 0 1284.129 275.121" enable-background="new 0 0 1284.129 275.121"
	 xml:space="preserve">
<g>
	<path fill="#FFFFFF" d="M438.221,262.34c0.596,0.193,1.968-0.502,2.236-1.131c0.553-1.283,1.025-2.871,0.765-4.184
		c-0.681-3.428,0.342-6.293,1.933-9.205c0.702-1.281,0.902-2.861,1.191-4.336c0.259-1.326,0.327-2.693,0.482-4.043
		c0.254-0.002,0.508-0.008,0.759-0.015c0.396,0.689,0.823,1.359,1.179,2.068c3.532,7.01,8.093,13.144,14.578,17.756
		c1.812,1.285,3.283,3.045,5.371,5.024c-0.058,0,0.688-0.08,1.406,0.021c0.725,0.099,1.502,0.229,2.125,0.576
		c7.063,3.922,14.58,4.231,22.32,2.922c0.446-0.078,1.134-0.354,1.315-0.162c2.049,2.138,3.764,0.425,5.295-0.592
		c3.127-2.074,5.999-4.527,9.121-6.606c6.463-4.304,10.729-11.47,18.51-14.064c1.548-0.518,2.864-1.686,4.367-2.381
		c0.906-0.424,1.966-0.519,3.537-0.9c-0.255,2.514-0.791,4.498-0.565,6.393c0.29,2.439,1.327,4.781,1.788,7.211
		c0.494,2.604,0.885,5.257,0.966,7.896c0.092,3.131-0.787,6.414-0.138,9.365c0.963,0.104,1.926,0.209,2.887,0.315
		c1.101-2.438,0.376-4.938,1.013-7.317c0.169-0.632-0.047-1.898-0.429-2.06c-2.321-0.971-1.437-2.879-1.534-4.502
		c-0.107-1.746-0.201-3.494-0.306-5.24c-0.27-4.604-0.599-9.207-0.763-13.815c-0.025-0.756,0.487-1.729,1.063-2.271
		c2.741-2.586,5.694-4.945,8.371-7.597c3.736-3.707,5.174-4.012,9.836-1.405c0.805,0.45,1.583,0.959,2.375,1.436
		c1.416,0.848,2.193,1.889,2.254,3.742c0.108,3.387,0.571,6.771,1.055,10.131c0.103,0.721,0.912,1.332,1.396,1.994
		c0.317-0.154,0.635-0.313,0.952-0.469c0-2.109-0.239-4.252,0.052-6.32c0.563-4.002,0.241-8.299,5.119-10.543
		c4.352-2.002,6.242-2.141,9.673,1.168c2.319,2.236,4.402,4.852,7.066,6.564c2.406,1.551,3.187,3.276,3.006,5.889
		c-0.438,6.447-0.795,12.897-1.229,19.346c-0.033,0.488-0.41,0.957-0.641,1.43c-0.492,1.012-1.275,1.98-1.421,3.039
		c-0.247,1.77-0.18,3.602-0.049,5.391c0.054,0.711,0.586,1.416,1.002,2.06c0.045,0.071,0.105,0.14,0.166,0.207
		c0.859-0.072,1.718-0.136,2.576-0.183c-0.111-2.278,0.139-4.594,0.519-6.938c0.118-0.73,0.146-1.473,0.178-2.211
		c0.125-2.953,0.053-5.928,0.404-8.854c0.315-2.627,1.299-5.176,1.598-7.806c0.207-1.827-0.242-3.731-0.437-6.062
		c1.5,0.367,2.562,0.388,3.351,0.859c5.57,3.324,11.576,5.728,16.346,10.621c4.826,4.953,10.875,8.715,16.412,12.973
		c0.416,0.32,0.994,0.603,1.502,0.607c1.771,0.02,3.572-0.328,5.303-0.102c6.529,0.85,12.945,0.645,19.095-1.883
		c3.75-1.537,7.455-2.861,10.563-6.013c3.922-3.975,8.609-7.188,11.545-12.122c1.719-2.888,3.459-5.763,5.189-8.642
		c0.727,1.465,0.709,2.862,0.891,4.233c0.158,1.22,0.412,2.461,0.857,3.603c0.623,1.603,1.832,3.056,2.131,4.69
		c0.52,2.871,0.406,5.855,0.856,8.746c0.113,0.722,1.365,1.769,2.101,1.773c1.35,0.014,2.563-0.84,1.996-2.543
		c-0.506-1.512-1.384-2.902-1.845-4.424c-0.813-2.695-1.983-5.455-1.944-8.172c0.022-1.83-0.199-3.287-0.892-4.891
		c-0.928-2.16-2.149-4.386-2.295-6.644c-0.149-2.404,0.854-4.873,1.275-7.324c1.43-8.326,1.44-16.588-1.713-24.563
		c-1.437-3.623-3.287-7.086-4.965-10.652c0.745-0.197,1.875-0.238,2.657-0.779c0.656-0.455,1.332-1.529,1.269-2.264
		c-0.228-2.551-0.979-5.057-1.164-7.607c-0.76-10.514-2.713-20.986-1.305-32.025h-19.808c0-4.219-0.188-8.01,0.053-11.772
		c0.252-3.816,0.398-7.521-2.172-11.094c4.638-1.336,8.914-2.455,13.117-3.811c5.502-1.775,11.303-2.855,16.076-6.447
		c0.664-0.503,1.223-1.143,1.832-1.721l-0.291-0.836c-1.584,0.084-3.187,0.064-4.754,0.275c-7.871,1.058-15.732,2.193-23.604,3.261
		c-2.77,0.376-4.723-1.005-5.637-3.661c-0.182-0.529-0.887-0.873-1.65-1.58c0.125,1.989,0.738,3.613,0.187,4.303
		c-2.855,3.555-7.168,4.811-10.732,6.58c-0.563-1.853-1.479-3.416-1.436-4.95c0.27-9.14,0.756-18.274,1.19-27.409
		c0.078-1.607,0.83-2.507,2.617-2.496c1.832,0.014,2.867-0.923,2.781-2.086c-2.457-1.502-4.424-2.707-6.394-3.91
		c0.093-0.352,0.183-0.702,0.271-1.055c1.168-0.361,2.318-0.854,3.514-1.063c5.729-0.999,11.496-1.788,17.191-2.927
		c2.686-0.537,5.377-1.436,7.805-2.679c1.15-0.588,2.279-2.36,2.301-3.615c0.015-0.878-1.725-2.074-2.912-2.64
		c-5.096-2.426-10.594-2.18-16.053-2.121c-3.938,0.041-7.873,0.008-11.768,0.008c-0.584-3.93-1.023-4.328-3.117-3.152
		c0.525,0.971,1.049,1.945,1.438,2.664c-10.389,2.262-20.487,4.461-30.559,6.652c0.127-0.313,0.42-0.949,0.648-1.609
		c1.223-3.563,2.649-7.074,3.604-10.707c1.998-7.645,2.594-15.48,2.437-23.365c-0.044-2.106,0.774-3.098,2.846-3.643
		c4.629-1.221,9.201-2.672,13.77-4.115c1.916-0.604,3.763-1.426,5.644-2.149c-0.063-0.356-0.123-0.714-0.185-1.071
		c-0.862-0.057-1.768-0.299-2.586-0.133c-2.078,0.42-4.119,1.013-6.172,1.551c-4.508,1.18-9.016,2.367-13.666,3.589
		c-0.92-3.202-1.615-5.966-2.545-8.649c-0.279-0.81-1.199-1.402-1.824-2.096c-0.315,0.84-0.844,1.67-0.901,2.528
		c-0.138,1.972-0.045,3.957-0.045,5.679c-3.652,0.865-6.953,2.588-10.506,0.792c-0.484-0.243-1.361,0.29-2.056,0.465
		c0.345,0.582,0.56,1.339,1.062,1.714c1.557,1.166,3.221,2.186,4.578,3.088c-0.875,1.023-1.5,1.76-2.127,2.498
		c0.916,0.367,1.838,0.719,2.743,1.104c0.851,0.364,2.277,0.61,2.425,1.177c0.981,3.803,2.164,7.533-0.683,11.34
		c-2.627,3.504-4.932,7.348-6.762,11.323c-1.953,4.252-2.969,8.931-4.799,13.251c-1.933,4.568-4.49,8.865-6.496,13.406
		c-1.687,3.813-4.582,6.142-8.181,8.232c-0.387-0.998-0.677-1.664-0.905-2.354c-2.297-6.903-4.438-13.866-6.937-20.696
		c-1.305-3.564-2.472-7.572-6.992-8.574c-1.413-0.313-2.936-0.114-4.381-0.33c-4.871-0.731-8.979,1.42-10.249,6.207
		c-1.294,4.868-1.968,9.909-2.736,14.9c-0.545,3.531-0.793,7.109-1.187,10.764c-4.335-1.667-5.309-2.642-7.055-6.078
		c-0.996-1.965-2.242-3.807-3.439-5.664c-2.86-4.439-6.578-8.238-7.891-13.761c-1.016-4.278-3.48-8.212-5.313-12.298
		c-1.228-2.742-3.06-5.376-3.554-8.241c-0.555-3.214,0.093-6.634,0.229-10.29c1.546,0.83,2.556,1.373,4.183,2.246
		c-0.174-1.445-0.027-2.416-0.422-3.051c-0.863-1.383-2.082-2.368-0.617-4.286c0.877-1.146-0.67-3.341,1.396-4.505
		c0.535-0.303,0.572-1.488,0.841-2.269c-1.008,0.024-2.504-0.366-2.941,0.146c-1.893,2.225-3.881,1.084-5.993,0.773
		c0.366-1.736,0.839-3.254,0.931-4.793c0.036-0.587-0.802-1.223-1.246-1.837c-0.515,0.372-1.276,0.634-1.5,1.136
		c-0.771,1.719-1.35,3.521-2.093,5.536c-4.015-3.476-7.887-6.827-11.756-10.179h-0.556c-1.864,1.398-0.367,2.396,0.515,3.264
		c2.891,2.848,5.905,5.57,8.791,8.426c0.541,0.535,1.098,1.553,0.959,2.199c-2.028,9.385,0.162,18.582,1.3,27.788
		c0.449,3.64,2.083,7.134,3.092,10.415c-8.743-1.73-17.617-3.484-26.632-5.268c0.576-1.023,1.137-2.02,1.728-3.066
		c-2.525-0.564-2.648-0.438-3.477,3.346c-4.048,0-8.104,0.014-12.16-0.004c-5.182-0.022-10.403-0.202-15.236,2.078
		c-1.279,0.6-3.32,2.012-3.187,2.685c0.298,1.466,1.49,3.255,2.813,3.901c2.525,1.239,5.354,2.014,8.141,2.547
		c5.706,1.099,11.473,1.871,17.193,2.887c0.882,0.156,1.656,0.893,2.48,1.36c-0.514,0.822-0.84,1.962-1.581,2.396
		c-1.292,0.759-2.84,1.081-5.068,1.863c1.348,0.956,2.352,2.259,3.409,2.304c2.443,0.104,2.979,1.414,3.031,3.375
		c0.271,10.488,2.332,20.99-0.174,31.75c-2.804-1.375-5.539-2.501-8.048-4.001c-3.101-1.858-3.614-3.492-2.873-6.68
		c-0.751,0.257-1.489,0.692-1.694,1.305c-0.795,2.376-2.869,3.902-5.418,3.562c-7.872-1.053-15.731-2.201-23.604-3.254
		c-1.641-0.219-3.313-0.191-4.969-0.277c-0.084,0.396-0.168,0.789-0.252,1.186c9.026,7.033,20.634,7.751,31.004,11.816
		c-4.676,7.25-0.797,15.109-2.036,22.863h-19.454c0,3.449,0.135,6.525-0.027,9.582c-0.327,6.184-0.776,12.363-1.255,18.541
		c-0.265,3.395-0.326,6.875-1.169,10.139c-0.639,2.474-0.126,3.445,2.181,3.877c0.604,0.111,1.186,0.353,1.847,0.553
		c-1.003,1.521-2.128,2.888-2.886,4.431c-4.843,9.819-6.592,20.004-4.154,30.899c0.783,3.498,2.632,7.244,0.232,10.972
		c-1.701,2.644-2.699,5.36-2.313,8.758c0.24,2.123-0.973,4.443-1.681,6.627c-0.565,1.74-1.544,3.367-1.937,5.134
		C436.559,260.832,437.52,262.111,438.221,262.34z M641.824,134.486c2.141-0.396,3.655-0.674,5.315-0.98
		c-0.164-0.775-0.33-1.547-0.543-2.531c3.15-0.9,6.043-1.727,8.938-2.551c0.264,0.172,0.526,0.344,0.793,0.52
		c-0.445,1.08-0.824,2.197-1.354,3.238c-0.774,1.537-1.323,2.836,0.857,3.809c0.629,0.277,1.227,1.479,1.201,2.235
		c-0.146,3.947-0.5,7.892-0.808,12.211c-3.819,0.468-7.612,1.148-11.418,1.244c-0.969,0.025-2.78-1.754-2.848-2.791
		C641.654,144.139,641.824,139.352,641.824,134.486z M620.58,152.574c-2.008,0.047-4.021,0.012-6.644,0.012
		c0.185-2.086,0.32-3.813,0.49-5.541c0.142-1.377,0.553-2.994-1.516-3.146c-2.119-0.155-2.297-1.377-2.1-3.018
		c0.161-1.352,0.286-2.709,0.432-4.1h2.65c0.145,0.178,0.325,0.303,0.362,0.461c1.099,4.656,1.097,4.656,6.115,4.078
		c3.748-0.432,4.313,0.072,4.338,3.899c0.006,1.017,0.006,2.031,0,3.048C624.701,150.539,622.832,152.525,620.58,152.574z
		 M637.342,149.639c-0.022,1.566-0.719,2.502-2.576,2.438c-6.664-0.228-5.493,0.459-5.438-5.408
		c0.021-2.164-0.599-4.489,2.067-6.051c1.402-0.818,0.146-4.215-2.006-6.561c1.963-0.275,3.963-0.891,5.867-0.672
		c0.81,0.094,1.963,1.906,2.021,2.984C637.504,140.783,637.406,145.215,637.342,149.639z M607.035,78.596
		c10.242,3.199,20.781,3.607,31.596,3.486c2.719,13.841-0.217,27.643,0.324,41.396c0.035,0.939-0.996,2.426-1.892,2.798
		c-3.041,1.269-6.241,2.151-9.313,3.159c-0.461-0.379-1.023-0.84-1.586-1.299c-0.318,0.568-0.703,1.111-0.945,1.713
		c-0.643,1.602-2.096,2.836-1.188,5.092c0.315,0.793-1.479,2.854-2.729,3.756c-2.297,1.658-3.736,0.74-4.537-1.994
		c-1.08-3.699,1.304-6.654,1.861-9.986c0.074-0.456,1.355-0.713,2.082-1.063c0.059-0.3,0.117-0.598,0.178-0.898
		c-1.346-0.266-2.682-0.695-4.037-0.754c-1.483-0.064-2.254-0.504-2.756-2.035c-0.731-2.238-2.076-3.946-4.729-4.534
		c-1.293-0.286-2.213-2.052-3.525-2.503c-3.6-1.231-7.315-2.119-10.842-3.104C598.885,101.098,602.941,89.9,607.035,78.596z
		 M587.795,162.338c8.23-0.527,16.557-0.35,24.277-6.24c-0.211,3.004-0.359,5.127-0.521,7.418c0.965,0.146,1.73,0.262,2.564,0.392
		v5.178c-8.938,0.205-17.584,1.438-25.242,7.955c0.285-3.974-1.103-7.385,1.621-10.644c-1.189-0.231-2.195-0.43-3.312-0.647
		C587.389,164.602,587.578,163.543,587.795,162.338z M566.516,217.863c2.884,1.344,5.589,2.514,8.179,3.902
		c0.457,0.243,0.668,1.455,0.521,2.114c-0.08,0.365-1.198,0.824-1.737,0.711c-2.236-0.467-4.432-1.135-6.963-1.815V217.863
		L566.516,217.863z M566.619,225.676c1.481,0.49,2.715,0.895,3.942,1.297c0.019,0.223,0.035,0.445,0.054,0.666
		c-1.289,0.498-2.578,0.992-4.236,1.629C566.469,227.924,566.529,227.029,566.619,225.676z M555.782,227.525
		c1.952-0.83,3.113-1.322,4.669-1.98c0.11,1.449,0.184,2.398,0.276,3.602C559.151,228.629,557.889,228.217,555.782,227.525z
		 M551.871,222.385c0.533-3.453,0.977-6.924,1.477-10.533c8.822,3.396,7.587,2.205,7.142,10.996
		c-2.082,0.553-4.203,1.115-6.327,1.674C552.274,225.018,551.57,224.33,551.871,222.385z M497.42,141.781
		c0.261,0.086,0.465,0.76,0.471,1.164c0.041,2.846,0.021,5.693,0.021,9.088c-2.06,0-4.112,0.283-6.019-0.127
		c-0.87-0.188-2.018-1.709-2.065-2.678c-0.215-4.236-0.202-8.496-0.015-12.738c0.113-2.59,1.482-3.477,3.98-3.072
		c1.182,0.189,2.357,0.416,3.525,0.672c0.226,0.053,0.403,0.328,0.938,0.785c-1.141,0.557-1.938,0.941-2.813,1.367
		C495.566,138.281,494.271,140.758,497.42,141.781z M510.35,152.561c-2.208-0.092-4.76,0.922-6.381-1.59
		c-0.462-0.717-0.907-1.44-1.35-2.17c-0.043-0.068-0.008-0.182-0.01-0.275c-0.142-7.416-0.135-7.493,7.067-6.934
		c1.962,0.154,2.742-0.463,2.834-2.307c0.036-0.73,0.156-1.459,0.265-2.428c1.15-0.072,2.052-0.131,2.952-0.186
		c1.868,4.642,1.194,6.418-3.3,7.826c0.258,1.065,0.378,2.224,0.817,3.242C514.328,150.266,513.002,152.672,510.35,152.561z
		 M546.443,179.568c0.096,1.645,0.177,3.049,0.293,5.063c-2.156-2.035-3.806-3.592-5.79-5.467
		C543.055,179.318,544.676,179.438,546.443,179.568z M539.455,162.27c0.267,1.166,0.521,2.283,0.813,3.562
		c-1.171,0.14-2.147,0.254-2.573,0.308c0.241,3.452,0.471,6.75,0.758,10.879c-7.783-6.363-16.188-7.822-25.166-7.859v-5.217
		c0.617-0.113,1.31-0.244,2.271-0.426c-0.144-2.191-0.287-4.39-0.492-7.474C522.798,161.887,531.077,161.943,539.455,162.27z
		 M489.15,81.713c4.155,0,8.864,0.251,13.533-0.072c4.495-0.311,8.978-1.078,13.405-1.926c1.762-0.338,2.514,0.018,3.053,1.65
		c1.728,5.225,3.385,10.483,5.381,15.604c1.535,3.932,3.353,7.791,5.445,11.449c0.824,1.439,2.744,2.25,4.777,3.814
		c-2.387,0.191-4.006,0.426-5.629,0.43c-3.984,0.008-7.08,1.941-10.354,3.973c-2.751,1.709-5.126,3.346-6.255,6.494
		c-0.156,0.436-1.16,0.67-1.813,0.809c-1.386,0.297-2.8,0.468-4.498,0.739c3.556,3.927,5.52,7.788,4.217,12.739
		c-0.466,1.771-1.53,2.166-3.086,1.916c-2.922-0.469-4.826-4.211-3.57-6.51c-0.922-1.652-1.775-3.178-2.78-4.975
		c-0.493,0.77-0.88,1.373-1.124,1.75c-3.297-1.094-6.547-2.055-9.688-3.295c-0.788-0.313-1.726-1.494-1.754-2.305
		c-0.406-12.193-0.732-24.389-0.901-36.588C487.486,85.771,488.428,84.117,489.15,81.713z M471.975,131.932
		c-0.545-0.979-0.823-2.104-1.479-3.855c3.896,1.111,6.884,1.965,10.078,2.877c-0.23,0.877-0.429,1.623-0.666,2.523
		c1.729,0.293,3.326,0.564,5.531,0.938c0,4.969,0.17,9.937-0.152,14.871c-0.062,0.901-2.126,2.403-3.235,2.377
		c-3.662-0.082-7.311-0.74-11.093-1.195c-0.354-4.465-0.723-8.512-0.94-12.568c-0.032-0.613,0.5-1.652,1.008-1.836
		C473.64,135.119,472.928,133.652,471.975,131.932z"/>
</g>
</svg>
