<?xml version="1.0" encoding="utf-8"?>
<!-- Generator: Adobe Illustrator 16.0.0, SVG Export Plug-In . SVG Version: 6.00 Build 0)  -->
<!DOCTYPE svg PUBLIC "-//W3C//DTD SVG 1.1//EN" "http://www.w3.org/Graphics/SVG/1.1/DTD/svg11.dtd">
<svg version="1.1" id="Layer_1" xmlns="http://www.w3.org/2000/svg" xmlns:xlink="http://www.w3.org/1999/xlink" x="0px" y="0px"
	 width="1284.129px" height="319.311px" viewBox="0 0 1284.129 319.311" enable-background="new 0 0 1284.129 319.311"
	 xml:space="preserve">
<g>
	<path fill="#FFFFFF" d="M733.852,105.073c0.164,0.691,0.339,1.381,0.509,2.072c0.709-0.24,1.434-0.441,2.116-0.734
		c0.845-0.359,1.656-0.797,2.479-1.202L739.31,106l-1.95,2.07c0.184,0.373,0.364,0.747,0.547,1.122
		c1.778-0.524,3.563-1.051,4.899-1.441v3.889c1.06-0.576,2.121-1.154,3.529-1.923c0.338,0.13,1.184,0.723,2.049,0.744
		c6.818,0.153,10.486,5.864,15.707,8.819c0.353,0.201,0.822,0.83,0.734,1.089c-1.049,3.051,1.182,5.095,1.881,7.56
		c1.537,5.428,5.242,6.881,9.564,7.766c7.737,1.583,13.895,5.531,19.067,11.323c2.642,2.962,2.814,3.879-0.801,5.643
		c-3.004,1.465-6.523,1.864-10.004,2.786c0.041,0.234,0.024,0.951,0.285,1.55c1.879,4.409,5.866,5.098,9.981,5.705
		c8.174,1.206,10.725,7.505,6.063,14.318c-2.15,3.14-4.06,6.488-5.707,9.918c-6.025,12.527-11.539,25.312-17.982,37.609
		c-2.813,5.373-2.811,9.99-0.567,15.176c0.581,1.346,0.952,2.933,0.893,4.385c-0.211,4.869-0.6,9.734-1.033,14.591
		c-0.961,10.614-2.541,21.207-2.805,31.834c-0.191,7.594-2.014,12.981-9.709,15.67c-3.639,1.272-6.771,3.772-9.008,7.945h42.633
		c-0.33-3.379-0.943-6.48-0.879-9.57c0.176-8.597,0.6-17.188,0.992-25.781c0.59-12.766,1.272-25.521,1.813-38.287
		c0.084-1.973-0.457-3.965-0.545-5.954c-0.035-0.765,0.148-1.972,0.65-2.267c7.354-4.313,10.911-11.824,15.596-18.371
		c1.623-2.276,3.027-4.707,4.592-7.153c0.57,9.598,1.037,18.87,1.721,28.129c0.205,2.756,0.691,5.567,1.586,8.174
		c2.179,6.352,4.736,12.572,7.021,18.889c3.537,9.783,8.201,19.152,9.891,29.609c1.101,6.797,2.06,14.045,10.312,17.149
		c-0.742,0.902-1.195,1.479-1.679,2.033c-1.659,1.922-3.391,3.787-4.973,5.771c-0.947,1.183-1.238,2.296-0.637,3.306
		c0.77-0.025,1.549-0.045,2.332-0.031c5.213,0.092,10.432,0.328,15.649,0.52c2.312-0.313,4.627-0.602,6.949-0.832
		c1.605-0.063,3.221-0.12,4.838-0.165c-0.707-0.068-1.461-0.142-2.369-0.229c2.226-0.613,3.734-1.027,5.459-1.5
		c-0.051-7.777,0.525-15.646-5.104-21.873c-5.027-5.565-6.484-12.203-7.81-19.285c-1.223-6.536-3.475-12.997-6.12-19.129
		c-2.498-5.797-6.525-10.937-7.271-17.493c-0.1-0.873-0.59-1.738-1.039-2.525c-2.615-4.619-4.055-9.189-2.676-14.779
		c2.104-8.549,3.336-17.307,4.975-25.969c0.217-1.135,0.447-2.352,1.027-3.316c3.883-6.43,4.832-13.686,6.193-20.863
		c1.2-6.309,0.411-13.063,4.172-18.819c3.641-5.578,5.639-12.271,11.457-16.371c5.916-4.17,7.026-9.813,5.137-16.595
		c-0.879-3.155-3.269-6.301-1.178-9.896c0.18-0.309-0.041-0.928-0.216-1.346c-1.43-3.409-2.563-6.994-4.407-10.168
		c-4.181-7.188-8.384-14.398-15.582-19.246c-0.98-0.66-1.015-2.881-1.277-4.415c-0.568-3.259-0.703-6.63-1.66-9.755
		c-0.299-0.955-2.713-1.255-4.371-1.944c0.105-1.272,0.453-2.671,0.277-4.004c-0.273-2.13-0.416-4.509-1.48-6.251
		c-1.735-2.836-4.227-5.195-6.305-7.832c-6.604-8.391-18.697-9.131-26.391-1.566c-0.496,0.486-0.967,1.018-1.351,1.596
		c-1.272,1.922-2.711,3.777-3.666,5.853c-0.547,1.185-0.631,2.829-0.313,4.116c0.553,2.248,1.969,4.324,2.299,6.578
		c0.414,2.835,0.098,5.775,0.098,8.67c0.312-0.15,0.617-0.303,0.923-0.454c1.293,1.718,2.901,3.282,3.813,5.184
		c1.955,4.101,4.439,7.053,9.504,6.485c0.736-0.083,1.517,0.202,2.787,0.393c-0.606,1.313-0.856,2.484-1.553,3.242
		c-4.234,4.602-8.482,9.192-12.896,13.615c-3.563,3.569-6.135,7.421-6.205,12.721c-0.041,3.271-0.643,6.53-1.028,10.116
		c-3.017-1.902-5.691-3.058-8.89-1.276c0.32,0.75,0.47,1.456,0.873,1.958c1.004,1.261,2.107,2.439,3.201,3.625
		c2.088,2.263,1.74,5.153-0.512,7.728c-2.428,2.775-3.959,0.756-5.73-0.691c-3.768-3.072-7.606-6.057-11.313-9.203
		c-4.379-3.722-8.646-7.574-13.021-11.416c-1.797,1.607-2.309,1.684-5.674-0.682c-5.15-3.611-10.238-7.316-15.195-10.867
		c0.619-1.686,0.959-2.623,1.414-3.857c-1.707,0.646-2.862,1.084-4.018,1.52c-0.15-1.184-0.297-2.366-0.521-4.117
		c-1.307,0.52-2.536,1.007-3.116,1.24c-0.646-1.199-1.025-3.044-1.978-3.409c-1.498-0.573-3.377-0.151-5.094-0.151
		c-0.143-0.298-0.287-0.601-0.432-0.896c-2.257,3.18-4.519,6.361-6.775,9.543c0.389,0.109,0.775,0.217,1.162,0.326
		C733.311,102.776,733.578,103.925,733.852,105.073z"/>
</g>
</svg>
