<?xml version="1.0" encoding="utf-8"?>
<!-- Generator: Adobe Illustrator 16.0.0, SVG Export Plug-In . SVG Version: 6.00 Build 0)  -->
<!DOCTYPE svg PUBLIC "-//W3C//DTD SVG 1.1//EN" "http://www.w3.org/Graphics/SVG/1.1/DTD/svg11.dtd">
<svg version="1.1" id="Layer_1" xmlns="http://www.w3.org/2000/svg" xmlns:xlink="http://www.w3.org/1999/xlink" x="0px" y="0px"
	 width="1288.845px" height="408.311px" viewBox="0 0 1288.845 408.311" enable-background="new 0 0 1288.845 408.311"
	 xml:space="preserve">
<path fill="#400C31" d="M846.153,22.11c0.977,1.328,1.613,2.807,2.426,4.179c1.646,2.784,3.557,5.366,5.875,7.626
	c0.428,0.414,0.395,0.686,0.148,1.143c-0.82,1.515-1.688,3-2.4,4.574c-1.041,2.297-1.129,4.533,0.084,6.797
	c0.688,1.287,1.27,2.631,2.396,3.62c0.611,0.537,1.123,0.742,1.686-0.144c0.549-0.864,1.166-1.709,2.029-2.451
	c0.129,1.119,0.268,2.103,0.348,3.091c0.07,0.864,0.463,1.17,1.328,1.015c0.832-0.15,1.65-0.472,2.662-0.354
	c-0.377,0.932-1.193,1.286-1.822,1.8c-0.502,0.409-0.572,0.684-0.043,1.126c1.271,1.063,2.629,1.978,4.137,2.682
	c1.811,0.846,3.451,0.662,5.039-0.578c1.984-1.549,3.715-3.374,5.592-5.037c1.682-1.492,1.857-1.519,3.561-0.054
	c1.107,0.952,2.203,1.929,3.223,2.973c1.6,1.64,3.523,2.452,5.789,2.63c0.684,0.053,1.838-0.162,1.918,0.621
	c0.061,0.604-1.133,0.602-1.785,0.811c-0.82,0.262-1.66,0.459-2.488,0.697c-0.992,0.283-1.496,0.932-1.459,1.984
	c0.021,0.637,0.033,1.273,0.016,1.91c-0.037,1.721-0.611,2.117-2.279,1.592c-0.463-0.146-0.914-0.338-1.381-0.473
	c-1.674-0.49-2.604-0.143-3.504,1.361c-0.346,0.576-0.637,1.193-0.871,1.822c-0.371,0.996-0.934,1.004-1.729,0.482
	c-1.314-0.859-2.643-1.701-3.986-2.512c-3.279-1.969-6.848-1.859-10.455-1.4c-0.766,0.098-1.418,0.465-1.889,1.105
	c-0.135,0.18-0.287,0.408-0.535,0.342c-0.32-0.088-0.273-0.42-0.273-0.66c-0.002-0.637,0.029-1.271,0.064-1.908
	c0.066-1.25-0.619-2.369-1.746-2.881c-0.816-0.369-1.352,0.078-1.887,0.582c-0.24,0.229-0.5,0.611-0.822,0.508
	c-0.387-0.123-0.195-0.584-0.207-0.898c-0.037-0.928-0.455-1.246-1.307-0.824c-0.889,0.441-1.031-0.031-1.027-0.766
	c0-0.449-0.008-0.902-0.068-1.346c-0.309-2.229-2.369-3.074-4.15-1.715c-0.205,0.156-0.404,0.319-0.676,0.535
	c-0.006-0.201-0.043-0.308-0.008-0.386c1.857-4.426,0.146-8.183-2.234-11.798c-0.975-1.48-2.156-2.793-3.617-3.809
	c-0.58-0.404-0.646-0.738-0.158-1.228c0.156-0.157,0.252-0.372,0.396-0.545c1.488-1.787,2.082-3.774,1.383-6.063
	c-0.076-0.248-0.08-0.518-0.111-0.777c-0.182-1.473-0.182-1.473,1.242-1.552c1.459-0.081,2.75-1.303,3.109-2.956
	c0.234-1.07,0.188-2.161,0.223-3.247C845.919,22.968,845.8,22.544,846.153,22.11z"/>
<path fill="#400C31" d="M537.069,93.267c-0.467-1.523-0.674-2.932-1.282-4.219c-1.28-2.705-2.749-3.479-5.686-2.912
	c-0.491,0.094-0.755,0.076-0.901-0.473c-0.128-0.479-0.356-0.943-0.608-1.375c-1.015-1.738-2.576-2.146-4.312-1.146
	c-0.309,0.176-0.606,0.373-0.915,0.566c-0.074-0.139-0.131-0.213-0.155-0.295c-1.006-3.516-2-3.818-4.893-1.512
	c-0.893,0.711-1.766,1.469-2.738,2.055c-1.203,0.727-2.164,0.166-2.311-1.238c-0.098-0.934,0.18-1.813,0.428-2.693
	c0.296-1.055,0.658-2.1,0.859-3.174c0.581-3.111-1.563-5.23-4.648-4.648c-0.536,0.102-1.067,0.23-1.748,0.379
	c0.32-1.502,0.992-2.934,0.259-4.395c-0.631-1.258-1.676-1.539-3.973-1.018c0.572-2.049,1.825-4.152,0.054-6.045
	c-1.607-1.719-3.862-1.357-6.038-1.365c0.273-0.457,0.684-0.477,1.042-0.588c4.078-1.264,8.198-1.906,12.427-0.807
	c0.573,0.148,1.137,0.348,1.686,0.568c0.894,0.361,1.91,0.703,2.45,1.457c0.695,0.971-0.485,1.684-0.811,2.5
	c-1.713,4.299,0.303,6.621,4.753,7.547c0.721,0.15,1.392,0.004,1.467-0.967c0.089-1.15,0.716-1.941,1.88-2.545
	c0.203,1.223,0.718,2.16,2.174,1.961c0.504-0.066,0.458,0.328,0.428,0.645c-0.071,0.74-0.198,1.566-0.714,2.037
	c-0.979,0.893-0.71,1.674-0.29,2.717c1.614,3.996,5.851,4.918,8.798,1.844c1.35-1.408,1.236-1.332,2.335,0.281
	C539.75,81.792,539.06,87.382,537.069,93.267z"/>
<path fill-rule="evenodd" clip-rule="evenodd" d="M1219.831,35.642c0.25-4.564-0.645-5.49-4.596-4.805
	c0.588-5.98-0.387-6.857-6.939-6.229c3.736-3.174,12.574-4.461,16.887-2.545c0.992,0.441,1.244,0.869,0.834,1.891
	c-0.369,0.916-0.631,1.914-0.709,2.895c-0.25,3.102,3.904,6.033,6.799,4.91c1.006-0.391,0.621-1.27,0.91-1.908
	c0.426-0.943,0.232-2.008,2.311-1.023c2.773,1.314,2.408,2.385,1.279,4.33c-0.379,0.654,0.361,1.113,0.656,1.6
	c2.24,3.711,6.645,4.102,9.115,0.598c1.322-1.875,1.75-1.291,2.959,0.039c4.172,4.594,4.414,9.92,3.264,15.943
	c-0.662-1.248-1.145-2.287-1.744-3.256c-1.619-2.621-3.148-3.299-6.16-2.496c-1.051,0.281-1.313-0.225-1.797-0.855
	c-1.66-2.164-2.715-2.412-5.045-0.914c-0.957,0.613-1.045,0.174-1.451-0.49c-1.355-2.229-2.188-2.338-4.115-0.582
	c-0.852,0.773-1.588,1.674-2.422,2.469c-0.709,0.674-1.428,1.586-2.57,0.996c-1.074-0.553-0.965-1.662-0.906-2.658
	c0.051-0.84,0.129-1.693,0.322-2.512c1.15-4.879-2.389-7.637-6.229-5.461C1220.312,35.675,1220.056,35.622,1219.831,35.642z"/>
<path fill="#400C31" d="M680.263,72.257c-4.168-2.881-5.045-2.734-6.873,1.033c-5.053-3.732-5.447-3.689-9.846,1.643
	c1.043-6.211,2.934-11.23,7.504-14.971c1.422-1.162,2.205-0.947,3.35,0.545c2.754,3.588,5.205,3.771,8.244,0.982
	c1.391-1.275,2.518-2.529,0.455-4.264c-0.508-0.43-1.139-2.102-0.158-1.947c1.66,0.26,2.449-3.08,3.82-1.018
	c2.016,3.027,4.141,3.33,7.059,1.539c3.412-2.096,3.002-4.951,1.836-8.034c-0.037-0.095-0.004-0.218-0.004-0.329
	c6.881-1.855,12.232-0.047,17.447,6c-1.773-0.09-3.438-0.268-5.096-0.238c-3.109,0.059-3.279,3.988-5.174,4.58
	c-2.467,0.77-4.75,0.719-4.736,4.031c0.004,1.291-0.885,0.953-1.609,0.893c-2.305-0.201-2.887,1.084-2.598,3.055
	c0.193,1.295,0.52,2.574,0.717,3.869c0.145,0.971,0.326,2.027-0.773,2.621c-1.049,0.564-1.916,0.012-2.676-0.631
	c-1.004-0.844-1.912-1.807-2.918-2.646C684.661,65.985,682.206,66.927,680.263,72.257z"/>
<path fill="#400C31" d="M978.128,114.978c1.35-3.258,1.17-3.734-1.674-4.703c2.088-3.658,1.924-4.115-2.248-6.279
	c3.398-0.596,8.102,0.611,10.674,2.672c1.158,0.93,1.725,1.623,0.35,3.033c-1.918,1.969-1.695,3.666,0.297,5.314
	c1.09,0.902,2.213,1.879,3.34-0.041c0.213-0.363,1.227-0.865,1.199-0.418c-0.07,1.236,2.592,1.361,1.193,2.68
	c-1.826,1.719-1.619,3.229-0.188,4.904c1.686,1.975,3.582,1.705,5.559,0.475c0.182-0.113,0.422-0.137,0.631-0.199
	c2.111,4.393,1.199,8.004-1.85,12.732c-0.615-0.383-0.326-0.945-0.266-1.408c0.123-0.967,0.074-2.18-0.658-2.563
	c-2.67-1.389-3.535-5.059-6.947-5.41c-0.506-0.051-0.695-0.385-0.74-0.729c-0.309-2.436-1.781-1.643-3.221-1.268
	c-1.236,0.318-2.602,1.941-3.721,0.535c-1.041-1.309,0.479-2.518,1.178-3.648C983.032,117.425,982.198,115.677,978.128,114.978z"/>
</svg>
