<?xml version="1.0" encoding="utf-8"?>
<!-- Generator: Adobe Illustrator 16.0.0, SVG Export Plug-In . SVG Version: 6.00 Build 0)  -->
<!DOCTYPE svg PUBLIC "-//W3C//DTD SVG 1.1//EN" "http://www.w3.org/Graphics/SVG/1.1/DTD/svg11.dtd">
<svg version="1.1" id="Layer_1" xmlns="http://www.w3.org/2000/svg" xmlns:xlink="http://www.w3.org/1999/xlink" x="0px" y="0px"
	 width="1288.845px" height="408.311px" viewBox="0 0 1288.845 408.311" enable-background="new 0 0 1288.845 408.311"
	 xml:space="preserve">
<g>
	<g>
		<path fill="#400C31" d="M798.562,218.768c0.059,0.322,0.127,0.647,0.205,0.978c-0.006,0.024-0.009,0.05-0.015,0.074
			L798.562,218.768z"/>
	</g>
	<g>
		<path fill="#400C31" d="M724.479,167.726c0.422-0.611,0.328-1.126,0.656-2.252c0,0,9.48,5.205,14.269,8.066
			c-2.207-3.331-6.573-6.803-5.683-10.697c4.647,5.02,9.389,10.555,14.975,14.869l-0.094-0.516
			c-2.113-2.814-2.255-6.522-3.008-10.65l0.611,0.422c1.032-0.188,1.548-0.282,1.548-0.282c0.564,3.097,1.926,7.647,3.617,11.071
			l1.888,4.133c4.977,3.894,5.592,4.175,11.396,7.313l0.609,0.424c0.14-2.159-1.6-8.776-0.895-7.838l-0.094-0.515
			c0.296-0.429,1.541-2.87,2.028-3.506l-0.013-0.062c-0.752-4.129-2.442-7.555-3.616-11.072c1.032-0.189,2.158,0.14,2.158,0.14
			c0.746,4.095,2.413,7.499,3.267,12.086c1.788-1.803,3.901-4.94,3.821-5.378l-0.093-0.517c0.609,0.422,1.125,0.328,2.251,0.655
			c0,0-4.126,6.619-6.519,8.122l-0.61-0.423c1.08,3.002,1.551,5.583,2.207,9.196l-1.219-0.845c3.754,3.049,8.964,5.3,12.625,7.832
			l-0.095-0.516c-0.376-2.065-0.658-3.614-1.55-5.584l0.938-0.703c1.502,2.391,3.005,4.785,3.99,7.271c0,0,7.158,3.543,17.438,4.809
			c0.192-1.572,0.379-3.145,0.565-4.714c1.622-8.988-1.151-12.286-3.736-20.51c-1.232-3.849-2.066-8.059-2.635-12.402
			c-3.694-4.104-10.132-8.589-14.84-9.26c-4.462-0.637-17.146,5.295-18.772,2.332c0.987-0.542,2.263-1.497,3.313-1.69
			c-2.709-0.955-5.706-1.495-8.766-2.387c-0.128-0.701,0.032-1.816-0.097-2.519c5.035-0.192,9.882,2.546,15.14,1.589
			c-1.242-0.86-1.498-2.262-1.977-2.899c2.582,0.255,4.941,1.273,7.172,1.591c0.987-4.526,3.057-11.062-1.854-14.151
			c-2.9-2.007-10.391-1.366-9.783,3.956c-1.052,0.191-1.753,0.319-2.518,0.097c0.509-1.18-0.161-2.868,0.699-4.112
			c-2.391,0.798-2.518,0.097-4.176-1.05c3.729-1.404,7.107-2.744,10.548-3.733c-2.453,0.447-4.907,0.895-6.342-1.018
			c1.465,0.095,3.09-0.926,4.493-1.181c-1.85-2.198-5.896-2.548-3.604-5.863c4.974,3.44,13.262,9.175,19.606,10.191
			c-2.329-2.835-5.39-3.727-6.155-7.934c2.358,1.019,5.165,4.493,6.664,6.755c3.411,4.813,1.787,5.833,1.534,12.397
			c-0.158,5.101-1.242,3.124,2.328,6.821c1.52,1.32,5.47,3.607,6.618,4.083c-0.421-6.448-0.435-12.879-0.437-18.573
			c1.052-0.191,2.103-0.383,3.154-0.574l0.813,1.481c0.937,12.896,1.331,24.058,4.748,35.067
			c2.645-6.489,11.418-18.974,5.564-24.487c1.115,0.158,3.156-0.575,4.335-0.065c-1.054-3.793,1.24-7.108,2.355-10.934
			c0.604-2.646-0.29-7.554,1.208-9.275c3.38,6.628,0.672,9.656-1.813,15.906c-1.751,4.303-2.067,10.519-2.576,15.681
			c3.602-2.104,8.35-5.867,4.714-9.914c0.414,0.287,1.18,0.511,1.595,0.798c0.827-3.412-1.151-10.296,1.397-12.21
			c0.8,6.376-0.761,11.73-0.791,17.53c2.996-3.442,9.912-3.254,14.342-4.784l-0.128-0.701c-1.275-3.027-4.719-6.023-4.943-9.242
			c0.893,0.924,2.423,1.37,3.315,2.294c-0.574-3.155-2.871-7.808-4.498-10.771c-1.084-1.978-4.813-4.557-4.847-6.724
			c1.243,0.858,3.124,1.241,4.304,1.75c-1.148-2.325-2.296-4.651-2.744-7.106l1.053-0.19c2.774,5.289,5.198,10.643,7.336,16.411
			c2.198-1.849,3.568-4.271,4.524-6.981c0.924,3.09-2.134,6.184-2.325,9.116c-0.317,2.231,0.321,5.736,1.119,8.127
			c4.364-5.866,5.254-12.911,2.926-19.729c-0.734-2.041-5.453-8.062-2.648-8.574c0,0,3.156,3.41,4.082,6.501
			c1.404,3.729,1.276,7.013,3.733,10.55l-0.287,0.414c2.677-1.213,4.812-3.412,5.703-6.472l0.414,0.286
			c0.414,0.286,1.179,0.51,1.595,0.797c-2.518,4.08-6.597,5.548-9.241,8.928c-3.218,4.207-3.119,10.709-5.859,15.555
			c-4.589,2.646-10.262,3.319-14.915,5.614c-3.601,2.106-6.501,4.083-10.292,5.137c-0.586,2.682-1.291,5.386-1.902,8.072
			c4.851-3.122,7.289-7.618,13.312-9.065c4.559-0.83,8.191-0.768,12.493-2.999c-0.223,0.765-0.158,1.114-0.03,1.817
			c-3.57,0.287-7.521,2.456-10.484,4.082c1.084,1.975,3.538,1.528,5.705,1.496c-0.859,5.228-8.479-2.803-8.317,4.05l-1.753,0.319
			c-0.128-0.701-0.256-1.401-0.384-2.104c-6.29,1.809-8.266,10.69-9.117,16.734c0.473,0.751,0.959,1.503,1.476,2.262l-0.43,0.621
			c-0.429,6.597,0.721,12.908,0.819,19.41l-0.622-0.431c0.704,1.28,1.522,2.531,2.43,3.755c0.552-1.075,1.97-4.28,2.302-5.919
			c0.382-1.882,0.413-3.697,0.636-4.463c-0.191-1.051-1.85-2.198-1.754-3.665c0.828,0.575,2.358,1.02,3.187,1.595
			c1.85-1.786,3.697-3.572,5.545-5.357c-2.136-1.784-5.005-1.624-6.725,0.864c-0.478-0.64-0.957-1.276-1.499-2.265
			c2.389-4.781,5.832-1.786,9.944-1.086c-1.787-5.833-1.437-5.897,1.654-10.806c2.293-3.315,5.861-7.589,6.497-12.051
			c0.414,0.285,2.773,1.306,3.188,1.593c-0.854,1.709-2.214,3.696-3.621,5.745c4.764-1.901,11.473-6.828,14.888-10.514
			c0.478,0.636,0.956,1.273,1.083,1.975c-6.016,4.518-12.829,8.211-18.882,12.932c-1.348,2.196-2.371,4.287-2.482,5.993
			c-0.667,6.278,6.187,10.102-3.182,14.344c-0.516,5.65,0.382,14.727-1.609,20.837c5.307,4.865,11.017,9.506,15.102,14.323
			c0.785-1.32,1.797-2.783,2.653-4.021c-1.214-4.361-3.625-8.184-4.155-13.039l0.128,0.701c2.865-8.128,5.764-18.074,9.808-25.692
			l-0.063-0.352c1.306-2.773-2.17-7.936-2.17-7.936c-0.83-0.573-2.008-1.083-2.487-1.721c0,0-0.191-1.052,0.032-1.816
			c0.854,0.886,2.287,1.336,3.191,2.184c-0.498-1.326-0.829-3.133-1.058-4.384c0,0,1.052-0.19,1.402-0.256l1.052-0.19
			c-0.573,0.828,3.285,8.093,4.211,11.186l0.351-0.064c3.76-3.22,5.033-8.16,8.028-11.604c2.994-3.444,7.297-5.676,7.869-10.488
			c0.765,0.222,1.816,0.03,2.933,0.189l0.479,0.637c-2.07,2.552-13.319,14.38-13.285,16.547l0.351-0.063
			c4.558-0.83,8.796-3.414,12.683-5.935c0.479,0.64,1.531,0.446,1.945,0.732l-0.351,0.063c-2.517,4.081-11.409,4.977-15.265,9.664
			c-5.926,7.236-8.186,16.704-12.868,24.801c0.41,2.25,1.292,4.261,2.328,6.204c7.036-8.354,17.557-13.371,22.909-22.755
			c2.804-4.494,3.247-10.009,4.873-15.013c1.272-4.94,0.219-8.733,1.206-13.26c0.956,1.275,1.754,3.665,1.786,5.832
			c0.446-1.53,1.529-3.539,1.624-5.004c0.351-0.064,1.116,0.159,1.466,0.094c-1.933,4.96-4.746,14.588-3.907,20.255
			c2.077-6.525,9.841-11.56,11.621-17.675c1.052-0.192,1.882,0.382,2.36,1.018l0.7-0.126c-3.68,5.319-9.063,10.951-11.928,17.168
			c2.577-2.446,5.396-4.912,7.979-7.032c0.764,0.223,1.179,0.511,2.008,1.083c-4.976,5.888-10.965,11.959-16.369,17.58
			c5.129,0.694,10.681-1.717,15.29-3.618c0.103,0.56,0.202,1.124,0.157,1.895c-3.87,3.448-15.785,4.24-21.285,7.387l-1.506,1.181
			c-3.732,4.537-11.734,12.652-15.268,17.742c0.473,0.996,0.895,2.024,1.228,3.107c1.411,5.884-4.214,13.691-7.295,19.562
			c0.882,6.188,1.438,12.438,2.202,18.649c0.938-2.404,2.227-4.231,1.563-7.868c0.958,1.275,1.085,1.977,2.042,3.251
			c1.527-7.522,4.395-11.666,9.365-16.195c-0.445,1.531,0.639,3.507,0.192,5.037c5.227-3.125,9.112-9.629,15.806-8.676
			c-7.009,9.246-15.868,12.309-20.39,23.275c-0.836,1.935-3.125,17.286-5.188,20.183c1.83,7.947,4.057,15.938,6.238,23.664
			c2.154,8.845,3.785,23.758,9.954,30.785l-0.526,0.095c4.353,3.01,17.119,10.465,17.885,14.671l-9.035,1.102
			c-9.182-8.649-14.058-5.587-20.411,4.263l-7.888,1.437c0.906-3.967,2.148-9.082-3.494-10.229c-0.955,0.718-1.386,1.34-1.72,2.487
			c0.382,2.103,0.337,4.828,1.244,6.835l-4.015,1.818c-0.383-2.103-1.341-7.361-2.584-8.222c-8.799-6.545-8.985,4.354-9.989,7.796
			l-8.604,0.48c1.098-2.917,2.723-5.928,3.821-8.845c-4.59-1.338-12.143,4.928-16.778,6.317l-11.09,4.734
			c2.58-3.729,8.075-12.337,7.501-15.491c-0.385-8.079,3.819-14.821,5.729-22.231c1.956-10.138,1.713-20.415,3.145-30.454
			c0.984-6.909,1.903-14.175,2.811-21.503c-1.179,0.042-2.438,0.18-3.809,0.429c0,0-0.381-0.933-0.572-1.399
			c1.474-0.371,2.95-0.742,4.629-1.03c0.021-0.162,0.04-0.323,0.061-0.484c-6.11-2.219-21.084-1.271-22.908-5.72
			c3.562,0.718,7.483-0.346,10.771,1.029c-0.482-7.154,2.732-13.921-5.952-17.168c-4.931-2.063-17.19,3.237-19.569-1.233
			c4.333-2.05,9.571-2.563,14.042-4.942c-2.409-2.553-3.693-5.021-7.149-4.148c-2.987,0.681-3.323,5.176-6.092,4.403
			c1.376-3.286,4.203-6.353,5.907-9.502c-3.532-2.637-7.774-6.344-8.182-9.989c-0.161-2.386,1.596-4.741,1.765-6.986
			c0.168-2.249-0.269-3.978-0.377-5.566c4.244,3.706,2.791,3.483,2.784,8.118c0.377,5.563,0.735,3.783,4.842,7.818
			c-0.406-3.646-2.073-7.048-2.616-10.365c4.494,0.335,7.081,12.618,8.938,16.486c1.293-2.163,0.282-5.289,3.409-6.298
			c-0.963,2.3-1.405,5.205-2.368,7.506c5.613,5.052,17.615,7.756,21.416,14.366c1.476,2.935-0.067,8.47,0.477,11.787
			c0.903,0.378,1.912,0.787,2.972,1.212c1.669-6.102,3.289-12.515,2.261-18.167l0.813,1.48c-5-10.13-15.734-23.798-18.068-33.724
			c0.709-3.757,1.278-7.488,1.782-11.208c-13.896,1.348-30.592,10.351-42.737,7.509l-1.023-2.198l5.322-0.608
			c0,0,8.972,0.539,18.364-4.521l-0.61-0.423c-2.769-0.563-5.961-0.515-8.729-1.076l0.327-1.299
			c-0.188-1.03,9.479-0.488,14.501,0.731l0.516-0.095c-21.729-10.974-41.818-27.578-61.483-38.926L724.479,167.726z"/>
	</g>
	<g>
		<path fill="#400C31" d="M887.624,206.313c0.032-0.226,0.05-0.43,0.061-0.624c0.055-0.047,0.111-0.093,0.162-0.143L887.624,206.313
			z"/>
	</g>
</g>
</svg>
