<?xml version="1.0" encoding="utf-8"?>
<!-- Generator: Adobe Illustrator 17.0.0, SVG Export Plug-In . SVG Version: 6.00 Build 0)  -->
<!DOCTYPE svg PUBLIC "-//W3C//DTD SVG 1.1//EN" "http://www.w3.org/Graphics/SVG/1.1/DTD/svg11.dtd">
<svg version="1.1" id="Layer_1" xmlns="http://www.w3.org/2000/svg" xmlns:xlink="http://www.w3.org/1999/xlink" x="0px" y="0px"
	 width="1288.845px" height="154.655px" viewBox="0 253.655 1288.845 154.655" enable-background="new 0 253.655 1288.845 154.655"
	 xml:space="preserve">
<path fill="#400C31" d="M1245.105,319.642c-6.54-5.35-17.44-12.28-24.92-16.97c-14.01-8.03-0.93-31.25-14.95-39.29l-140.79,0.89
	c-5.609,0-124.6,30.14-131.14,34.16c-13.08,7.37-25.39,8.02-28.03,20.76c-4.46,21.59-70.625,13.33-82.775,20.7
	c-5.769,3.36-23.654-4.57-33.654,6.25v4.05c-2-0.33-2.565-0.54-3.815-0.63c-12.26-0.9-24.173,5.33-30.873,15.26
	c-14.729-0.609-29.517-0.979-44.276-1.01c-1.391,0-2.803,0-4.192,0.01c-0.36-0.029-0.732-0.06-1.082-0.09
	c-10.35-0.939-20.736-1.2-31.105-0.71c-21.49,1-42.593,4.95-64.203,3.43c-0.97-0.08-1.932-0.18-2.902-0.29
	c-0.26-0.04-0.63-0.1-1.1-0.17c-2.2-0.33-4.391-0.72-6.581-1.09c-5.77-0.99-11.56-1.88-17.391-2.49
	c-11.19-1.18-21.81,0.69-32.05,5.2c-3.24,1.42-5.32,3.82-6.42,6.62c-3.69-0.17-7.38-0.35-11.06-0.559
	c-31.27-1.79-62.17-4.511-92.36-13.191c-17.29-4.979-34.06-11.15-52.21-12.18c-14.69-0.82-29.12,3.41-43.02,8.04
	c-9.42-2.11-18.99-3.561-28.88-3.82c-15.91-0.4-31.97,0.83-47.89,1.07c-16.25,0.239-32.5,0.149-48.74-0.46
	c-31.21-1.181-60.77-5.67-91.36-11.95c-15.27-3.13-30.24-7.15-45.3-11.16c-7.28-1.95-14.63-3.63-21.94-5.44
	c-6.51-1.619-16.14-4.06-20.15-5.949c-2.79-1.32-5.4-3.011-7.91-4.811c0.64,0.42-1.88-1.59-2.03-1.72c-1.41-1.22-2.75-2.51-4.1-3.8
	c-5.44-5.19-10.61-10.59-16.45-15.351c-1.842-1.497-3.782-2.674-5.832-3.438c0.122,1.002,0.191,2.018,0.191,3.048
	c0,0.503-0.018,1.001-0.048,1.497c0.03,0.498,0.048,0.999,0.048,1.503c0,0.506-0.019,1.009-0.049,1.508
	c0.029,0.495,0.049,0.991,0.049,1.492c0,3.549-0.743,6.949-2.078,10.055c0.049,0.348,0.103,0.693,0.151,1.041
	c1.112,8.054,2.011,15.65,1.025,23.741c-0.939,7.699-2.418,15.086-4.211,22.614c-0.23,0.968-0.511,3.201-0.594,3.612
	c-0.037,0.654-0.077,1.309-0.088,1.964c-0.048,2.981-0.019,5.963,0.211,8.938c0.137,1.773,0.278,3.548,0.487,5.314
	c0.007,0.061,0.013,0.11,0.02,0.169c0.448,2.883,0.927,5.761,1.423,8.636c0.697,4.042,1.437,8.124,2.097,12.227
	c1.848,2.131,3.996,4.062,6.557,5.769c7.66,5.1,18.41,5.28,27.26,4.97c7.48-0.27,14.78-1.14,22.28-0.87
	c11.92,0.44,23.81,1.271,35.7,2.09c23.23,1.61,46.49,3.311,69.79,2.73c3.42-0.08,6.6-1.28,9.14-3.23
	c14.19,3.931,28.39,7.23,43.05,9.03c15.58,1.91,31.33,2.16,47.01,1.82c35.08-0.747,71.137-5.36,106.307-4.411
	c4.784-6.157,12.237-10.179,20.493-10.179c4.306,0,8.392,1.098,11.998,3.018c3.606-1.921,7.694-3.018,12.002-3.018
	c3.412,0,6.685,0.692,9.692,1.932c0.232-1.239,0.29-2.535,0.188-3.832c1.77,0.19,3.54,0.38,5.32,0.57
	c31.81,3.41,63.78,5.609,95.79,5.26c15.88-0.17,31.74-1.1,47.52-2.82c0.62-0.069,1.24-0.149,1.87-0.22
	c10.23,0.33,20.46,0.63,30.68,1.01c18.1,0.66,36.17,1.84,54.25,2.83c17.261,0.94,34.521,0.83,51.771,1.58
	c29.83,1.29,62.019,6.101,90.91-3.88c0.8-0.28,1.56-0.6,2.3-0.97l482.71-0.221v-42.539c0-7.03,0-7.03,0-16.851
	C1286.845,339.812,1251.645,324.332,1245.105,319.642z M24.485,376.952c-0.13-0.239-0.26-0.47-0.39-0.71
	c0.49,0.33,0.97,0.67,1.46,0.99C25.195,377.142,24.845,377.043,24.485,376.952z"/>
</svg>
