<?xml version="1.0" encoding="utf-8"?>
<!-- Generator: Adobe Illustrator 16.0.0, SVG Export Plug-In . SVG Version: 6.00 Build 0)  -->
<!DOCTYPE svg PUBLIC "-//W3C//DTD SVG 1.1//EN" "http://www.w3.org/Graphics/SVG/1.1/DTD/svg11.dtd">
<svg version="1.1" id="Layer_1" xmlns="http://www.w3.org/2000/svg" xmlns:xlink="http://www.w3.org/1999/xlink" x="0px" y="0px"
	 width="1288.845px" height="408.311px" viewBox="0 0 1288.845 408.311" enable-background="new 0 0 1288.845 408.311"
	 xml:space="preserve">
<g>
	<g>
		<path fill="#400C31" d="M963.264,261.694c0-2.576,0-5.152,0-7.729c3.001-0.097,5.93-0.096,8.643,0.249
			c0,0,2.274,0.868,3.639,1.736H976c-0.42-3.207-0.066-6.783-0.728-10.047c-0.896,1.176-2.911,3.538-2.911,3.538
			c-2.925,0-5.998,0-9.098,0c0-0.506,0-1.013,0-1.519c0.683-1.952,1.819-3.688,2.502-5.423l0.227-0.435
			c-3.639,0.435-7.277,0-10.461-0.435h-0.911c0.911,1.736,1.819,3.905,2.73,5.642v0.433c0,0.579-0.012,1.158-0.028,1.736
			c-2.151,0-4.274,0-6.341,0c-2.273,0-3.639-0.867-5.003-2.603h-0.455c0,2.603,1.819,9.545,1.819,9.545v0.867
			c0.455-0.867,1.365-2.169,2.274-3.037c2.414,0.145,4.928,0.096,7.458,0.001c-0.162,2.52-0.328,5.04-0.302,7.56
			c-18.413,1.319-17.413,14.179-17.413,14.179l-4.754,44.904h25.325h1.709h24.821l-4.248-44.904
			C982.214,275.954,983.22,262.394,963.264,261.694z"/>
	</g>
</g>
<g>
	<path fill="#400C31" d="M1274.151,275.311c-0.343-2.649-1.5-4.901-4.52-4.824l0.55-0.389c1.347-9.163-13.113-10.398-12.96-2.487
		c-4.312-1.559-5.644,1.367-6.526,4.783c-11.55,2.376-12.202,11.904-12.202,11.904l-0.225,48.637l15.048,2.212l1.812,0.266
		l14.509,2.133l14.32-46.565C1283.957,290.979,1286.239,280.776,1274.151,275.311z"/>
</g>
</svg>
