<?xml version="1.0" encoding="utf-8"?>
<!-- Generator: Adobe Illustrator 16.0.0, SVG Export Plug-In . SVG Version: 6.00 Build 0)  -->
<!DOCTYPE svg PUBLIC "-//W3C//DTD SVG 1.1//EN" "http://www.w3.org/Graphics/SVG/1.1/DTD/svg11.dtd">
<svg version="1.1" id="Layer_1" xmlns="http://www.w3.org/2000/svg" xmlns:xlink="http://www.w3.org/1999/xlink" x="0px" y="0px"
	 width="1288.845px" height="408.311px" viewBox="0 0 1288.845 408.311" enable-background="new 0 0 1288.845 408.311"
	 xml:space="preserve">
<g>
	<path fill="#400C31" d="M1198.959,148.979c-11.49,0-19.015,0-30.505,0h-1.093c0-10.771,0-22.262,0-33.753v-0.717
		c1.436,0,2.872,0,4.309-0.36h0.718c-4.309-5.025-5.744-11.131-10.771-17.594c-1.454,1.455-2.548,3.21-3.508,5.074l-0.802,1.389
		c0-3.622,0-5.949,0-7.393c0-1.56,0-2.086,0-2.09c0-1.443,0-3.771,0-7.393l1.795,0.358c3.844,0,7.571,0,11.132,0l-0.718-1.436
		c-12.927-10.772-19.39-29.444-28.726-43.089c0,0.719-0.718,2.155-1.436,2.155c-2.873,12.926-12.927,35.188-24.417,42.369
		c2.728,0,5.486,0,8.258,0l1.796-0.358c0,22.98,0,13.644,0,37.342l-1.436,0.359c-7.379,0-14.712,0-22.022,0l-1.677-0.238V102.78
		l1.676,0.271c3.458,0,6.914,0,10.371,0l-1.077-0.538c-12.774-10.113-15.552-17.075-14.054-32.315c-0.752,0-1.512-0.008-2.273-0.02
		c0.036-1.188,0.136-2.373,0.194-3.56c0.049-0.95,0.152-2.071-0.215-2.976c-0.132-0.324-0.822-0.129-0.694,0.187
		c0.239,0.588,0.275,1.262,0.256,1.93c-1.291,0-2.58,0-3.871,0c0-0.347,0-0.693,0-1.039c0-0.136-0.693-0.028-0.693,0.187
		c0,0.283,0,0.567,0,0.853c-0.846,0-1.692,0-2.538,0c0-0.526,0-1.052,0-1.577c0-0.164-0.693-0.048-0.693,0.186
		c0,0.464,0,0.927,0,1.392c-1.025,0-2.051,0-3.076,0c0-0.167,0-0.334,0-0.5c0-0.096-0.694-0.001-0.694,0.186
		c0,0.104,0,0.209,0,0.314c-0.795,0-1.59,0-2.387,0c-0.156-0.545-0.378-1.073-0.688-1.577c-0.129-0.209-0.784,0.038-0.694,0.186
		c0.276,0.447,0.479,0.913,0.633,1.392c-1.019,0-2.035,0-3.053,0c-0.306-0.74-0.719-1.455-1.217-2.147
		c-0.109-0.152-0.778,0.071-0.649,0.249c0.441,0.614,0.815,1.245,1.104,1.898c-0.004,0-0.01,0-0.014,0
		c-0.134,0-0.787,0.263-0.455,0.263c0.193,0,0.387,0,0.58,0c0.372,0.92,0.572,1.882,0.546,2.896
		c-0.844-0.106-1.684-0.216-2.515-0.334c3.231,10.771,1.077,29.621-10.771,33.93l-1.076,0.538c3.104,0,6.209,0,9.314,0l1.437-0.271
		v21.304l-1.437-0.239c-11.367,0-22.758,0-34.253,0c0.744,0.958,1.697,1.915,2.655,2.873l-0.718,1.436
		c-0.719,10.772-5.027,24.417-12.928,31.599l-0.694,0.929c2.692,0.539,4.31,2.692,4.848,4.847c0,12.267,0,24.98,0,37.7l-0.921,4.28
		c-6.463-9.336-8.259-15.44-15.439-23.341l-0.719-0.717c-7.182,10.771-17.953,33.034-30.162,38.778l15.082,1.437
		c0,17.008,10.482,42.404,10.758,60.323c15.285,0,30.57,0,45.855,0v-3.161h31.396v3.161c31.944,0,63.888,0,95.83,0l0.72-1.437
		c-3.592-36.625,15.798-50.269,11.489-86.894c2.42,0,4.008,0,5.013,0c1.186,0,1.564,0,1.544,0c1.092,0,2.864,0,5.651,0l2.155,1.436
		C1201.113,181.295,1196.805,166.215,1198.959,148.979z M1020.575,225.771v20.01h-6.423h-0.533h-6.423v-20.01
		c0,0-1.562-6.104,6.423-6.367v-0.014c0.093,0,0.178,0.005,0.267,0.007c0.09-0.002,0.174-0.007,0.267-0.007v0.014
		C1022.137,219.666,1020.575,225.771,1020.575,225.771z M1090.169,66.022c1.245,0,2.49,0,3.733,0c0.027,0,0.074-0.01,0.129-0.026
		c-0.017,0.361-0.044,0.717-0.061,1.054c-0.052,1.04-0.14,2.079-0.175,3.12c-1.2-0.022-2.411-0.062-3.627-0.111
		C1090.169,68.714,1090.169,67.368,1090.169,66.022z M1086.938,66.022c0.846,0,1.692,0,2.538,0c0,1.335,0,2.671,0,4.007
		c-0.845-0.038-1.69-0.081-2.538-0.132C1086.938,68.606,1086.938,67.314,1086.938,66.022z M1083.168,66.022c1.025,0,2.051,0,3.076,0
		c0,1.278,0,2.556,0,3.833c-1.026-0.064-2.052-0.138-3.076-0.222C1083.168,68.431,1083.168,67.227,1083.168,66.022z
		 M1082.474,66.022c0,1.186,0,2.372,0,3.558c-0.668-0.057-1.333-0.122-1.999-0.188c-0.005-1.14-0.045-2.282-0.317-3.369
		C1080.93,66.022,1081.701,66.022,1082.474,66.022z M1085.974,100.371v-0.012c0.092,0,0.177,0.005,0.267,0.006
		c0.09-0.001,0.174-0.006,0.267-0.006v0.012c7.983,0.264,6.423,6.367,6.423,6.367v20.01h-6.423h-0.533h-6.423v-20.01
		C1079.551,106.738,1077.991,100.635,1085.974,100.371z M1079.416,66.022c0.294,1.062,0.353,2.183,0.363,3.304
		c-0.979-0.1-1.953-0.208-2.922-0.325c0.061-1.041-0.113-2.03-0.469-2.979C1077.397,66.022,1078.407,66.022,1079.416,66.022z
		 M1073.047,169.31v-0.014c0.093,0,0.178,0.006,0.268,0.007c0.09-0.001,0.175-0.007,0.267-0.007v0.014
		c0.432,0.014,0.832,0.049,1.209,0.095v-14.193c0,0-2.671-6.105,10.992-6.367v-0.013c0.159,0,0.304,0.004,0.458,0.006
		c0.152-0.002,0.297-0.006,0.456-0.006v0.013c13.662,0.262,10.992,6.367,10.992,6.367v14.12c0.147-0.008,0.291-0.017,0.443-0.021
		v-0.014c0.11,0,0.21,0.006,0.316,0.007c0.106-0.001,0.207-0.007,0.315-0.007v0.014c9.456,0.262,7.608,6.367,7.608,6.367v20.01
		h-7.608h-0.632h-5.202h-2.405h-4.018h-0.533h-5.97h-0.453h-5.97h-0.534h-6.422v-20.01
		C1066.625,175.677,1065.064,169.571,1073.047,169.31z M1109.911,207.148v40.215l-7.182-0.718l0.239-33.036L1109.911,207.148z
		 M1094.111,207.148v40.215h-12.927v-40.215H1094.111z M1056.846,175.677v20.01h-6.423h-0.534h-6.422v-20.01
		c0,0-1.561-6.105,6.422-6.367v-0.014c0.093,0,0.177,0.006,0.268,0.007c0.09-0.001,0.174-0.007,0.267-0.007v0.014
		C1058.406,169.571,1056.846,175.677,1056.846,175.677z M1092.173,279.378h-31.397v-3.864h31.397V279.378z M1097.004,272.615
		h-31.397v-3.864h31.397V272.615z M1104.731,266.336h-31.397v-3.864h31.397V266.336z M1108.112,260.057h-31.397v-3.864h31.397
		V260.057z M1111.011,253.776h-31.397v-3.863h31.397V253.776z M1132.245,175.677v20.01h-6.422h-0.534h-6.422v-20.01
		c0,0-1.562-6.105,6.422-6.367v-0.014c0.092,0,0.177,0.006,0.267,0.007c0.09-0.001,0.175-0.007,0.268-0.007v0.014
		C1133.806,169.571,1132.245,175.677,1132.245,175.677z M1141.445,83.677v-0.013c0.093,0,0.178,0.004,0.268,0.006
		c0.09-0.002,0.175-0.006,0.267-0.006v0.013c7.983,0.262,6.423,6.367,6.423,6.367v20.009h-6.423h-0.534h-6.422V90.044
		C1135.023,90.044,1133.464,83.938,1141.445,83.677z M1153.788,175.677v20.01h-6.422h-0.534h-6.423v-20.01
		c0,0-1.561-6.105,6.423-6.367v-0.014c0.093,0,0.177,0.006,0.267,0.007c0.09-0.001,0.174-0.007,0.268-0.007v0.014
		C1155.349,169.571,1153.788,175.677,1153.788,175.677z M1183.591,206.381v20.009h-6.423h-0.533h-6.423v-20.009
		c0,0-1.561-6.104,6.423-6.367V200c0.092,0,0.177,0.006,0.267,0.007c0.09-0.001,0.175-0.007,0.267-0.007v0.014
		C1185.151,200.276,1183.591,206.381,1183.591,206.381z"/>
</g>
</svg>
