<?xml version="1.0" encoding="utf-8"?>
<!-- Generator: Adobe Illustrator 16.0.0, SVG Export Plug-In . SVG Version: 6.00 Build 0)  -->
<!DOCTYPE svg PUBLIC "-//W3C//DTD SVG 1.1//EN" "http://www.w3.org/Graphics/SVG/1.1/DTD/svg11.dtd">
<svg version="1.1" id="Layer_1" xmlns="http://www.w3.org/2000/svg" xmlns:xlink="http://www.w3.org/1999/xlink" x="0px" y="0px"
	 width="1288.845px" height="408.311px" viewBox="0 0 1288.845 408.311" enable-background="new 0 0 1288.845 408.311"
	 xml:space="preserve">
<g>
	<path fill="#400C31" d="M667.798,326.892c-0.343-2.649-1.5-4.901-4.52-4.824l0.55-0.389c1.347-9.163-13.113-10.398-12.96-2.487
		c-4.312-1.559-5.644,1.367-6.526,4.783c-11.55,2.376-12.202,11.904-12.202,11.904l-0.225,48.637l15.048,2.212l1.812,0.266
		l14.509,2.133l14.32-46.565C677.604,342.561,679.886,332.357,667.798,326.892z"/>
</g>
<g>
	<g>
		<path fill="#400C31" d="M516.98,321.875c-3.49,0-6.643,0-9.698,0c0-3.142,0-6.379,0-9.646c3.518,0.281,7.037,0.504,10.555,0.538
			c0.222-1.957,1.033-4.939,1.845-7.266c-4.133,0.021-8.267,0.161-12.399,0.207c0-3.149,0-6.27,0-9.313
			c-2.699-0.005-5.352-0.054-7.632-0.458c0,3.229,0.006,6.461,0.04,9.69c-3.511-0.134-7.022-0.433-10.533-1.042v0.91
			c-0.675,1.933-0.869,3.859-0.927,5.471c3.857,0.04,7.715,0.307,11.572,0.627c0.094,3.428,0.247,6.854,0.497,10.281
			c-2.128,0-4.329,0-6.69,0c-3.816,3.64-8.586,7.279-12.402,11.828c0,18.806,3.816,36.701,3.816,55.507
			c7.167,0,10.848,1.224,18.125,1.329c0,0.013,0,0.023,0,0.035c0.711,0,1.43-0.007,2.146-0.013c0.717,0.006,1.435,0.013,2.146,0.013
			c0-0.012,0-0.022,0-0.035c7.277-0.105,8.574,0.491,15.741,0.491c0-18.806,6.2-38.521,6.2-57.327
			C525.565,329.154,520.796,325.515,516.98,321.875z"/>
	</g>
</g>
</svg>
