<?xml version="1.0" encoding="utf-8"?>
<!-- Generator: Adobe Illustrator 16.0.0, SVG Export Plug-In . SVG Version: 6.00 Build 0)  -->
<!DOCTYPE svg PUBLIC "-//W3C//DTD SVG 1.1//EN" "http://www.w3.org/Graphics/SVG/1.1/DTD/svg11.dtd">
<svg version="1.1" id="Layer_1" xmlns="http://www.w3.org/2000/svg" xmlns:xlink="http://www.w3.org/1999/xlink" x="0px" y="0px"
	 width="1290.281px" height="319.311px" viewBox="0 0 1290.281 319.311" enable-background="new 0 0 1290.281 319.311"
	 xml:space="preserve">
<path fill="#400C31" d="M1356.853,315.84c-2.923-2.377-5.968-4.348-9.125-6.021c-0.317-2.393-1.323-4.645-3.068-6.173
	c-16.921-14.827-33.389-30.131-48.775-46.558c-2.609-2.786-5.637-3.687-8.483-3.332c-9.825-7.486-31.908-17.586-36.983-21.225
	c-6.577-5.38-17.418-12.35-24.94-17.065c-14.089-8.076-0.875-31.426-14.975-39.512l-141.553,0.895
	c-5.642,0-125.287,30.311-131.863,34.354c-13.154,7.411-25.525,8.064-28.181,20.877c-4.485,21.711-70.856,13.404-83.075,20.816
	c-5.803,3.379-23.678-4.596-33.678,6.285v4.072c-2-0.332-2.742-0.543-3.998-0.633c-12.33-0.906-24.391,5.359-31.129,15.346
	c-14.813-0.613-29.723-0.985-44.566-1.016c-1.398,0-2.839,0-4.235,0.01c-0.363-0.029-0.748-0.061-1.1-0.09
	c-10.407-0.945-20.857-1.207-31.285-0.715c-21.611,1.006-42.835,4.979-64.567,3.449c-0.975-0.08-1.944-0.181-2.919-0.291
	c-0.262-0.041-0.635-0.102-1.107-0.172c-2.212-0.332-4.416-0.724-6.618-1.096c-5.803-0.996-11.625-1.891-17.488-2.504
	c-11.254-1.187-21.934,0.693-32.23,5.229c-3.259,1.429-5.351,3.842-6.457,6.658c-3.71-0.171-7.422-0.352-11.122-0.563
	c-31.445-1.801-62.52-4.537-92.88-13.266c-17.388-5.007-34.252-11.213-52.505-12.248c-14.772-0.824-29.284,3.43-43.262,8.086
	c-9.473-2.123-19.097-3.581-29.042-3.842c-16-0.402-32.151,0.834-48.161,1.076c-16.341,0.24-32.683,0.15-49.015-0.463
	c-31.385-1.188-61.111-5.701-91.874-12.018c-15.355-3.147-30.41-7.19-45.556-11.223c-7.32-1.961-14.712-3.65-22.063-5.471
	c-6.546-1.629-16.231-4.083-20.264-5.983c-2.805-1.327-5.43-3.027-7.955-4.837c0.645,0.422-1.89-1.6-2.04-1.73
	c-1.418-1.227-2.766-2.523-4.123-3.82c-1.279-1.221-2.544-2.454-3.806-3.687c0.11-2.662,0.181-5.328,0.192-8.001
	c0.063-14.19-21.938-14.184-22,0c-0.088,19.96-3.29,39.474-6.259,59.153c-1.373,9.104-1.28,18.232-0.3,27.379
	c1.17,10.908,3.159,22.41,10.537,30.975c9.153,10.625,23.215,5.066,31.428-3.311c0.853-0.869,1.504-1.78,2.001-2.71
	c6.977-0.323,13.821-1.058,20.838-0.805c11.987,0.442,23.944,1.277,35.901,2.102c23.36,1.619,46.752,3.328,70.184,2.745
	c3.438-0.081,6.637-1.287,9.191-3.249c6.828,1.892,13.659,3.631,20.541,5.136c0.051,0.645,0.151,1.283,0.322,1.904
	c1.665,6.051,7.667,8.901,13.531,7.682c8.057-1.675,16.182-3.094,24.348-4.267c10.592,0.634,21.224,0.687,31.825,0.457
	c16.423-0.35,33.06-1.54,49.719-2.618c3.872,0.387,7.738,0.828,11.594,1.369c38.102,5.352,76.776,15.484,115.305,8.385
	c3.686-0.68,6.177-3.379,7.294-6.631c8.876,0.281,17.756,0.405,26.643,0.219c17.584-0.369,35.122-2.124,52.71-2.646
	c17.486-0.519,34.985-0.524,52.478-0.526c72.15-0.008,144.299,1.039,216.451,1.138c72.396,0.099,144.793,0.452,217.188,0.729
	c72.128,0.275,144.301-0.439,216.409,1.405c22.333,0.57,44.548,1.145,66.89,1.163c1.985,0.002,3.68-0.438,5.104-1.179
	c15.52,4.251,32.447,2.409,48.225,1.179C1357.572,333.955,1365.016,322.48,1356.853,315.84z M23.162,290.163
	c-0.132-0.24-0.263-0.472-0.393-0.713c0.492,0.332,0.976,0.674,1.468,0.995C23.875,290.354,23.523,290.255,23.162,290.163z"/>
</svg>
