<?xml version="1.0" encoding="utf-8"?>
<!-- Generator: Adobe Illustrator 16.0.0, SVG Export Plug-In . SVG Version: 6.00 Build 0)  -->
<!DOCTYPE svg PUBLIC "-//W3C//DTD SVG 1.1//EN" "http://www.w3.org/Graphics/SVG/1.1/DTD/svg11.dtd">
<svg version="1.1" id="Layer_1" xmlns="http://www.w3.org/2000/svg" xmlns:xlink="http://www.w3.org/1999/xlink" x="0px" y="0px"
	 width="109.559px" height="152.94px" viewBox="0 0 109.559 152.94" enable-background="new 0 0 109.559 152.94"
	 xml:space="preserve">
<path fill="#400C31" d="M98.098,58.916c-0.781,5.395-0.59,11.838,1.71,18.139c1.163,3.186-0.013,6.197-1.38,9.037
	c-1.744,3.623-3.92,7.002-6.563,10.049c-2.402,2.768-3.623,5.895-3.577,9.615c0.054,4.26-0.146,8.521-0.254,12.783
	c-0.081,3.148-0.771,5.846-4.042,7.41c-2.653,1.27-4.234,3.857-6.047,6.092c-13.209,16.275-34.729,16.35-47.928,0.158
	c-2.209-2.711-4.33-5.426-7.576-7.164c-2.281-1.221-2.565-3.846-2.6-6.305c-0.051-3.637-0.42-7.301-0.092-10.902
	c0.555-6.078-1.88-10.889-6.172-14.613c-6.438-5.59-7.67-12.145-5.283-19.984c1.54-5.061,1.91-10.279,1.463-15.621
	C7.661,32.546,23.266,14.096,48.379,11.823c13.084-1.184,25.187,1.377,35.725,9.672C95.944,30.815,98.932,43.556,98.098,58.916z
	 M36.276,108.861c1.156-2.025-0.893-2.203-1.797-2.768c-1.003-0.627-1.479,0.477-1.867,1.244c-0.756,1.492,0.551,1.791,1.371,2.484
	c1.658,1.402,1.701-0.441,2.36-1.059c0.157,1.975,4.15,5.553,6.21,5.563c2.296,0.012,2.296,0.012,3.65,2.27
	c-4.436-0.43-8.174-2.32-11.688-4.936c-0.454-0.338-1.421-1.928-2.306-0.814c-0.602,0.756-0.238,1.707,0.618,2.814
	c2.312,2.99,6.263,4.057,8.146,7.42c0.298,0.533,0.861,0.416,1.273,0.051c0.81-0.717,1.287-0.928,1.781,0.41
	c0.584,1.582,1.49,2.203,2.135-0.066c0.066-0.238,0.182-0.463,0.273-0.693c0.312,0.371,0.6,0.766,0.938,1.109
	c1.617,1.65,5.629,1.83,5.774,0.229c0.382-4.182,1.202-8.453-0.117-12.594c-0.674-2.113-1.865-2.934-4.225-1.287
	c-1.101,0.768-3.313,0.557-4.773,0.063C41.268,107.363,38.788,107.645,36.276,108.861z M35.836,63.77
	c-2.757,0.121-5.995,1.035-8.951,2.793c-3.773,2.242-4.936,6.584-3.12,11.238c1.708,4.381,3.993,5.643,8.866,4.738
	c2.986-0.555,5.732-1.814,8.315-3.375c3.654-2.209,4.628-5.146,3.353-9.721C43.206,65.518,40.84,63.793,35.836,63.77z M71.688,63.75
	c-3.059,0.021-5.936,0.59-7.305,3.633c-1.419,3.154-2.48,6.994,0.043,9.615c3.914,4.063,9.104,6.09,14.974,5.629
	c1.056-0.084,1.929-0.617,2.606-1.367c3.943-4.359,4.365-12.887-2.404-15.477C77.008,64.791,74.453,63.865,71.688,63.75z
	 M60.622,116.531c1.613-1.219,2.664-2.674,3.598-2.604c4.51,0.344,6.828-3.84,10.664-4.813c1.074-0.271,0.627-1.467,0.141-2.23
	c-0.514-0.807-1.018-1.215-2.109-0.506c-2.015,1.307-4.283,1.779-6.75,1.688c-2.367-0.09-5.337,1.195-7.007,0.178
	c-3.828-2.334-4.37,0.359-4.624,2.572c-0.399,3.459-0.184,7.006-0.015,10.506c0.093,1.93,1.051,2.303,3.063,1.605
	c1.422-0.492,2.855-0.658,3.842-1.928c1.736,4.148,3.705-2.732,5.469,0.115c1.904-3.131,5.635-4.295,7.773-7.26
	c0.674-0.934,1.789-1.602,1.028-2.711c-1.011-1.477-2.132,0.334-2.548,0.645C69.663,114.395,65.965,116.238,60.622,116.531z
	 M46.147,94.086c0.09,4.906,1.543,6.082,5.497,5.004c1.611-0.438,2.94-0.701,4.646-0.045c3.796,1.457,5.891-0.133,5.434-4.283
	c-0.604-5.457-2.875-10.33-6.377-14.592c-0.664-0.807-1.287-1.58-2.322-0.348C49.307,84.238,47.124,89.336,46.147,94.086z"/>
</svg>
